<?xml version="1.0" encoding="utf-8"?>
<!-- Generator: Adobe Illustrator 23.0.3, SVG Export Plug-In . SVG Version: 6.00 Build 0)  -->
<svg version="1.1" id="Layer_1" xmlns="http://www.w3.org/2000/svg" xmlns:xlink="http://www.w3.org/1999/xlink" x="0px" y="0px"
	 viewBox="0 0 2400 1500" style="enable-background:new 0 0 2400 1500;" xml:space="preserve">
<style type="text/css">
	.st0{fill:url(#Path_1_1_);}
	.st1{fill:url(#Path_2_1_);}
	.st2{fill:url(#Path_3_1_);}
</style>
<g id="Logo" transform="translate(-1322.516 -663.703)">
	
		<linearGradient id="Path_1_1_" gradientUnits="userSpaceOnUse" x1="1283.5157" y1="2623.5178" x2="1385.1" y2="2588.6646" gradientTransform="matrix(117.4559 0 0 -72.5939 -153228.7969 190805.2812)">
		<stop  offset="0" style="stop-color:#FF278B"/>
		<stop  offset="1" style="stop-color:#FCA734"/>
	</linearGradient>
	<path id="Path_1" class="st0" d="M3508.55,678.35H1536.94c-112.03,0-202.84,90.82-202.84,202.84V1944.8
		c0,112.03,90.82,202.84,202.84,202.84h1971.61c112.03,0,202.84-90.82,202.84-202.84V881.19
		C3711.39,769.17,3620.58,678.35,3508.55,678.35z M3548.48,1900.54c0,46.49-37.69,84.18-84.18,84.18l0,0H1581.18
		c-46.49,0-84.18-37.69-84.18-84.18c0-0.01,0-0.01,0-0.02v-975c-0.01-46.49,37.67-84.19,84.16-84.2c0.01,0,0.01,0,0.02,0H3464.3
		c46.48-0.01,84.17,37.66,84.18,84.14c0,0.01,0,0.03,0,0.04V1900.54z"/>
	<g id="Group_1" transform="translate(1357.034 683.504)">
		
			<linearGradient id="Path_2_1_" gradientUnits="userSpaceOnUse" x1="-76.1605" y1="1933.7683" x2="25.4238" y2="1898.915" gradientTransform="matrix(22.2169 0 0 -33.646 1648.1683 65307.1133)">
			<stop  offset="0" style="stop-color:#FF278B"/>
			<stop  offset="1" style="stop-color:#FCA734"/>
		</linearGradient>
		<path id="Path_2" class="st1" d="M905.12,395.68c136.03,0,208.47,77.07,208.47,174.99c2.56,66.18-37.67,126.53-99.74,149.63v3.62
			c67.12,20.85,111.52,75.27,111.52,165.04c0,107.9-76.16,187.7-214.89,187.7c-130.57,0-229.42-65.29-234.78-204.02h123.32
			c2.71,57.12,40.78,97.94,108.81,97.94c63.45,0,96.12-39.89,96.12-92.5c0-74.36-47.16-101.54-141.46-101.54h-26.31v-104.3h26.31
			c74.34,0,128.77-20.85,128.77-86.12c0-51.69-31.74-82.54-89.77-82.54c-47.32-3.67-88.66,31.71-92.33,79.03
			c-0.07,0.86-0.12,1.73-0.16,2.6H684.75C691.13,462.77,778.18,395.68,905.12,395.68z"/>
		
			<linearGradient id="Path_3_1_" gradientUnits="userSpaceOnUse" x1="-53.8091" y1="1932.5503" x2="47.7752" y2="1897.6971" gradientTransform="matrix(22.177 0 0 -32.932 1673.0732 63928.2852)">
			<stop  offset="0" style="stop-color:#FF278B"/>
			<stop  offset="1" style="stop-color:#FCA734"/>
		</linearGradient>
		<path id="Path_3" class="st2" d="M1207.73,968.45c149.63-126.94,306.49-243.91,306.49-365.43c0-58.96-26.31-98.85-88.87-98.85
			c-60.72,0-94.3,43.52-95.13,113.34h-123.36c4.53-151.44,101.56-221.24,220.33-221.24c142.39,0,214.02,84.34,214.02,199.49
			c0,153.26-147.75,272.94-253,361.81h267.51v105.25h-447.97L1207.73,968.45z"/>
	</g>
</g>
</svg>
