<?xml version="1.0" encoding="utf-8"?>
<!-- Generator: Adobe Illustrator 23.1.1, SVG Export Plug-In . SVG Version: 6.00 Build 0)  -->
<svg version="1.1" id="Layer_1" xmlns="http://www.w3.org/2000/svg" xmlns:xlink="http://www.w3.org/1999/xlink" x="0px" y="0px"
	 viewBox="0 0 2400 1500" style="enable-background:new 0 0 2400 1500;" xml:space="preserve">
<style type="text/css">
	.st0{fill:#FFFFFF;}
</style>
<g id="Logo" transform="translate(-1322.516 -663.703)">
	<path id="Path_1" class="st0" d="M3508.6,678.3H1536.9c-112,0-202.8,90.8-202.8,202.8v1063.6c0,112,90.8,202.8,202.8,202.8h1971.6
		c112,0,202.8-90.8,202.8-202.8V881.2C3711.4,769.2,3620.6,678.3,3508.6,678.3z M3548.5,1900.5c0,46.5-37.7,84.2-84.2,84.2l0,0
		H1581.2c-46.5,0-84.2-37.7-84.2-84.2c0,0,0,0,0,0v-975c0-46.5,37.7-84.2,84.2-84.2c0,0,0,0,0,0h1883.1c46.5,0,84.2,37.7,84.2,84.1
		c0,0,0,0,0,0V1900.5z"/>
	<g id="Group_1" transform="translate(1357.034 683.504)">
		<path id="Path_2" class="st0" d="M905.1,395.7c136,0,208.5,77.1,208.5,175c2.6,66.2-37.7,126.5-99.7,149.6v3.6
			c67.1,20.8,111.5,75.3,111.5,165c0,107.9-76.2,187.7-214.9,187.7c-130.6,0-229.4-65.3-234.8-204H799
			c2.7,57.1,40.8,97.9,108.8,97.9c63.5,0,96.1-39.9,96.1-92.5c0-74.4-47.2-101.5-141.5-101.5h-26.3V672.2h26.3
			c74.3,0,128.8-20.8,128.8-86.1c0-51.7-31.7-82.5-89.8-82.5c-47.3-3.7-88.7,31.7-92.3,79c-0.1,0.9-0.1,1.7-0.2,2.6H684.8
			C691.1,462.8,778.2,395.7,905.1,395.7z"/>
		<path id="Path_3" class="st0" d="M1207.7,968.5c149.6-126.9,306.5-243.9,306.5-365.4c0-59-26.3-98.9-88.9-98.9
			c-60.7,0-94.3,43.5-95.1,113.3h-123.4c4.5-151.4,101.6-221.2,220.3-221.2c142.4,0,214,84.3,214,199.5
			c0,153.3-147.8,272.9-253,361.8h267.5v105.3h-448L1207.7,968.5z"/>
	</g>
</g>
</svg>
