<?xml version="1.0" encoding="utf-8"?>
<!-- Generator: Adobe Illustrator 23.1.1, SVG Export Plug-In . SVG Version: 6.00 Build 0)  -->
<svg version="1.1" id="Layer_1" xmlns="http://www.w3.org/2000/svg" xmlns:xlink="http://www.w3.org/1999/xlink" x="0px" y="0px"
	 viewBox="0 0 395.24 100" style="enable-background:new 0 0 395.24 100;" xml:space="preserve">
<style type="text/css">
	.st0{fill:#EE2355;}
	.st1{fill:#10090C;}
</style>
<g>
	<path class="st0" d="M133.6,6.37H16.29c-6.67,0-12.07,5.4-12.07,12.07v63.29c0,6.67,5.4,12.07,12.07,12.07H133.6
		c6.67,0,12.07-5.4,12.07-12.07V18.43C145.67,11.77,140.27,6.37,133.6,6.37z M135.98,79.09c0,2.77-2.24,5.01-5.01,5.01H18.92
		c-2.77,0-5.01-2.24-5.01-5.01V21.07c0-2.77,2.24-5.01,5.01-5.01h112.05c2.77,0,5.01,2.24,5.01,5.01V79.09z"/>
	<g>
		<path class="st0" d="M59.44,30.21c8.09,0,12.41,4.59,12.41,10.41c0,4.91-3.08,7.93-5.94,8.9v0.22c3.99,1.24,6.64,4.48,6.64,9.82
			c0,6.42-4.53,11.17-12.79,11.17c-7.77,0-13.65-3.88-13.98-12.14h7.34c0.16,3.4,2.43,5.83,6.47,5.83c3.78,0,5.72-2.37,5.72-5.5
			c0-4.42-2.81-6.04-8.42-6.04h-1.57v-6.2h1.57c4.42,0,7.66-1.24,7.66-5.13c0-3.08-1.89-4.91-5.34-4.91c-3.67,0-5.23,2.37-5.5,4.86
			h-7.39C46.7,34.2,51.88,30.21,59.44,30.21z"/>
		<path class="st0" d="M77.44,64.3c8.9-7.55,18.24-14.51,18.24-21.74c0-3.51-1.57-5.88-5.29-5.88c-3.61,0-5.61,2.59-5.67,6.74h-7.34
			c0.27-9.01,6.04-13.17,13.11-13.17c8.47,0,12.73,5.02,12.73,11.87c0,9.12-8.8,16.24-15.05,21.53h15.92v6.26H77.44V64.3z"/>
	</g>
</g>
<g>
	<path class="st1" d="M162.29,43.26c-0.1-0.1-0.15-0.22-0.15-0.36v-1.53c0-0.15,0.05-0.28,0.15-0.38c0.1-0.1,0.22-0.15,0.36-0.15
		h1.93c0.15,0,0.28,0.05,0.38,0.15c0.1,0.1,0.15,0.22,0.15,0.38v1.53c0,0.14-0.05,0.26-0.16,0.36c-0.1,0.1-0.23,0.15-0.37,0.15
		h-1.93C162.5,43.41,162.38,43.36,162.29,43.26z M162.37,55.96c-0.1-0.1-0.15-0.22-0.15-0.36v-9.91c0-0.15,0.05-0.28,0.15-0.37
		c0.1-0.09,0.22-0.14,0.36-0.14h1.78c0.14,0,0.26,0.05,0.36,0.15c0.1,0.1,0.15,0.22,0.15,0.36v9.91c0,0.14-0.05,0.26-0.15,0.36
		c-0.1,0.1-0.22,0.15-0.36,0.15h-1.78C162.59,56.11,162.47,56.06,162.37,55.96z"/>
	<path class="st1" d="M167.93,55.96c-0.1-0.1-0.15-0.22-0.15-0.36v-9.91c0-0.15,0.05-0.28,0.15-0.37c0.1-0.09,0.22-0.14,0.36-0.14
		h1.74c0.15,0,0.28,0.05,0.37,0.14c0.09,0.09,0.14,0.21,0.14,0.37v0.86c0.85-1.05,2.02-1.57,3.51-1.57c1.29,0,2.31,0.42,3.07,1.26
		c0.76,0.84,1.13,2,1.13,3.47v5.9c0,0.14-0.05,0.26-0.14,0.36c-0.09,0.1-0.21,0.15-0.37,0.15h-1.89c-0.14,0-0.26-0.05-0.36-0.15
		c-0.1-0.1-0.15-0.22-0.15-0.36v-5.77c0-0.81-0.2-1.45-0.6-1.9c-0.4-0.45-0.97-0.68-1.71-0.68c-0.71,0-1.29,0.23-1.72,0.69
		c-0.43,0.46-0.65,1.09-0.65,1.89v5.77c0,0.14-0.05,0.26-0.14,0.36c-0.09,0.1-0.21,0.15-0.37,0.15h-1.87
		C168.15,56.11,168.03,56.06,167.93,55.96z"/>
	<path class="st1" d="M182.4,55.84c-0.71-0.32-1.24-0.7-1.59-1.12c-0.34-0.43-0.51-0.79-0.51-1.1c0-0.14,0.05-0.25,0.14-0.34
		s0.2-0.13,0.33-0.13h1.72c0.11,0,0.21,0.06,0.29,0.17c0.07,0.06,0.23,0.19,0.47,0.4c0.24,0.21,0.52,0.38,0.84,0.49
		c0.31,0.12,0.66,0.18,1.04,0.18c0.56,0,1.02-0.11,1.37-0.33c0.35-0.22,0.53-0.53,0.53-0.93c0-0.28-0.08-0.51-0.24-0.68
		c-0.16-0.17-0.45-0.34-0.86-0.48c-0.41-0.15-1.03-0.31-1.86-0.49c-1.19-0.25-2.07-0.64-2.64-1.15c-0.57-0.52-0.85-1.2-0.85-2.06
		c0-0.56,0.17-1.09,0.5-1.59s0.84-0.9,1.5-1.22c0.66-0.31,1.46-0.47,2.38-0.47c0.95,0,1.77,0.15,2.46,0.45
		c0.69,0.3,1.21,0.66,1.56,1.08c0.36,0.42,0.54,0.79,0.54,1.11c0,0.13-0.05,0.23-0.14,0.33c-0.09,0.09-0.2,0.14-0.33,0.14h-1.58
		c-0.15,0-0.27-0.06-0.36-0.17c-0.1-0.07-0.26-0.2-0.47-0.39s-0.46-0.34-0.72-0.45c-0.27-0.11-0.59-0.17-0.97-0.17
		c-0.52,0-0.92,0.11-1.2,0.34c-0.28,0.22-0.42,0.52-0.42,0.88c0,0.25,0.07,0.46,0.2,0.63c0.13,0.17,0.4,0.33,0.81,0.47
		c0.41,0.15,1.01,0.3,1.83,0.45c2.52,0.49,3.78,1.59,3.78,3.3c0,0.99-0.43,1.8-1.29,2.42c-0.86,0.62-2.06,0.92-3.6,0.92
		C184.01,56.32,183.12,56.16,182.4,55.84z"/>
	<path class="st1" d="M192.27,59.96c-0.1-0.09-0.15-0.21-0.15-0.37v-13.9c0-0.15,0.05-0.28,0.15-0.37c0.1-0.09,0.22-0.14,0.36-0.14
		h1.68c0.15,0,0.28,0.05,0.38,0.15c0.1,0.1,0.15,0.22,0.15,0.36v0.84c0.74-1.04,1.85-1.55,3.34-1.55c1.41,0,2.5,0.44,3.25,1.33
		s1.16,2.08,1.22,3.58c0.01,0.17,0.02,0.42,0.02,0.76s-0.01,0.59-0.02,0.76c-0.04,1.47-0.45,2.66-1.21,3.56s-1.85,1.35-3.27,1.35
		c-1.4,0-2.47-0.5-3.21-1.49v4.77c0,0.15-0.05,0.28-0.14,0.37c-0.09,0.09-0.21,0.14-0.37,0.14h-1.83
		C192.49,60.1,192.37,60.05,192.27,59.96z M199.77,51.28c0.01-0.14,0.02-0.35,0.02-0.63c0-0.28-0.01-0.49-0.02-0.63
		c-0.1-1.85-0.9-2.77-2.39-2.77c-0.8,0-1.39,0.26-1.79,0.78c-0.39,0.52-0.6,1.15-0.63,1.89c-0.01,0.17-0.02,0.43-0.02,0.8
		c0,0.36,0.01,0.64,0.02,0.82c0.03,0.7,0.25,1.3,0.65,1.79c0.41,0.49,0.99,0.73,1.76,0.73C198.87,54.05,199.67,53.13,199.77,51.28z"
		/>
	<path class="st1" d="M205.06,43.26c-0.1-0.1-0.15-0.22-0.15-0.36v-1.53c0-0.15,0.05-0.28,0.15-0.38c0.1-0.1,0.22-0.15,0.36-0.15
		h1.93c0.15,0,0.28,0.05,0.38,0.15c0.1,0.1,0.15,0.22,0.15,0.38v1.53c0,0.14-0.05,0.26-0.16,0.36c-0.11,0.1-0.23,0.15-0.37,0.15
		h-1.93C205.28,43.41,205.16,43.36,205.06,43.26z M205.15,55.96c-0.1-0.1-0.15-0.22-0.15-0.36v-9.91c0-0.15,0.05-0.28,0.15-0.37
		c0.1-0.09,0.22-0.14,0.36-0.14h1.79c0.14,0,0.26,0.05,0.36,0.15c0.1,0.1,0.15,0.22,0.15,0.36v9.91c0,0.14-0.05,0.26-0.15,0.36
		c-0.1,0.1-0.22,0.15-0.36,0.15h-1.79C205.36,56.11,205.24,56.06,205.15,55.96z"/>
	<path class="st1" d="M210.71,55.96c-0.1-0.1-0.15-0.22-0.15-0.36v-9.89c0-0.15,0.05-0.28,0.15-0.38c0.1-0.1,0.22-0.15,0.36-0.15
		h1.72c0.15,0,0.28,0.05,0.38,0.15c0.1,0.1,0.15,0.22,0.15,0.38v0.86c0.7-0.92,1.71-1.39,3.02-1.39h0.88c0.15,0,0.28,0.05,0.37,0.14
		c0.09,0.09,0.14,0.21,0.14,0.37v1.53c0,0.14-0.04,0.26-0.14,0.36c-0.09,0.1-0.21,0.15-0.37,0.15h-1.66c-0.66,0-1.18,0.19-1.55,0.57
		s-0.57,0.9-0.57,1.55v5.75c0,0.14-0.05,0.26-0.15,0.36c-0.1,0.1-0.22,0.15-0.36,0.15h-1.87C210.93,56.11,210.81,56.06,210.71,55.96
		z"/>
	<path class="st1" d="M220.4,55.89c-0.6-0.29-1.06-0.68-1.41-1.17c-0.34-0.49-0.51-1.03-0.51-1.62c0-0.95,0.39-1.72,1.16-2.31
		s1.83-0.99,3.17-1.2l2.88-0.42v-0.44c0-0.6-0.15-1.06-0.46-1.36s-0.8-0.46-1.47-0.46c-0.46,0-0.83,0.08-1.11,0.25
		s-0.51,0.34-0.68,0.51c-0.17,0.18-0.29,0.29-0.35,0.35c-0.06,0.17-0.16,0.25-0.31,0.25h-1.64c-0.13,0-0.24-0.04-0.33-0.13
		s-0.14-0.2-0.14-0.34c0.01-0.35,0.18-0.75,0.51-1.19s0.84-0.83,1.52-1.16c0.69-0.33,1.53-0.49,2.54-0.49
		c1.65,0,2.86,0.37,3.61,1.11c0.76,0.74,1.13,1.72,1.13,2.92v6.59c0,0.14-0.04,0.26-0.14,0.36c-0.09,0.1-0.21,0.15-0.37,0.15h-1.74
		c-0.14,0-0.26-0.05-0.36-0.15c-0.1-0.1-0.15-0.22-0.15-0.36v-0.82c-0.31,0.45-0.74,0.82-1.3,1.1c-0.56,0.29-1.26,0.43-2.1,0.43
		C221.65,56.32,221,56.18,220.4,55.89z M224.97,53.55c0.49-0.5,0.74-1.23,0.74-2.18v-0.42l-2.1,0.34c-1.61,0.25-2.42,0.79-2.42,1.62
		c0,0.45,0.19,0.79,0.56,1.04s0.82,0.37,1.33,0.37C223.85,54.3,224.48,54.05,224.97,53.55z"/>
	<path class="st1" d="M233.18,55.11c-0.64-0.66-0.97-1.64-0.97-2.93v-4.75h-1.66c-0.14,0-0.26-0.05-0.36-0.15
		c-0.1-0.1-0.15-0.22-0.15-0.36v-1.24c0-0.14,0.05-0.26,0.15-0.36c0.1-0.1,0.22-0.15,0.36-0.15h1.66V41.7
		c0-0.15,0.05-0.28,0.15-0.37c0.1-0.09,0.22-0.14,0.36-0.14h1.74c0.15,0,0.28,0.05,0.37,0.14c0.09,0.09,0.14,0.21,0.14,0.37v3.49
		h2.62c0.14,0,0.26,0.05,0.36,0.15c0.1,0.1,0.15,0.22,0.15,0.36v1.24c0,0.14-0.05,0.26-0.15,0.36c-0.1,0.1-0.22,0.15-0.36,0.15
		h-2.62v4.51c0,0.6,0.11,1.06,0.32,1.37c0.21,0.31,0.55,0.46,1.03,0.46h1.47c0.15,0,0.28,0.05,0.37,0.14s0.14,0.21,0.14,0.37v1.32
		c0,0.14-0.05,0.26-0.14,0.36c-0.09,0.1-0.21,0.15-0.37,0.15h-1.72C234.78,56.11,233.83,55.78,233.18,55.11z"/>
	<path class="st1" d="M240.22,43.26c-0.1-0.1-0.15-0.22-0.15-0.36v-1.53c0-0.15,0.05-0.28,0.15-0.38c0.1-0.1,0.22-0.15,0.36-0.15
		h1.93c0.15,0,0.28,0.05,0.38,0.15c0.1,0.1,0.15,0.22,0.15,0.38v1.53c0,0.14-0.05,0.26-0.16,0.36c-0.1,0.1-0.23,0.15-0.37,0.15
		h-1.93C240.43,43.41,240.31,43.36,240.22,43.26z M240.3,55.96c-0.1-0.1-0.15-0.22-0.15-0.36v-9.91c0-0.15,0.05-0.28,0.15-0.37
		c0.1-0.09,0.22-0.14,0.36-0.14h1.78c0.14,0,0.26,0.05,0.36,0.15c0.1,0.1,0.15,0.22,0.15,0.36v9.91c0,0.14-0.05,0.26-0.15,0.36
		c-0.1,0.1-0.22,0.15-0.36,0.15h-1.78C240.52,56.11,240.4,56.06,240.3,55.96z"/>
	<path class="st1" d="M246.75,55.06c-0.9-0.84-1.38-2-1.45-3.49l-0.02-0.92l0.02-0.92c0.07-1.47,0.56-2.63,1.47-3.48
		s2.18-1.27,3.8-1.27c1.61,0,2.87,0.42,3.78,1.27s1.4,2.01,1.47,3.48c0.01,0.17,0.02,0.48,0.02,0.92c0,0.45-0.01,0.76-0.02,0.92
		c-0.07,1.48-0.55,2.65-1.45,3.49c-0.9,0.84-2.16,1.26-3.8,1.26C248.92,56.32,247.64,55.9,246.75,55.06z M252.28,53.51
		c0.4-0.46,0.61-1.14,0.64-2.04c0.01-0.14,0.02-0.41,0.02-0.82c0-0.41-0.01-0.68-0.02-0.82c-0.03-0.9-0.25-1.58-0.65-2.05
		c-0.41-0.47-0.97-0.7-1.7-0.7c-0.74,0-1.32,0.23-1.72,0.7c-0.41,0.47-0.62,1.15-0.65,2.05l-0.02,0.82l0.02,0.82
		c0.03,0.9,0.25,1.58,0.65,2.04s0.98,0.69,1.72,0.69S251.88,53.97,252.28,53.51z"/>
	<path class="st1" d="M258.32,55.96c-0.1-0.1-0.15-0.22-0.15-0.36v-9.91c0-0.15,0.05-0.28,0.15-0.37c0.1-0.09,0.22-0.14,0.36-0.14
		h1.74c0.15,0,0.28,0.05,0.37,0.14c0.09,0.09,0.14,0.21,0.14,0.37v0.86c0.85-1.05,2.02-1.57,3.51-1.57c1.29,0,2.31,0.42,3.07,1.26
		c0.76,0.84,1.13,2,1.13,3.47v5.9c0,0.14-0.05,0.26-0.14,0.36c-0.09,0.1-0.21,0.15-0.37,0.15h-1.89c-0.14,0-0.26-0.05-0.36-0.15
		c-0.1-0.1-0.15-0.22-0.15-0.36v-5.77c0-0.81-0.2-1.45-0.6-1.9c-0.4-0.45-0.97-0.68-1.71-0.68c-0.71,0-1.29,0.23-1.72,0.69
		s-0.65,1.09-0.65,1.89v5.77c0,0.14-0.05,0.26-0.14,0.36c-0.09,0.1-0.21,0.15-0.37,0.15h-1.87
		C258.53,56.11,258.41,56.06,258.32,55.96z"/>
	<path class="st1" d="M276.23,55.96c-0.1-0.1-0.15-0.22-0.15-0.36v-9.89c0-0.15,0.05-0.28,0.15-0.38c0.1-0.1,0.22-0.15,0.36-0.15
		h1.72c0.15,0,0.28,0.05,0.38,0.15c0.1,0.1,0.15,0.22,0.15,0.38v0.86c0.7-0.92,1.71-1.39,3.02-1.39h0.88c0.15,0,0.28,0.05,0.37,0.14
		c0.09,0.09,0.14,0.21,0.14,0.37v1.53c0,0.14-0.04,0.26-0.14,0.36c-0.09,0.1-0.21,0.15-0.37,0.15h-1.66c-0.66,0-1.18,0.19-1.55,0.57
		s-0.57,0.9-0.57,1.55v5.75c0,0.14-0.05,0.26-0.15,0.36c-0.1,0.1-0.22,0.15-0.36,0.15h-1.87C276.45,56.11,276.33,56.06,276.23,55.96
		z"/>
	<path class="st1" d="M285.73,54.98c-0.92-0.9-1.4-2.17-1.46-3.82l-0.02-0.52c0-1.75,0.46-3.13,1.38-4.14
		c0.92-1.01,2.19-1.51,3.81-1.51c1.67,0,2.95,0.5,3.85,1.51c0.9,1.01,1.35,2.35,1.35,4.03v0.44c0,0.14-0.05,0.26-0.15,0.36
		c-0.1,0.1-0.22,0.15-0.38,0.15h-6.97v0.17c0.03,0.78,0.24,1.43,0.64,1.94c0.4,0.51,0.95,0.77,1.65,0.77c0.8,0,1.45-0.32,1.95-0.97
		c0.13-0.15,0.22-0.25,0.29-0.28c0.07-0.03,0.19-0.05,0.36-0.05h1.85c0.13,0,0.23,0.04,0.33,0.1c0.09,0.07,0.14,0.17,0.14,0.29
		c0,0.34-0.2,0.73-0.6,1.19c-0.4,0.46-0.97,0.85-1.71,1.19s-1.6,0.5-2.58,0.5C287.89,56.32,286.65,55.87,285.73,54.98z
		 M291.75,49.68v-0.04c0-0.83-0.21-1.49-0.62-1.98c-0.41-0.5-0.98-0.75-1.69-0.75s-1.27,0.25-1.68,0.75
		c-0.41,0.5-0.61,1.16-0.61,1.98v0.04H291.75z"/>
	<path class="st1" d="M296.94,43.26c-0.1-0.1-0.15-0.22-0.15-0.36v-1.53c0-0.15,0.05-0.28,0.15-0.38c0.1-0.1,0.22-0.15,0.36-0.15
		h1.93c0.15,0,0.28,0.05,0.38,0.15c0.1,0.1,0.15,0.22,0.15,0.38v1.53c0,0.14-0.05,0.26-0.16,0.36c-0.11,0.1-0.23,0.15-0.37,0.15
		h-1.93C297.15,43.41,297.03,43.36,296.94,43.26z M297.02,55.96c-0.1-0.1-0.15-0.22-0.15-0.36v-9.91c0-0.15,0.05-0.28,0.15-0.37
		c0.1-0.09,0.22-0.14,0.36-0.14h1.79c0.14,0,0.26,0.05,0.36,0.15c0.1,0.1,0.15,0.22,0.15,0.36v9.91c0,0.14-0.05,0.26-0.15,0.36
		c-0.1,0.1-0.22,0.15-0.36,0.15h-1.79C297.24,56.11,297.12,56.06,297.02,55.96z"/>
	<path class="st1" d="M302.59,55.96c-0.1-0.1-0.15-0.22-0.15-0.36v-9.91c0-0.15,0.05-0.28,0.15-0.37c0.1-0.09,0.22-0.14,0.36-0.14
		h1.74c0.15,0,0.28,0.05,0.37,0.14c0.09,0.09,0.14,0.21,0.14,0.37v0.86c0.85-1.05,2.02-1.57,3.51-1.57c1.29,0,2.31,0.42,3.07,1.26
		c0.76,0.84,1.13,2,1.13,3.47v5.9c0,0.14-0.05,0.26-0.14,0.36c-0.09,0.1-0.21,0.15-0.37,0.15h-1.89c-0.14,0-0.26-0.05-0.36-0.15
		c-0.1-0.1-0.15-0.22-0.15-0.36v-5.77c0-0.81-0.2-1.45-0.6-1.9c-0.4-0.45-0.97-0.68-1.71-0.68c-0.71,0-1.29,0.23-1.72,0.69
		c-0.43,0.46-0.65,1.09-0.65,1.89v5.77c0,0.14-0.05,0.26-0.14,0.36c-0.09,0.1-0.21,0.15-0.37,0.15h-1.87
		C302.8,56.11,302.68,56.06,302.59,55.96z"/>
	<path class="st1" d="M318.61,55.97c-0.11-0.09-0.2-0.22-0.27-0.39l-3.95-9.74c-0.01-0.04-0.02-0.1-0.02-0.19
		c0-0.13,0.05-0.23,0.14-0.33c0.09-0.09,0.19-0.14,0.3-0.14h1.74c0.28,0,0.47,0.13,0.57,0.4l2.77,7.33l2.77-7.33
		c0.03-0.1,0.09-0.19,0.18-0.27s0.21-0.13,0.37-0.13h1.74c0.13,0,0.23,0.05,0.32,0.14c0.08,0.09,0.13,0.2,0.13,0.33
		c0,0.08-0.01,0.15-0.02,0.19l-3.93,9.74c-0.15,0.35-0.41,0.52-0.76,0.52h-1.6C318.88,56.11,318.72,56.06,318.61,55.97z"/>
	<path class="st1" d="M327.9,54.98c-0.92-0.9-1.4-2.17-1.46-3.82l-0.02-0.52c0-1.75,0.46-3.13,1.38-4.14
		c0.92-1.01,2.19-1.51,3.81-1.51c1.67,0,2.95,0.5,3.85,1.51c0.9,1.01,1.35,2.35,1.35,4.03v0.44c0,0.14-0.05,0.26-0.15,0.36
		c-0.1,0.1-0.22,0.15-0.38,0.15h-6.97v0.17c0.03,0.78,0.24,1.43,0.64,1.94c0.4,0.51,0.95,0.77,1.65,0.77c0.8,0,1.45-0.32,1.95-0.97
		c0.13-0.15,0.22-0.25,0.29-0.28c0.07-0.03,0.19-0.05,0.36-0.05h1.85c0.13,0,0.23,0.04,0.33,0.1c0.09,0.07,0.14,0.17,0.14,0.29
		c0,0.34-0.2,0.73-0.6,1.19c-0.4,0.46-0.97,0.85-1.71,1.19s-1.6,0.5-2.58,0.5C330.06,56.32,328.82,55.87,327.9,54.98z M333.92,49.68
		v-0.04c0-0.83-0.21-1.49-0.62-1.98c-0.41-0.5-0.98-0.75-1.69-0.75s-1.27,0.25-1.68,0.75c-0.41,0.5-0.61,1.16-0.61,1.98v0.04H333.92
		z"/>
	<path class="st1" d="M339.19,55.96c-0.1-0.1-0.15-0.22-0.15-0.36v-9.91c0-0.15,0.05-0.28,0.15-0.37c0.1-0.09,0.22-0.14,0.36-0.14
		h1.74c0.15,0,0.28,0.05,0.37,0.14c0.09,0.09,0.14,0.21,0.14,0.37v0.86c0.85-1.05,2.02-1.57,3.51-1.57c1.29,0,2.31,0.42,3.07,1.26
		c0.76,0.84,1.13,2,1.13,3.47v5.9c0,0.14-0.05,0.26-0.14,0.36c-0.09,0.1-0.21,0.15-0.37,0.15h-1.89c-0.14,0-0.26-0.05-0.36-0.15
		c-0.1-0.1-0.15-0.22-0.15-0.36v-5.77c0-0.81-0.2-1.45-0.6-1.9c-0.4-0.45-0.97-0.68-1.71-0.68c-0.71,0-1.29,0.23-1.72,0.69
		c-0.43,0.46-0.65,1.09-0.65,1.89v5.77c0,0.14-0.05,0.26-0.14,0.36c-0.09,0.1-0.21,0.15-0.37,0.15h-1.87
		C339.41,56.11,339.29,56.06,339.19,55.96z"/>
	<path class="st1" d="M354.12,55.11c-0.64-0.66-0.97-1.64-0.97-2.93v-4.75h-1.66c-0.14,0-0.26-0.05-0.36-0.15s-0.15-0.22-0.15-0.36
		v-1.24c0-0.14,0.05-0.26,0.15-0.36c0.1-0.1,0.22-0.15,0.36-0.15h1.66V41.7c0-0.15,0.05-0.28,0.15-0.37
		c0.1-0.09,0.22-0.14,0.36-0.14h1.74c0.15,0,0.28,0.05,0.37,0.14c0.09,0.09,0.14,0.21,0.14,0.37v3.49h2.62
		c0.14,0,0.26,0.05,0.36,0.15c0.1,0.1,0.15,0.22,0.15,0.36v1.24c0,0.14-0.05,0.26-0.15,0.36s-0.22,0.15-0.36,0.15h-2.62v4.51
		c0,0.6,0.1,1.06,0.31,1.37c0.21,0.31,0.55,0.46,1.03,0.46h1.47c0.15,0,0.28,0.05,0.37,0.14c0.09,0.09,0.14,0.21,0.14,0.37v1.32
		c0,0.14-0.04,0.26-0.14,0.36c-0.09,0.1-0.21,0.15-0.37,0.15H357C355.72,56.11,354.76,55.78,354.12,55.11z"/>
	<path class="st1" d="M362.09,54.98c-0.92-0.9-1.4-2.17-1.46-3.82l-0.02-0.52c0-1.75,0.46-3.13,1.38-4.14
		c0.92-1.01,2.19-1.51,3.81-1.51c1.67,0,2.95,0.5,3.85,1.51c0.9,1.01,1.35,2.35,1.35,4.03v0.44c0,0.14-0.05,0.26-0.15,0.36
		c-0.1,0.1-0.22,0.15-0.38,0.15h-6.97v0.17c0.03,0.78,0.24,1.43,0.64,1.94c0.4,0.51,0.95,0.77,1.65,0.77c0.8,0,1.45-0.32,1.95-0.97
		c0.13-0.15,0.22-0.25,0.29-0.28c0.07-0.03,0.19-0.05,0.36-0.05h1.85c0.13,0,0.23,0.04,0.33,0.1c0.09,0.07,0.14,0.17,0.14,0.29
		c0,0.34-0.2,0.73-0.6,1.19c-0.4,0.46-0.97,0.85-1.71,1.19s-1.6,0.5-2.58,0.5C364.25,56.32,363.01,55.87,362.09,54.98z
		 M368.11,49.68v-0.04c0-0.83-0.21-1.49-0.62-1.98c-0.41-0.5-0.98-0.75-1.69-0.75c-0.71,0-1.27,0.25-1.68,0.75
		c-0.41,0.5-0.61,1.16-0.61,1.98v0.04H368.11z"/>
	<path class="st1" d="M374.03,54.97c-0.76-0.9-1.17-2.11-1.24-3.62l-0.02-0.69l0.02-0.69c0.06-1.48,0.46-2.68,1.23-3.6
		c0.76-0.92,1.85-1.38,3.27-1.38c1.34,0,2.42,0.46,3.21,1.39V41.7c0-0.15,0.05-0.28,0.15-0.37c0.1-0.09,0.22-0.14,0.36-0.14h1.83
		c0.15,0,0.28,0.05,0.37,0.14c0.09,0.09,0.14,0.21,0.14,0.37v13.9c0,0.14-0.05,0.26-0.14,0.36c-0.09,0.1-0.21,0.15-0.37,0.15h-1.7
		c-0.14,0-0.26-0.05-0.36-0.15c-0.1-0.1-0.15-0.22-0.15-0.36v-0.78c-0.77,0.99-1.88,1.49-3.34,1.49
		C375.87,56.32,374.78,55.87,374.03,54.97z M379.85,53.29c0.38-0.51,0.6-1.14,0.64-1.9c0.01-0.17,0.02-0.43,0.02-0.8
		c0-0.38-0.01-0.65-0.02-0.82c-0.03-0.7-0.25-1.29-0.65-1.79c-0.41-0.49-0.99-0.73-1.76-0.73c-1.5,0-2.3,0.92-2.39,2.77l-0.02,0.63
		l0.02,0.63c0.1,1.85,0.9,2.77,2.39,2.77C378.88,54.05,379.47,53.8,379.85,53.29z"/>
	<path class="st1" d="M386.14,55.96c-0.1-0.1-0.15-0.22-0.15-0.36v-2.12c0-0.14,0.05-0.26,0.15-0.36c0.1-0.1,0.22-0.15,0.36-0.15
		h2.12c0.14,0,0.26,0.05,0.36,0.15c0.1,0.1,0.15,0.22,0.15,0.36v2.12c0,0.14-0.05,0.26-0.14,0.36c-0.09,0.1-0.21,0.15-0.37,0.15
		h-2.12C386.36,56.11,386.24,56.06,386.14,55.96z"/>
</g>
</svg>
