<?xml version="1.0" encoding="utf-8"?>
<!-- Generator: Adobe Illustrator 23.1.1, SVG Export Plug-In . SVG Version: 6.00 Build 0)  -->
<svg version="1.1" id="Layer_1" xmlns="http://www.w3.org/2000/svg" xmlns:xlink="http://www.w3.org/1999/xlink" x="0px" y="0px"
	 viewBox="0 0 2400 2400" style="enable-background:new 0 0 2400 2400;" xml:space="preserve">
<style type="text/css">
	.st0{fill:#E5E5E5;}
</style>
<g>
	<g>
		<path class="st0" d="M960.88,1131.5l-85.74,85.74c-7.4,7.4-19.4,7.4-26.79,0l-85.74-85.74c-7.4-7.4-19.4-7.4-26.79,0l-69.13,69.13
			c-7.4,7.4-7.4,19.4,0,26.79l85.74,85.74c7.4,7.4,7.4,19.4,0,26.79l-85.74,85.74c-7.4,7.4-7.4,19.4,0,26.79l69.13,69.13
			c7.4,7.4,19.4,7.4,26.79,0l85.74-85.74c7.4-7.4,19.4-7.4,26.79,0l85.74,85.74c7.4,7.4,19.4,7.4,26.79,0l69.13-69.13
			c7.4-7.4,7.4-19.4,0-26.79l-85.74-85.74c-7.4-7.4-7.4-19.4,0-26.79l85.74-85.74c7.4-7.4,7.4-19.4,0-26.79l-69.13-69.13
			C980.27,1124.1,968.28,1124.1,960.88,1131.5z"/>
		<path class="st0" d="M1733.31,1200.63l-69.13-69.13c-7.4-7.4-19.4-7.4-26.79,0l-85.74,85.74c-7.4,7.4-19.4,7.4-26.79,0
			l-85.74-85.74c-7.4-7.4-19.4-7.4-26.79,0l-69.13,69.13c-7.4,7.4-7.4,19.4,0,26.79l85.74,85.74c7.4,7.4,7.4,19.4,0,26.79
			l-85.74,85.74c-7.4,7.4-7.4,19.4,0,26.79l69.13,69.13c7.4,7.4,19.4,7.4,26.79,0l85.74-85.74c7.4-7.4,19.4-7.4,26.79,0l85.74,85.74
			c7.4,7.4,19.4,7.4,26.79,0l69.13-69.13c7.4-7.4,7.4-19.4,0-26.79l-85.74-85.74c-7.4-7.4-7.4-19.4,0-26.79l85.74-85.74
			C1740.71,1220.02,1740.71,1208.03,1733.31,1200.63z"/>
	</g>
	<g>
		<path class="st0" d="M1746.16,2018.07c-7.52,7.03-19.32,6.62-26.35-0.9l-33.57-35.96c-61.63-66.02-134.55-117.99-216.71-154.46
			c-85.01-37.73-175.69-56.87-269.54-56.87s-184.53,19.13-269.54,56.87c-82.16,36.47-155.07,88.44-216.71,154.46l-33.57,35.96
			c-7.03,7.53-18.82,7.93-26.35,0.91l-71.91-67.14c-7.52-7.03-7.93-18.82-0.9-26.34l33.57-35.96
			c74.15-79.42,161.91-141.96,260.83-185.88c102.45-45.48,211.65-68.54,324.58-68.54c112.93,0,222.13,23.06,324.58,68.54
			c98.92,43.91,186.68,106.45,260.83,185.88l33.57,35.96c7.03,7.52,6.62,19.32-0.9,26.35L1746.16,2018.07z"/>
	</g>
	<path class="st0" d="M2104.2,671.99L1500.31,71.98c-34.51-34.28-79.68-53.99-127.97-56.06v-0.21h-8.48h-127.18H339.04
		c-55.36,0-100.39,45.03-100.39,100.39v2167.8c0,55.36,45.03,100.39,100.39,100.39h1721.92c55.36,0,100.39-45.03,100.39-100.39
		V809.33C2161.35,758.13,2140.52,708.07,2104.2,671.99z M2008.58,768.23L2008.58,768.23c6.51,6.5,1.91,17.62-7.29,17.62H1389.8
		c-9.65,0-17.47-7.82-17.47-17.47V168.66c0-6.21,7.47-9.38,11.93-5.05L2008.58,768.23z M1999.01,2248.62H400.99
		c-14.73,0-26.68-11.94-26.68-26.68V176.81c0-14.04,11.39-25.43,25.43-25.43h811.5c14.04,0,25.43,11.39,25.43,25.43v644.32
		c0,55.44,44.95,100.39,100.39,100.39h671.91c9.23,0,16.71,7.48,16.71,16.71v1283.72
		C2025.69,2236.68,2013.74,2248.62,1999.01,2248.62z"/>
</g>
</svg>
