<?xml version="1.0" encoding="utf-8"?>
<!-- Generator: Adobe Illustrator 23.1.1, SVG Export Plug-In . SVG Version: 6.00 Build 0)  -->
<svg version="1.1" id="Layer_1" xmlns="http://www.w3.org/2000/svg" xmlns:xlink="http://www.w3.org/1999/xlink" x="0px" y="0px"
	 viewBox="0 0 496 496" style="enable-background:new 0 0 496 496;" xml:space="preserve">
<style type="text/css">
	.st0{fill:#FFFFFF;}
</style>
<path class="st0" d="M352.5,256c4.75,0,9.35,1.39,13.31,4.03l55.87,37.25c6.6,4.39,14.27,6.72,22.19,6.72H496v-16h-52.11
	c-4.75,0-9.36-1.39-13.32-4.03L408,268.92V0H104v48H0v448h304v-48h104v-67.3c0.5-0.12,1.02-0.16,1.53-0.28l37.21-9.3
	C455,369.05,463.5,368,472,368h24v-16h-24c-9.81,0-19.62,1.21-29.14,3.59l-37.21,9.3c-19.13,4.78-39.49,4-58.18-2.23l-13.48-4.5
	C321.72,354.07,308.94,352,296,352h-69.81c0-13.23,10.77-24,24-24h88c13.23,0,24-10.77,24-24c0-12.27-9.3-22.3-21.19-23.72
	l6.57-24.28H352.5z M342.4,377.83c12.27,4.1,25.06,6.17,37.99,6.17c3.88,0,7.75-0.34,11.61-0.71V432h-88v-26.17
	c2.81-3.24,4.98-7.07,6.15-11.41l6.55-24.27c4.12,0.84,8.21,1.84,12.22,3.18L342.4,377.83z M300.67,368.18l-5.96,22.06
	c-1.55,5.75-6.79,9.75-12.73,9.75h-2.59c-7.27,0-13.18-5.91-13.18-13.18c0-1.17,0.15-2.32,0.46-3.44l4.15-15.38H296
	C297.56,368,299.11,368.12,300.67,368.18z M254.23,368l-3.02,11.19c-0.67,2.48-1.01,5.04-1.01,7.62c0,10.82,5.98,20.17,14.75,25.21
	l-2.51,10.03l15.52,3.88l2.49-9.94h1.54c2.06,0,4.06-0.29,6.02-0.7V480H16V64h104V16h272v242.26l-17.3-11.54
	c-6.6-4.39-14.27-6.72-22.19-6.72h-0.62l33.3-123.19c0.67-2.48,1.01-5.04,1.01-7.62c0-16.09-13.09-29.18-29.18-29.18h-2.59
	c-13.16,0-24.74,8.87-28.18,21.57L304,183.86V48H136v16h152v176h-16.55c-8.71,0-16.91,2.89-23.76,8H168v16h62.88l-16,16H168v16
	h30.89l-13.37,13.37c-4.72,4.71-7.32,10.98-7.32,17.66c0,13.77,11.2,24.97,24.98,24.97c2.46,0,4.84-0.47,7.14-1.16
	c-0.01,0.39-0.12,0.76-0.12,1.16c0,8.82,7.18,16,16,16H254.23z M315.86,312h-29.91l33.78-124.99l27.44,9.14L315.86,312z
	 M254.48,263.02c4.47-4.46,10.66-7.02,16.97-7.02h13.05l-6.53,24.14c-10.12,0.37-19.61,4.37-26.81,11.57l-41.66,41.66
	c-1.67,1.67-3.98,2.63-6.34,2.63c-4.95,0-8.98-4.02-8.98-8.97c0-2.4,0.94-4.65,2.63-6.34L254.48,263.02z M262.48,303.02
	c3.02-3.02,6.87-5.09,10.98-6.16L269.37,312h-15.86L262.48,303.02z M369.73,112.63l-9.8,36.25l-27.44-9.14l9.18-33.98
	c1.56-5.75,6.79-9.75,12.73-9.75h2.59c7.27,0,13.18,5.91,13.18,13.18C370.19,110.35,370.04,111.5,369.73,112.63z M328.32,155.21
	l27.44,9.14l-4.42,16.33l-27.44-9.14L328.32,155.21z M338.19,296c4.41,0,8,3.59,8,8s-3.59,8-8,8h-5.77l4.33-16H338.19z"/>
<path class="st0" d="M240,80H32v80h208V80z M224,144H48V96h176V144z"/>
<path class="st0" d="M64,112h16v16H64V112z"/>
<path class="st0" d="M96,112h16v16H96V112z"/>
<path class="st0" d="M128,112h16v16h-16V112z"/>
<path class="st0" d="M160,112h16v16h-16V112z"/>
<path class="st0" d="M192,112h16v16h-16V112z"/>
<path class="st0" d="M128,256h-16v32H48v-64h48v-16H32v96h96V256z"/>
<path class="st0" d="M154.34,178.34L80,252.69l-10.34-10.34l-11.31,11.31L80,275.31l85.66-85.66L154.34,178.34z"/>
<path class="st0" d="M112,424H48v-64h48v-16H32v96h96v-48h-16V424z"/>
<path class="st0" d="M69.66,378.34l-11.31,11.31L80,411.31l85.66-85.66l-11.31-11.31L80,388.69L69.66,378.34z"/>
<path class="st0" d="M256,440h16v16h-16V440z"/>
<path class="st0" d="M152,440h88v16h-88V440z"/>
<path class="st0" d="M168,216h104v16H168V216z"/>
</svg>
