<?xml version="1.0" encoding="utf-8"?>
<!-- Generator: Adobe Illustrator 23.1.1, SVG Export Plug-In . SVG Version: 6.00 Build 0)  -->
<svg version="1.1" id="Layer_1" xmlns="http://www.w3.org/2000/svg" xmlns:xlink="http://www.w3.org/1999/xlink" x="0px" y="0px"
	 viewBox="0 0 2000 1000" style="enable-background:new 0 0 2000 1000;" xml:space="preserve">
<style type="text/css">
	.st0{fill:#FFFFFF;}
</style>
<g>
	<g id="surface1">
		<path class="st0" d="M253.8,335.1v-14.9c0-7.4-6-13.3-13.3-13.3H133.7c-7.4,0-13.3,6-13.3,13.3v58.7c0,6.8,5.2,12.5,12,13.2l10,26
			c2.7,6.9,10.4,10.3,17.3,7.7l62.7-24.1c-4.3,11.3-3.1,24,3.3,34.3l1.5,2.5v25.9c0,1.5,1.2,2.7,2.7,2.7h48c1.5,0,2.7-1.2,2.7-2.7
			v-88.1c0-9.2-3.7-18.1-10.2-24.6L253.8,335.1z M253.8,351.1l8.1,21c1.6,4.1-0.5,8.8-4.6,10.3l-4.6,1.8c0.7-1.7,1.1-3.5,1.1-5.3
			L253.8,351.1L253.8,351.1z M125.7,378.9v-58.7c0-4.4,3.6-8,8-8h106.8c4.4,0,8,3.6,8,8v17h0l0,0.1v41.7c0,0.5-0.1,0.9-0.2,1.4
			l-24.5-24.4c-5.5-5.4-14.3-5.4-19.8-0.1c-5.5,5.3-5.9,14.1-0.7,19.8l10.4,11.4h-80C129.2,386.9,125.7,383.3,125.7,378.9z
			 M159.8,392.3l-19,7.3l-2.8-7.3H159.8z M157.7,420.8c-4.1,1.6-8.8-0.5-10.4-4.6l-4.5-11.7l31.9-12.3v0h43.9l3.5,3.8L157.7,420.8z
			 M275.1,461.7h-42.7v-21.4h42.7V461.7z M275.1,435h-43.9l-1.2-1.9c-6.5-10.4-6.8-23.5-0.7-34.2c0.6-1,0.4-2.3-0.4-3.1l-21.9-23.9
			c-3.3-3.6-3.1-9.1,0.4-12.4c3.5-3.3,9-3.3,12.4,0.1l42.5,42.5l3.8-3.8l-9.9-9.9l2.7-1.1c6.9-2.7,10.3-10.4,7.7-17.2l-9-23.5
			l8.6,8.7c5.5,5.5,8.6,13,8.7,20.8L275.1,435L275.1,435z"/>
		<path class="st0" d="M150.7,344.2c3.8,0,6.9-3.1,6.9-6.9v-12.8c0-3.8-3.1-6.9-6.9-6.9h-12.8c-3.8,0-6.9,3.1-6.9,6.9v12.8
			c0,3.8,3.1,6.9,6.9,6.9H150.7z M136.3,337.3v-3.7h5.3v-5.3h-5.3v-3.7c0-0.9,0.7-1.6,1.6-1.6h12.8c0.9,0,1.6,0.7,1.6,1.6v3.7H147
			v5.3h5.3v3.7c0,0.9-0.7,1.6-1.6,1.6h-12.8C137.1,338.9,136.3,338.2,136.3,337.3z"/>
		<path class="st0" d="M133.7,352.2h10.7v5.3h-10.7C133.7,357.6,133.7,352.2,133.7,352.2z"/>
		<path class="st0" d="M133.7,368.2h10.7v5.3h-10.7C133.7,373.6,133.7,368.2,133.7,368.2z"/>
		<path class="st0" d="M181.7,368.2h10.7v5.3h-10.7V368.2z"/>
		<path class="st0" d="M149.7,352.2h10.7v5.3h-10.7V352.2z"/>
		<path class="st0" d="M165.7,352.2h10.7v5.3h-10.7V352.2z"/>
		<path class="st0" d="M181.7,352.2h10.7v5.3h-10.7V352.2z"/>
		<path class="st0" d="M232.4,320.2h5.3v8h-5.3V320.2z"/>
		<path class="st0" d="M221.7,320.2h5.3v8h-5.3V320.2z"/>
		<path class="st0" d="M211.1,320.2h5.3v8h-5.3V320.2z"/>
		<path class="st0" d="M200.4,320.2h5.3v8h-5.3V320.2z"/>
		<path class="st0" d="M237.8,445.6h5.3v5.3h-5.3V445.6z"/>
	</g>
	<g>
		<path class="st0" d="M474.6,390.4c1.5,0,2.9,0.4,4.1,1.2l17.3,11.5c2,1.4,4.4,2.1,6.9,2.1H519v-5h-16.2c-1.5,0-2.9-0.4-4.1-1.2
			l-7-4.7v-83.3h-94.2v14.9h-32.2v138.8h94.2v-14.9h32.2V429c0.2,0,0.3,0,0.5-0.1l11.5-2.9c2.6-0.6,5.2-1,7.8-1h7.4v-5h-7.4
			c-3,0-6.1,0.4-9,1.1l-11.5,2.9c-5.9,1.5-12.2,1.2-18-0.7l-4.2-1.4c-3.8-1.3-7.8-1.9-11.8-1.9h-21.6c0-4.1,3.3-7.4,7.4-7.4h27.3
			c4.1,0,7.4-3.3,7.4-7.4c0-3.8-2.9-6.9-6.6-7.4l2-7.5H474.6z M471.4,428.1c3.8,1.3,7.8,1.9,11.8,1.9c1.2,0,2.4-0.1,3.6-0.2v15.1
			h-27.3v-8.1c0.9-1,1.5-2.2,1.9-3.5l2-7.5c1.3,0.3,2.5,0.6,3.8,1L471.4,428.1z M458.5,425.2l-1.8,6.8c-0.5,1.8-2.1,3-3.9,3h-0.8
			c-2.3,0-4.1-1.8-4.1-4.1c0-0.4,0-0.7,0.1-1.1l1.3-4.8h7.8C457.5,425.1,458,425.1,458.5,425.2z M444.1,425.1l-0.9,3.5
			c-0.2,0.8-0.3,1.6-0.3,2.4c0,3.4,1.9,6.3,4.6,7.8l-0.8,3.1l4.8,1.2l0.8-3.1h0.5c0.6,0,1.3-0.1,1.9-0.2v20.1h-84.3V330.9h32.2V316
			h84.3v75.1l-5.4-3.6c-2-1.4-4.4-2.1-6.9-2.1h-0.2l10.3-38.2c0.2-0.8,0.3-1.6,0.3-2.4c0-5-4.1-9-9-9h-0.8c-4.1,0-7.7,2.7-8.7,6.7
			l-6.9,25.5v-42.1h-52.1v5h47.1v54.5h-5.1c-2.7,0-5.2,0.9-7.4,2.5h-24.7v5h19.5l-5,5h-14.5v5h9.6l-4.1,4.1
			c-1.5,1.5-2.3,3.4-2.3,5.5c0,4.3,3.5,7.7,7.7,7.7c0.8,0,1.5-0.1,2.2-0.4c0,0.1,0,0.2,0,0.4c0,2.7,2.2,5,5,5H444.1z M463.2,407.7
			h-9.3l10.5-38.7l8.5,2.8L463.2,407.7z M444.2,392.6c1.4-1.4,3.3-2.2,5.3-2.2h4l-2,7.5c-3.1,0.1-6.1,1.4-8.3,3.6l-12.9,12.9
			c-0.5,0.5-1.2,0.8-2,0.8c-1.5,0-2.8-1.2-2.8-2.8c0-0.7,0.3-1.4,0.8-2L444.2,392.6z M446.7,405c0.9-0.9,2.1-1.6,3.4-1.9l-1.3,4.7
			h-4.9L446.7,405z M479.9,346l-3,11.2l-8.5-2.8l2.8-10.5c0.5-1.8,2.1-3,3.9-3h0.8c2.3,0,4.1,1.8,4.1,4.1
			C480.1,345.3,480,345.6,479.9,346z M467.1,359.2l8.5,2.8l-1.4,5.1l-8.5-2.8L467.1,359.2z M470.1,402.8c1.4,0,2.5,1.1,2.5,2.5
			s-1.1,2.5-2.5,2.5h-1.8l1.3-5H470.1z"/>
		<path class="st0" d="M439.7,335.8h-64.5v24.8h64.5V335.8z M434.7,355.7h-54.5v-14.9h54.5V355.7z"/>
		<path class="st0" d="M385.2,345.8h5v5h-5V345.8z"/>
		<path class="st0" d="M395.1,345.8h5v5h-5V345.8z"/>
		<path class="st0" d="M405,345.8h5v5h-5V345.8z"/>
		<path class="st0" d="M414.9,345.8h5v5h-5V345.8z"/>
		<path class="st0" d="M424.8,345.8h5v5h-5V345.8z"/>
		<path class="st0" d="M405,390.4h-5v9.9h-19.8v-19.8h14.9v-5h-19.8v29.8H405V390.4z"/>
		<path class="st0" d="M413.2,366.3l-23,23l-3.2-3.2l-3.5,3.5l6.7,6.7l26.5-26.5L413.2,366.3z"/>
		<path class="st0" d="M400,442.5h-19.8v-19.8h14.9v-5h-19.8v29.8H405v-14.9h-5V442.5z"/>
		<path class="st0" d="M386.9,428.3l-3.5,3.5l6.7,6.7l26.5-26.5l-3.5-3.5l-23,23L386.9,428.3z"/>
		<path class="st0" d="M444.7,447.4h5v5h-5V447.4z"/>
		<path class="st0" d="M412.4,447.4h27.3v5h-27.3V447.4z"/>
		<path class="st0" d="M417.4,378h32.2v5h-32.2V378z"/>
	</g>
	<g id="surface1_1_">
		<path class="st0" d="M707.3,335.1v-14.9c0-7.4-6-13.3-13.3-13.3H587.2c-7.4,0-13.3,6-13.3,13.3v58.7c0,6.8,5.2,12.5,12,13.2l10,26
			c2.7,6.9,10.4,10.3,17.3,7.7l62.7-24.1c-4.3,11.3-3.1,24,3.3,34.3l1.5,2.5v25.9c0,1.5,1.2,2.7,2.7,2.7h48c1.5,0,2.7-1.2,2.7-2.7
			v-88.1c0-9.2-3.7-18.1-10.2-24.6L707.3,335.1z M707.3,351.1l8.1,21c1.6,4.1-0.5,8.8-4.6,10.3l-4.6,1.8c0.7-1.7,1.1-3.5,1.1-5.3
			L707.3,351.1L707.3,351.1z M579.2,378.9v-58.7c0-4.4,3.6-8,8-8H694c4.4,0,8,3.6,8,8v17h0l0,0.1v41.7c0,0.5-0.1,0.9-0.2,1.4
			l-24.5-24.4c-5.5-5.4-14.3-5.4-19.8-0.1c-5.5,5.3-5.9,14.1-0.7,19.8l10.4,11.4h-80C582.8,386.9,579.2,383.3,579.2,378.9z
			 M613.4,392.3l-19,7.3l-2.8-7.3H613.4z M611.2,420.8c-4.1,1.6-8.8-0.5-10.4-4.6l-4.5-11.7l31.9-12.3v0h43.9l3.5,3.8L611.2,420.8z
			 M728.7,461.7H686v-21.4h42.7V461.7z M728.7,435h-43.9l-1.2-1.9c-6.5-10.4-6.8-23.5-0.7-34.2c0.6-1,0.4-2.3-0.4-3.1l-21.9-23.9
			c-3.3-3.6-3.1-9.1,0.4-12.4c3.5-3.3,9-3.3,12.4,0.1l42.5,42.5l3.8-3.8l-9.9-9.9l2.7-1.1c6.9-2.7,10.3-10.4,7.7-17.2l-9-23.5
			l8.6,8.7c5.5,5.5,8.6,13,8.7,20.8L728.7,435L728.7,435z"/>
		<path class="st0" d="M604.3,344.2c3.8,0,6.9-3.1,6.9-6.9v-12.8c0-3.8-3.1-6.9-6.9-6.9h-12.8c-3.8,0-6.9,3.1-6.9,6.9v12.8
			c0,3.8,3.1,6.9,6.9,6.9H604.3z M589.9,337.3v-3.7h5.3v-5.3h-5.3v-3.7c0-0.9,0.7-1.6,1.6-1.6h12.8c0.9,0,1.6,0.7,1.6,1.6v3.7h-5.3
			v5.3h5.3v3.7c0,0.9-0.7,1.6-1.6,1.6h-12.8C590.6,338.9,589.9,338.2,589.9,337.3z"/>
		<path class="st0" d="M587.2,352.2h10.7v5.3h-10.7C587.2,357.6,587.2,352.2,587.2,352.2z"/>
		<path class="st0" d="M587.2,368.2h10.7v5.3h-10.7C587.2,373.6,587.2,368.2,587.2,368.2z"/>
		<path class="st0" d="M635.3,368.2h10.7v5.3h-10.7V368.2z"/>
		<path class="st0" d="M603.2,352.2h10.7v5.3h-10.7V352.2z"/>
		<path class="st0" d="M619.2,352.2h10.7v5.3h-10.7V352.2z"/>
		<path class="st0" d="M635.3,352.2h10.7v5.3h-10.7V352.2z"/>
		<path class="st0" d="M686,320.2h5.3v8H686V320.2z"/>
		<path class="st0" d="M675.3,320.2h5.3v8h-5.3V320.2z"/>
		<path class="st0" d="M664.6,320.2h5.3v8h-5.3V320.2z"/>
		<path class="st0" d="M653.9,320.2h5.3v8h-5.3V320.2z"/>
		<path class="st0" d="M691.3,445.6h5.3v5.3h-5.3V445.6z"/>
	</g>
	<g>
		<path class="st0" d="M928.1,390.4c1.5,0,2.9,0.4,4.1,1.2l17.3,11.5c2,1.4,4.4,2.1,6.9,2.1h16.2v-5h-16.2c-1.5,0-2.9-0.4-4.1-1.2
			l-7-4.7v-83.3h-94.2v14.9h-32.2v138.8h94.2v-14.9h32.2V429c0.2,0,0.3,0,0.5-0.1l11.5-2.9c2.6-0.6,5.2-1,7.8-1h7.4v-5h-7.4
			c-3,0-6.1,0.4-9,1.1l-11.5,2.9c-5.9,1.5-12.2,1.2-18-0.7l-4.2-1.4c-3.8-1.3-7.8-1.9-11.8-1.9H889c0-4.1,3.3-7.4,7.4-7.4h27.3
			c4.1,0,7.4-3.3,7.4-7.4c0-3.8-2.9-6.9-6.6-7.4l2-7.5H928.1z M925,428.1c3.8,1.3,7.8,1.9,11.8,1.9c1.2,0,2.4-0.1,3.6-0.2v15.1
			h-27.3v-8.1c0.9-1,1.5-2.2,1.9-3.5l2-7.5c1.3,0.3,2.5,0.6,3.8,1L925,428.1z M912.1,425.2l-1.8,6.8c-0.5,1.8-2.1,3-3.9,3h-0.8
			c-2.3,0-4.1-1.8-4.1-4.1c0-0.4,0-0.7,0.1-1.1l1.3-4.8h7.8C911.1,425.1,911.6,425.1,912.1,425.2z M897.7,425.1l-0.9,3.5
			c-0.2,0.8-0.3,1.6-0.3,2.4c0,3.4,1.9,6.3,4.6,7.8l-0.8,3.1l4.8,1.2l0.8-3.1h0.5c0.6,0,1.3-0.1,1.9-0.2v20.1h-84.3V330.9h32.2V316
			h84.3v75.1l-5.4-3.6c-2-1.4-4.4-2.1-6.9-2.1h-0.2l10.3-38.2c0.2-0.8,0.3-1.6,0.3-2.4c0-5-4.1-9-9-9h-0.8c-4.1,0-7.7,2.7-8.7,6.7
			l-6.9,25.5v-42.1H861v5h47.1v54.5H903c-2.7,0-5.2,0.9-7.4,2.5h-24.7v5h19.5l-5,5h-14.5v5h9.6l-4.1,4.1c-1.5,1.5-2.3,3.4-2.3,5.5
			c0,4.3,3.5,7.7,7.7,7.7c0.8,0,1.5-0.1,2.2-0.4c0,0.1,0,0.2,0,0.4c0,2.7,2.2,5,5,5H897.7z M916.8,407.7h-9.3L918,369l8.5,2.8
			L916.8,407.7z M897.7,392.6c1.4-1.4,3.3-2.2,5.3-2.2h4l-2,7.5c-3.1,0.1-6.1,1.4-8.3,3.6l-12.9,12.9c-0.5,0.5-1.2,0.8-2,0.8
			c-1.5,0-2.8-1.2-2.8-2.8c0-0.7,0.3-1.4,0.8-2L897.7,392.6z M900.2,405c0.9-0.9,2.1-1.6,3.4-1.9l-1.3,4.7h-4.9L900.2,405z
			 M933.5,346l-3,11.2l-8.5-2.8l2.8-10.5c0.5-1.8,2.1-3,3.9-3h0.8c2.3,0,4.1,1.8,4.1,4.1C933.6,345.3,933.6,345.6,933.5,346z
			 M920.6,359.2l8.5,2.8l-1.4,5.1l-8.5-2.8L920.6,359.2z M923.7,402.8c1.4,0,2.5,1.1,2.5,2.5s-1.1,2.5-2.5,2.5h-1.8l1.3-5H923.7z"/>
		<path class="st0" d="M893.2,335.8h-64.5v24.8h64.5V335.8z M888.3,355.7h-54.5v-14.9h54.5V355.7z"/>
		<path class="st0" d="M838.7,345.8h5v5h-5V345.8z"/>
		<path class="st0" d="M848.6,345.8h5v5h-5V345.8z"/>
		<path class="st0" d="M858.5,345.8h5v5h-5V345.8z"/>
		<path class="st0" d="M868.5,345.8h5v5h-5V345.8z"/>
		<path class="st0" d="M878.4,345.8h5v5h-5V345.8z"/>
		<path class="st0" d="M858.5,390.4h-5v9.9h-19.8v-19.8h14.9v-5h-19.8v29.8h29.8V390.4z"/>
		<path class="st0" d="M866.7,366.3l-23,23l-3.2-3.2l-3.5,3.5l6.7,6.7l26.5-26.5L866.7,366.3z"/>
		<path class="st0" d="M853.6,442.5h-19.8v-19.8h14.9v-5h-19.8v29.8h29.8v-14.9h-5V442.5z"/>
		<path class="st0" d="M840.5,428.3l-3.5,3.5l6.7,6.7l26.5-26.5l-3.5-3.5l-23,23L840.5,428.3z"/>
		<path class="st0" d="M898.2,447.4h5v5h-5V447.4z"/>
		<path class="st0" d="M866,447.4h27.3v5H866V447.4z"/>
		<path class="st0" d="M870.9,378h32.2v5h-32.2V378z"/>
	</g>
	<g id="surface1_2_">
		<path class="st0" d="M1160.9,335.1v-14.9c0-7.4-6-13.3-13.3-13.3h-106.8c-7.4,0-13.3,6-13.3,13.3v58.7c0,6.8,5.2,12.5,12,13.2
			l10,26c2.7,6.9,10.4,10.3,17.3,7.7l62.7-24.1c-4.3,11.3-3.1,24,3.3,34.3l1.5,2.5v25.9c0,1.5,1.2,2.7,2.7,2.7h48
			c1.5,0,2.7-1.2,2.7-2.7v-88.1c0-9.2-3.7-18.1-10.2-24.6L1160.9,335.1z M1160.9,351.1l8.1,21c1.6,4.1-0.5,8.8-4.6,10.3l-4.6,1.8
			c0.7-1.7,1.1-3.5,1.1-5.3L1160.9,351.1L1160.9,351.1z M1032.7,378.9v-58.7c0-4.4,3.6-8,8-8h106.8c4.4,0,8,3.6,8,8v17h0l0,0.1v41.7
			c0,0.5-0.1,0.9-0.2,1.4l-24.5-24.4c-5.5-5.4-14.3-5.4-19.8-0.1c-5.5,5.3-5.9,14.1-0.7,19.8l10.4,11.4h-80
			C1036.3,386.9,1032.7,383.3,1032.7,378.9z M1066.9,392.3l-19,7.3l-2.8-7.3H1066.9z M1064.7,420.8c-4.1,1.6-8.8-0.5-10.4-4.6
			l-4.5-11.7l31.9-12.3v0h43.9l3.5,3.8L1064.7,420.8z M1182.2,461.7h-42.7v-21.4h42.7V461.7z M1182.2,435h-43.9l-1.2-1.9
			c-6.5-10.4-6.8-23.5-0.7-34.2c0.6-1,0.4-2.3-0.4-3.1l-21.9-23.9c-3.3-3.6-3.1-9.1,0.4-12.4c3.5-3.3,9-3.3,12.4,0.1l42.5,42.5
			l3.8-3.8l-9.9-9.9l2.7-1.1c6.9-2.7,10.3-10.4,7.7-17.2l-9-23.5l8.6,8.7c5.5,5.5,8.6,13,8.7,20.8L1182.2,435L1182.2,435z"/>
		<path class="st0" d="M1057.8,344.2c3.8,0,6.9-3.1,6.9-6.9v-12.8c0-3.8-3.1-6.9-6.9-6.9H1045c-3.8,0-6.9,3.1-6.9,6.9v12.8
			c0,3.8,3.1,6.9,6.9,6.9H1057.8z M1043.4,337.3v-3.7h5.3v-5.3h-5.3v-3.7c0-0.9,0.7-1.6,1.6-1.6h12.8c0.9,0,1.6,0.7,1.6,1.6v3.7
			h-5.3v5.3h5.3v3.7c0,0.9-0.7,1.6-1.6,1.6H1045C1044.1,338.9,1043.4,338.2,1043.4,337.3z"/>
		<path class="st0" d="M1040.8,352.2h10.7v5.3h-10.7C1040.8,357.6,1040.8,352.2,1040.8,352.2z"/>
		<path class="st0" d="M1040.8,368.2h10.7v5.3h-10.7C1040.8,373.6,1040.8,368.2,1040.8,368.2z"/>
		<path class="st0" d="M1088.8,368.2h10.7v5.3h-10.7V368.2z"/>
		<path class="st0" d="M1056.8,352.2h10.7v5.3h-10.7V352.2z"/>
		<path class="st0" d="M1072.8,352.2h10.7v5.3h-10.7V352.2z"/>
		<path class="st0" d="M1088.8,352.2h10.7v5.3h-10.7V352.2z"/>
		<path class="st0" d="M1139.5,320.2h5.3v8h-5.3V320.2z"/>
		<path class="st0" d="M1128.8,320.2h5.3v8h-5.3V320.2z"/>
		<path class="st0" d="M1118.2,320.2h5.3v8h-5.3V320.2z"/>
		<path class="st0" d="M1107.5,320.2h5.3v8h-5.3V320.2z"/>
		<path class="st0" d="M1144.8,445.6h5.3v5.3h-5.3V445.6z"/>
	</g>
	<g>
		<path class="st0" d="M1381.7,390.4c1.5,0,2.9,0.4,4.1,1.2l17.3,11.5c2,1.4,4.4,2.1,6.9,2.1h16.2v-5H1410c-1.5,0-2.9-0.4-4.1-1.2
			l-7-4.7v-83.3h-94.2v14.9h-32.2v138.8h94.2v-14.9h32.2V429c0.2,0,0.3,0,0.5-0.1l11.5-2.9c2.6-0.6,5.2-1,7.8-1h7.4v-5h-7.4
			c-3,0-6.1,0.4-9,1.1l-11.5,2.9c-5.9,1.5-12.2,1.2-18-0.7l-4.2-1.4c-3.8-1.3-7.8-1.9-11.8-1.9h-21.6c0-4.1,3.3-7.4,7.4-7.4h27.3
			c4.1,0,7.4-3.3,7.4-7.4c0-3.8-2.9-6.9-6.6-7.4l2-7.5H1381.7z M1378.5,428.1c3.8,1.3,7.8,1.9,11.8,1.9c1.2,0,2.4-0.1,3.6-0.2v15.1
			h-27.3v-8.1c0.9-1,1.5-2.2,1.9-3.5l2-7.5c1.3,0.3,2.5,0.6,3.8,1L1378.5,428.1z M1365.6,425.2l-1.8,6.8c-0.5,1.8-2.1,3-3.9,3h-0.8
			c-2.3,0-4.1-1.8-4.1-4.1c0-0.4,0-0.7,0.1-1.1l1.3-4.8h7.8C1364.6,425.1,1365.1,425.1,1365.6,425.2z M1351.2,425.1l-0.9,3.5
			c-0.2,0.8-0.3,1.6-0.3,2.4c0,3.4,1.9,6.3,4.6,7.8l-0.8,3.1l4.8,1.2l0.8-3.1h0.5c0.6,0,1.3-0.1,1.9-0.2v20.1h-84.3V330.9h32.2V316
			h84.3v75.1l-5.4-3.6c-2-1.4-4.4-2.1-6.9-2.1h-0.2l10.3-38.2c0.2-0.8,0.3-1.6,0.3-2.4c0-5-4.1-9-9-9h-0.8c-4.1,0-7.7,2.7-8.7,6.7
			l-6.9,25.5v-42.1h-52.1v5h47.1v54.5h-5.1c-2.7,0-5.2,0.9-7.4,2.5h-24.7v5h19.5l-5,5h-14.5v5h9.6l-4.1,4.1
			c-1.5,1.5-2.3,3.4-2.3,5.5c0,4.3,3.5,7.7,7.7,7.7c0.8,0,1.5-0.1,2.2-0.4c0,0.1,0,0.2,0,0.4c0,2.7,2.2,5,5,5H1351.2z M1370.3,407.7
			h-9.3l10.5-38.7l8.5,2.8L1370.3,407.7z M1351.3,392.6c1.4-1.4,3.3-2.2,5.3-2.2h4l-2,7.5c-3.1,0.1-6.1,1.4-8.3,3.6l-12.9,12.9
			c-0.5,0.5-1.2,0.8-2,0.8c-1.5,0-2.8-1.2-2.8-2.8c0-0.7,0.3-1.4,0.8-2L1351.3,392.6z M1353.8,405c0.9-0.9,2.1-1.6,3.4-1.9l-1.3,4.7
			h-4.9L1353.8,405z M1387,346l-3,11.2l-8.5-2.8l2.8-10.5c0.5-1.8,2.1-3,3.9-3h0.8c2.3,0,4.1,1.8,4.1,4.1
			C1387.1,345.3,1387.1,345.6,1387,346z M1374.2,359.2l8.5,2.8l-1.4,5.1l-8.5-2.8L1374.2,359.2z M1377.2,402.8
			c1.4,0,2.5,1.1,2.5,2.5s-1.1,2.5-2.5,2.5h-1.8l1.3-5H1377.2z"/>
		<path class="st0" d="M1346.8,335.8h-64.5v24.8h64.5V335.8z M1341.8,355.7h-54.5v-14.9h54.5V355.7z"/>
		<path class="st0" d="M1292.2,345.8h5v5h-5V345.8z"/>
		<path class="st0" d="M1302.2,345.8h5v5h-5V345.8z"/>
		<path class="st0" d="M1312.1,345.8h5v5h-5V345.8z"/>
		<path class="st0" d="M1322,345.8h5v5h-5V345.8z"/>
		<path class="st0" d="M1331.9,345.8h5v5h-5V345.8z"/>
		<path class="st0" d="M1312.1,390.4h-5v9.9h-19.8v-19.8h14.9v-5h-19.8v29.8h29.8V390.4z"/>
		<path class="st0" d="M1320.2,366.3l-23,23l-3.2-3.2l-3.5,3.5l6.7,6.7l26.5-26.5L1320.2,366.3z"/>
		<path class="st0" d="M1307.1,442.5h-19.8v-19.8h14.9v-5h-19.8v29.8h29.8v-14.9h-5V442.5z"/>
		<path class="st0" d="M1294,428.3l-3.5,3.5l6.7,6.7l26.5-26.5l-3.5-3.5l-23,23L1294,428.3z"/>
		<path class="st0" d="M1351.8,447.4h5v5h-5V447.4z"/>
		<path class="st0" d="M1319.5,447.4h27.3v5h-27.3V447.4z"/>
		<path class="st0" d="M1324.5,378h32.2v5h-32.2V378z"/>
	</g>
	<g id="surface1_3_">
		<path class="st0" d="M1614.4,335.1v-14.9c0-7.4-6-13.3-13.3-13.3h-106.8c-7.4,0-13.3,6-13.3,13.3v58.7c0,6.8,5.2,12.5,12,13.2
			l10,26c2.7,6.9,10.4,10.3,17.3,7.7l62.7-24.1c-4.3,11.3-3.1,24,3.3,34.3l1.5,2.5v25.9c0,1.5,1.2,2.7,2.7,2.7h48
			c1.5,0,2.7-1.2,2.7-2.7v-88.1c0-9.2-3.7-18.1-10.2-24.6L1614.4,335.1z M1614.4,351.1l8.1,21c1.6,4.1-0.5,8.8-4.6,10.3l-4.6,1.8
			c0.7-1.7,1.1-3.5,1.1-5.3L1614.4,351.1L1614.4,351.1z M1486.3,378.9v-58.7c0-4.4,3.6-8,8-8h106.8c4.4,0,8,3.6,8,8v17h0l0,0.1v41.7
			c0,0.5-0.1,0.9-0.2,1.4l-24.5-24.4c-5.5-5.4-14.3-5.4-19.8-0.1c-5.5,5.3-5.9,14.1-0.7,19.8l10.4,11.4h-80
			C1489.9,386.9,1486.3,383.3,1486.3,378.9z M1520.5,392.3l-19,7.3l-2.8-7.3H1520.5z M1518.3,420.8c-4.1,1.6-8.8-0.5-10.4-4.6
			l-4.5-11.7l31.9-12.3v0h43.9l3.5,3.8L1518.3,420.8z M1635.8,461.7h-42.7v-21.4h42.7V461.7z M1635.8,435h-43.9l-1.2-1.9
			c-6.5-10.4-6.8-23.5-0.7-34.2c0.6-1,0.4-2.3-0.4-3.1l-21.9-23.9c-3.3-3.6-3.1-9.1,0.4-12.4c3.5-3.3,9-3.3,12.4,0.1l42.5,42.5
			l3.8-3.8l-9.9-9.9l2.7-1.1c6.9-2.7,10.3-10.4,7.7-17.2l-9-23.5l8.6,8.7c5.5,5.5,8.6,13,8.7,20.8L1635.8,435L1635.8,435z"/>
		<path class="st0" d="M1511.4,344.2c3.8,0,6.9-3.1,6.9-6.9v-12.8c0-3.8-3.1-6.9-6.9-6.9h-12.8c-3.8,0-6.9,3.1-6.9,6.9v12.8
			c0,3.8,3.1,6.9,6.9,6.9H1511.4z M1497,337.3v-3.7h5.3v-5.3h-5.3v-3.7c0-0.9,0.7-1.6,1.6-1.6h12.8c0.9,0,1.6,0.7,1.6,1.6v3.7h-5.3
			v5.3h5.3v3.7c0,0.9-0.7,1.6-1.6,1.6h-12.8C1497.7,338.9,1497,338.2,1497,337.3z"/>
		<path class="st0" d="M1494.3,352.2h10.7v5.3h-10.7C1494.3,357.6,1494.3,352.2,1494.3,352.2z"/>
		<path class="st0" d="M1494.3,368.2h10.7v5.3h-10.7C1494.3,373.6,1494.3,368.2,1494.3,368.2z"/>
		<path class="st0" d="M1542.3,368.2h10.7v5.3h-10.7V368.2z"/>
		<path class="st0" d="M1510.3,352.2h10.7v5.3h-10.7V352.2z"/>
		<path class="st0" d="M1526.3,352.2h10.7v5.3h-10.7V352.2z"/>
		<path class="st0" d="M1542.3,352.2h10.7v5.3h-10.7V352.2z"/>
		<path class="st0" d="M1593.1,320.2h5.3v8h-5.3V320.2z"/>
		<path class="st0" d="M1582.4,320.2h5.3v8h-5.3V320.2z"/>
		<path class="st0" d="M1571.7,320.2h5.3v8h-5.3V320.2z"/>
		<path class="st0" d="M1561,320.2h5.3v8h-5.3V320.2z"/>
		<path class="st0" d="M1598.4,445.6h5.3v5.3h-5.3V445.6z"/>
	</g>
	<g>
		<path class="st0" d="M1835.2,390.4c1.5,0,2.9,0.4,4.1,1.2l17.3,11.5c2,1.4,4.4,2.1,6.9,2.1h16.2v-5h-16.2c-1.5,0-2.9-0.4-4.1-1.2
			l-7-4.7v-83.3h-94.2v14.9H1726v138.8h94.2v-14.9h32.2V429c0.2,0,0.3,0,0.5-0.1l11.5-2.9c2.6-0.6,5.2-1,7.8-1h7.4v-5h-7.4
			c-3,0-6.1,0.4-9,1.1l-11.5,2.9c-5.9,1.5-12.2,1.2-18-0.7l-4.2-1.4c-3.8-1.3-7.8-1.9-11.8-1.9h-21.6c0-4.1,3.3-7.4,7.4-7.4h27.3
			c4.1,0,7.4-3.3,7.4-7.4c0-3.8-2.9-6.9-6.6-7.4l2-7.5H1835.2z M1832.1,428.1c3.8,1.3,7.8,1.9,11.8,1.9c1.2,0,2.4-0.1,3.6-0.2v15.1
			h-27.3v-8.1c0.9-1,1.5-2.2,1.9-3.5l2-7.5c1.3,0.3,2.5,0.6,3.8,1L1832.1,428.1z M1819.1,425.2l-1.8,6.8c-0.5,1.8-2.1,3-3.9,3h-0.8
			c-2.3,0-4.1-1.8-4.1-4.1c0-0.4,0-0.7,0.1-1.1l1.3-4.8h7.8C1818.2,425.1,1818.7,425.1,1819.1,425.2z M1804.8,425.1l-0.9,3.5
			c-0.2,0.8-0.3,1.6-0.3,2.4c0,3.4,1.9,6.3,4.6,7.8l-0.8,3.1l4.8,1.2l0.8-3.1h0.5c0.6,0,1.3-0.1,1.9-0.2v20.1h-84.3V330.9h32.2V316
			h84.3v75.1l-5.4-3.6c-2-1.4-4.4-2.1-6.9-2.1h-0.2l10.3-38.2c0.2-0.8,0.3-1.6,0.3-2.4c0-5-4.1-9-9-9h-0.8c-4.1,0-7.7,2.7-8.7,6.7
			l-6.9,25.5v-42.1h-52.1v5h47.1v54.5h-5.1c-2.7,0-5.2,0.9-7.4,2.5H1778v5h19.5l-5,5H1778v5h9.6l-4.1,4.1c-1.5,1.5-2.3,3.4-2.3,5.5
			c0,4.3,3.5,7.7,7.7,7.7c0.8,0,1.5-0.1,2.2-0.4c0,0.1,0,0.2,0,0.4c0,2.7,2.2,5,5,5H1804.8z M1823.9,407.7h-9.3l10.5-38.7l8.5,2.8
			L1823.9,407.7z M1804.8,392.6c1.4-1.4,3.3-2.2,5.3-2.2h4l-2,7.5c-3.1,0.1-6.1,1.4-8.3,3.6l-12.9,12.9c-0.5,0.5-1.2,0.8-2,0.8
			c-1.5,0-2.8-1.2-2.8-2.8c0-0.7,0.3-1.4,0.8-2L1804.8,392.6z M1807.3,405c0.9-0.9,2.1-1.6,3.4-1.9l-1.3,4.7h-4.9L1807.3,405z
			 M1840.5,346l-3,11.2l-8.5-2.8l2.8-10.5c0.5-1.8,2.1-3,3.9-3h0.8c2.3,0,4.1,1.8,4.1,4.1C1840.7,345.3,1840.6,345.6,1840.5,346z
			 M1827.7,359.2l8.5,2.8l-1.4,5.1l-8.5-2.8L1827.7,359.2z M1830.8,402.8c1.4,0,2.5,1.1,2.5,2.5s-1.1,2.5-2.5,2.5h-1.8l1.3-5H1830.8
			z"/>
		<path class="st0" d="M1800.3,335.8h-64.5v24.8h64.5V335.8z M1795.4,355.7h-54.5v-14.9h54.5V355.7z"/>
		<path class="st0" d="M1745.8,345.8h5v5h-5V345.8z"/>
		<path class="st0" d="M1755.7,345.8h5v5h-5V345.8z"/>
		<path class="st0" d="M1765.6,345.8h5v5h-5V345.8z"/>
		<path class="st0" d="M1775.5,345.8h5v5h-5V345.8z"/>
		<path class="st0" d="M1785.5,345.8h5v5h-5V345.8z"/>
		<path class="st0" d="M1765.6,390.4h-5v9.9h-19.8v-19.8h14.9v-5h-19.8v29.8h29.8V390.4z"/>
		<path class="st0" d="M1773.8,366.3l-23,23l-3.2-3.2l-3.5,3.5l6.7,6.7l26.5-26.5L1773.8,366.3z"/>
		<path class="st0" d="M1760.7,442.5h-19.8v-19.8h14.9v-5h-19.8v29.8h29.8v-14.9h-5V442.5z"/>
		<path class="st0" d="M1747.5,428.3l-3.5,3.5l6.7,6.7l26.5-26.5l-3.5-3.5l-23,23L1747.5,428.3z"/>
		<path class="st0" d="M1805.3,447.4h5v5h-5V447.4z"/>
		<path class="st0" d="M1773.1,447.4h27.3v5h-27.3V447.4z"/>
		<path class="st0" d="M1778,378h32.2v5H1778V378z"/>
	</g>
	<g id="surface1_7_">
		<path class="st0" d="M480.5,108.4V93.4c0-7.4-6-13.3-13.3-13.3H360.4c-7.4,0-13.3,6-13.3,13.3v58.7c0,6.8,5.2,12.5,12,13.2l10,26
			c2.7,6.9,10.4,10.3,17.3,7.7l62.7-24.1c-4.3,11.3-3.1,24,3.3,34.3l1.5,2.5v25.9c0,1.5,1.2,2.7,2.7,2.7h48c1.5,0,2.7-1.2,2.7-2.7
			v-88.1c0-9.2-3.7-18.1-10.2-24.6L480.5,108.4z M480.5,124.3l8.1,21c1.6,4.1-0.5,8.8-4.6,10.3l-4.6,1.8c0.7-1.7,1.1-3.5,1.1-5.3
			L480.5,124.3L480.5,124.3z M352.4,152.1V93.4c0-4.4,3.6-8,8-8h106.8c4.4,0,8,3.6,8,8v17h0l0,0.1v41.7c0,0.5-0.1,0.9-0.2,1.4
			l-24.5-24.4c-5.5-5.4-14.3-5.4-19.8-0.1c-5.5,5.3-5.9,14.1-0.7,19.8l10.4,11.4h-80C356,160.1,352.4,156.6,352.4,152.1z
			 M386.6,165.5l-19,7.3l-2.8-7.3H386.6z M384.4,194.1c-4.1,1.6-8.8-0.5-10.4-4.6l-4.5-11.7l31.9-12.3v0h43.9l3.5,3.8L384.4,194.1z
			 M501.9,234.9h-42.7v-21.4h42.7V234.9z M501.9,208.2H458l-1.2-1.8c-6.5-10.4-6.8-23.5-0.7-34.2c0.6-1,0.4-2.3-0.4-3.1l-21.9-23.9
			c-3.3-3.6-3.1-9.1,0.4-12.4c3.5-3.3,9-3.3,12.4,0.1l42.5,42.5l3.8-3.8l-9.9-9.9l2.7-1.1c6.9-2.7,10.3-10.4,7.7-17.2l-9-23.5
			l8.6,8.7c5.5,5.5,8.6,13,8.7,20.8L501.9,208.2L501.9,208.2z"/>
		<path class="st0" d="M377.5,117.4c3.8,0,6.9-3.1,6.9-6.9V97.7c0-3.8-3.1-6.9-6.9-6.9h-12.8c-3.8,0-6.9,3.1-6.9,6.9v12.8
			c0,3.8,3.1,6.9,6.9,6.9H377.5z M363.1,110.5v-3.7h5.3v-5.3h-5.3v-3.7c0-0.9,0.7-1.6,1.6-1.6h12.8c0.9,0,1.6,0.7,1.6,1.6v3.7h-5.3
			v5.3h5.3v3.7c0,0.9-0.7,1.6-1.6,1.6h-12.8C363.8,112.1,363.1,111.4,363.1,110.5z"/>
		<path class="st0" d="M360.4,125.4h10.7v5.3h-10.7C360.4,130.8,360.4,125.4,360.4,125.4z"/>
		<path class="st0" d="M360.4,141.5h10.7v5.3h-10.7C360.4,146.8,360.4,141.5,360.4,141.5z"/>
		<path class="st0" d="M408.5,141.5h10.7v5.3h-10.7V141.5z"/>
		<path class="st0" d="M376.5,125.4h10.7v5.3h-10.7V125.4z"/>
		<path class="st0" d="M392.5,125.4h10.7v5.3h-10.7V125.4z"/>
		<path class="st0" d="M408.5,125.4h10.7v5.3h-10.7V125.4z"/>
		<path class="st0" d="M459.2,93.4h5.3v8h-5.3V93.4z"/>
		<path class="st0" d="M448.5,93.4h5.3v8h-5.3V93.4z"/>
		<path class="st0" d="M437.8,93.4h5.3v8h-5.3V93.4z"/>
		<path class="st0" d="M427.2,93.4h5.3v8h-5.3V93.4z"/>
		<path class="st0" d="M464.5,218.9h5.3v5.3h-5.3V218.9z"/>
	</g>
	<g>
		<path class="st0" d="M701.3,163.6c1.5,0,2.9,0.4,4.1,1.2l17.3,11.5c2,1.4,4.4,2.1,6.9,2.1h16.2v-5h-16.2c-1.5,0-2.9-0.4-4.1-1.2
			l-7-4.7V84.3h-94.2v14.9h-32.2V238h94.2v-14.9h32.2v-20.9c0.2,0,0.3,0,0.5-0.1l11.5-2.9c2.6-0.6,5.2-1,7.8-1h7.4v-5h-7.4
			c-3,0-6.1,0.4-9,1.1l-11.5,2.9c-5.9,1.5-12.2,1.2-18-0.7l-4.2-1.4c-3.8-1.3-7.8-1.9-11.8-1.9h-21.6c0-4.1,3.3-7.4,7.4-7.4h27.3
			c4.1,0,7.4-3.3,7.4-7.4c0-3.8-2.9-6.9-6.6-7.4l2-7.5H701.3z M698.2,201.4c3.8,1.3,7.8,1.9,11.8,1.9c1.2,0,2.4-0.1,3.6-0.2v15.1
			h-27.3v-8.1c0.9-1,1.5-2.2,1.9-3.5l2-7.5c1.3,0.3,2.5,0.6,3.8,1L698.2,201.4z M685.3,198.4l-1.8,6.8c-0.5,1.8-2.1,3-3.9,3h-0.8
			c-2.3,0-4.1-1.8-4.1-4.1c0-0.4,0-0.7,0.1-1.1l1.3-4.8h7.8C684.3,198.3,684.8,198.4,685.3,198.4z M670.9,198.3l-0.9,3.5
			c-0.2,0.8-0.3,1.6-0.3,2.4c0,3.4,1.9,6.3,4.6,7.8l-0.8,3.1l4.8,1.2l0.8-3.1h0.5c0.6,0,1.3-0.1,1.9-0.2V233h-84.3V104.1h32.2V89.2
			h84.3v75.1l-5.4-3.6c-2-1.4-4.4-2.1-6.9-2.1h-0.2l10.3-38.2c0.2-0.8,0.3-1.6,0.3-2.4c0-5-4.1-9-9-9h-0.8c-4.1,0-7.7,2.7-8.7,6.7
			l-6.9,25.5V99.2h-52.1v5h47.1v54.5h-5.1c-2.7,0-5.2,0.9-7.4,2.5h-24.7v5h19.5l-5,5h-14.5v5h9.6l-4.1,4.1c-1.5,1.5-2.3,3.4-2.3,5.5
			c0,4.3,3.5,7.7,7.7,7.7c0.8,0,1.5-0.1,2.2-0.4c0,0.1,0,0.2,0,0.4c0,2.7,2.2,5,5,5H670.9z M690,181h-9.3l10.5-38.7l8.5,2.8L690,181
			z M671,165.8c1.4-1.4,3.3-2.2,5.3-2.2h4l-2,7.5c-3.1,0.1-6.1,1.4-8.3,3.6L657,187.6c-0.5,0.5-1.2,0.8-2,0.8
			c-1.5,0-2.8-1.2-2.8-2.8c0-0.7,0.3-1.4,0.8-2L671,165.8z M673.4,178.2c0.9-0.9,2.1-1.6,3.4-1.9l-1.3,4.7h-4.9L673.4,178.2z
			 M706.7,119.2l-3,11.2l-8.5-2.8l2.8-10.5c0.5-1.8,2.1-3,3.9-3h0.8c2.3,0,4.1,1.8,4.1,4.1C706.8,118.5,706.8,118.8,706.7,119.2z
			 M693.8,132.4l8.5,2.8l-1.4,5.1l-8.5-2.8L693.8,132.4z M696.9,176c1.4,0,2.5,1.1,2.5,2.5s-1.1,2.5-2.5,2.5h-1.8l1.3-5H696.9z"/>
		<path class="st0" d="M666.5,109.1H602v24.8h64.5V109.1z M661.5,128.9H607V114h54.5V128.9z"/>
		<path class="st0" d="M611.9,119h5v5h-5V119z"/>
		<path class="st0" d="M621.8,119h5v5h-5V119z"/>
		<path class="st0" d="M631.8,119h5v5h-5V119z"/>
		<path class="st0" d="M641.7,119h5v5h-5V119z"/>
		<path class="st0" d="M651.6,119h5v5h-5V119z"/>
		<path class="st0" d="M631.8,163.6h-5v9.9H607v-19.8h14.9v-5H602v29.8h29.8V163.6z"/>
		<path class="st0" d="M639.9,139.6l-23,23l-3.2-3.2l-3.5,3.5l6.7,6.7l26.5-26.5L639.9,139.6z"/>
		<path class="st0" d="M626.8,215.7H607v-19.8h14.9v-5H602v29.8h29.8v-14.9h-5V215.7z"/>
		<path class="st0" d="M613.7,201.5l-3.5,3.5l6.7,6.7l26.5-26.5l-3.5-3.5l-23,23L613.7,201.5z"/>
		<path class="st0" d="M671.4,220.6h5v5h-5V220.6z"/>
		<path class="st0" d="M639.2,220.6h27.3v5h-27.3V220.6z"/>
		<path class="st0" d="M644.2,151.2h32.2v5h-32.2V151.2z"/>
	</g>
	<g id="surface1_6_">
		<path class="st0" d="M934.1,108.4V93.4c0-7.4-6-13.3-13.3-13.3H814c-7.4,0-13.3,6-13.3,13.3v58.7c0,6.8,5.2,12.5,12,13.2l10,26
			c2.7,6.9,10.4,10.3,17.3,7.7l62.7-24.1c-4.3,11.3-3.1,24,3.3,34.3l1.5,2.5v25.9c0,1.5,1.2,2.7,2.7,2.7h48c1.5,0,2.7-1.2,2.7-2.7
			v-88.1c0-9.2-3.7-18.1-10.2-24.6L934.1,108.4z M934.1,124.3l8.1,21c1.6,4.1-0.5,8.8-4.6,10.3l-4.6,1.8c0.7-1.7,1.1-3.5,1.1-5.3
			L934.1,124.3L934.1,124.3z M806,152.1V93.4c0-4.4,3.6-8,8-8h106.8c4.4,0,8,3.6,8,8v17h0l0,0.1v41.7c0,0.5-0.1,0.9-0.2,1.4
			l-24.5-24.4c-5.5-5.4-14.3-5.4-19.8-0.1c-5.5,5.3-5.9,14.1-0.7,19.8l10.4,11.4h-80C809.6,160.1,806,156.6,806,152.1z M840.2,165.5
			l-19,7.3l-2.8-7.3H840.2z M838,194.1c-4.1,1.6-8.8-0.5-10.4-4.6l-4.5-11.7l31.9-12.3v0h43.9l3.5,3.8L838,194.1z M955.4,234.9
			h-42.7v-21.4h42.7V234.9z M955.4,208.2h-43.9l-1.2-1.8c-6.5-10.4-6.8-23.5-0.7-34.2c0.6-1,0.4-2.3-0.4-3.1l-21.9-23.9
			c-3.3-3.6-3.1-9.1,0.4-12.4c3.5-3.3,9-3.3,12.4,0.1l42.5,42.5l3.8-3.8l-9.9-9.9l2.7-1.1c6.9-2.7,10.3-10.4,7.7-17.2l-9-23.5
			l8.6,8.7c5.5,5.5,8.6,13,8.7,20.8L955.4,208.2L955.4,208.2z"/>
		<path class="st0" d="M831.1,117.4c3.8,0,6.9-3.1,6.9-6.9V97.7c0-3.8-3.1-6.9-6.9-6.9h-12.8c-3.8,0-6.9,3.1-6.9,6.9v12.8
			c0,3.8,3.1,6.9,6.9,6.9H831.1z M816.7,110.5v-3.7h5.3v-5.3h-5.3v-3.7c0-0.9,0.7-1.6,1.6-1.6h12.8c0.9,0,1.6,0.7,1.6,1.6v3.7h-5.3
			v5.3h5.3v3.7c0,0.9-0.7,1.6-1.6,1.6h-12.8C817.4,112.1,816.7,111.4,816.7,110.5z"/>
		<path class="st0" d="M814,125.4h10.7v5.3H814C814,130.8,814,125.4,814,125.4z"/>
		<path class="st0" d="M814,141.5h10.7v5.3H814C814,146.8,814,141.5,814,141.5z"/>
		<path class="st0" d="M862,141.5h10.7v5.3H862V141.5z"/>
		<path class="st0" d="M830,125.4h10.7v5.3H830V125.4z"/>
		<path class="st0" d="M846,125.4h10.7v5.3H846V125.4z"/>
		<path class="st0" d="M862,125.4h10.7v5.3H862V125.4z"/>
		<path class="st0" d="M912.7,93.4h5.3v8h-5.3V93.4z"/>
		<path class="st0" d="M902.1,93.4h5.3v8h-5.3V93.4z"/>
		<path class="st0" d="M891.4,93.4h5.3v8h-5.3V93.4z"/>
		<path class="st0" d="M880.7,93.4h5.3v8h-5.3V93.4z"/>
		<path class="st0" d="M918.1,218.9h5.3v5.3h-5.3V218.9z"/>
	</g>
	<g>
		<path class="st0" d="M1154.9,163.6c1.5,0,2.9,0.4,4.1,1.2l17.3,11.5c2,1.4,4.4,2.1,6.9,2.1h16.2v-5h-16.2c-1.5,0-2.9-0.4-4.1-1.2
			l-7-4.7V84.3h-94.2v14.9h-32.2V238h94.2v-14.9h32.2v-20.9c0.2,0,0.3,0,0.5-0.1l11.5-2.9c2.6-0.6,5.2-1,7.8-1h7.4v-5h-7.4
			c-3,0-6.1,0.4-9,1.1l-11.5,2.9c-5.9,1.5-12.2,1.2-18-0.7l-4.2-1.4c-3.8-1.3-7.8-1.9-11.8-1.9h-21.6c0-4.1,3.3-7.4,7.4-7.4h27.3
			c4.1,0,7.4-3.3,7.4-7.4c0-3.8-2.9-6.9-6.6-7.4l2-7.5H1154.9z M1151.8,201.4c3.8,1.3,7.8,1.9,11.8,1.9c1.2,0,2.4-0.1,3.6-0.2v15.1
			h-27.3v-8.1c0.9-1,1.5-2.2,1.9-3.5l2-7.5c1.3,0.3,2.5,0.6,3.8,1L1151.8,201.4z M1138.8,198.4l-1.8,6.8c-0.5,1.8-2.1,3-3.9,3h-0.8
			c-2.3,0-4.1-1.8-4.1-4.1c0-0.4,0-0.7,0.1-1.1l1.3-4.8h7.8C1137.9,198.3,1138.3,198.4,1138.8,198.4z M1124.4,198.3l-0.9,3.5
			c-0.2,0.8-0.3,1.6-0.3,2.4c0,3.4,1.9,6.3,4.6,7.8l-0.8,3.1l4.8,1.2l0.8-3.1h0.5c0.6,0,1.3-0.1,1.9-0.2V233h-84.3V104.1h32.2V89.2
			h84.3v75.1l-5.4-3.6c-2-1.4-4.4-2.1-6.9-2.1h-0.2l10.3-38.2c0.2-0.8,0.3-1.6,0.3-2.4c0-5-4.1-9-9-9h-0.8c-4.1,0-7.7,2.7-8.7,6.7
			l-6.9,25.5V99.2h-52.1v5h47.1v54.5h-5.1c-2.7,0-5.2,0.9-7.4,2.5h-24.7v5h19.5l-5,5h-14.5v5h9.6l-4.1,4.1c-1.5,1.5-2.3,3.4-2.3,5.5
			c0,4.3,3.5,7.7,7.7,7.7c0.8,0,1.5-0.1,2.2-0.4c0,0.1,0,0.2,0,0.4c0,2.7,2.2,5,5,5H1124.4z M1143.5,181h-9.3l10.5-38.7l8.5,2.8
			L1143.5,181z M1124.5,165.8c1.4-1.4,3.3-2.2,5.3-2.2h4l-2,7.5c-3.1,0.1-6.1,1.4-8.3,3.6l-12.9,12.9c-0.5,0.5-1.2,0.8-2,0.8
			c-1.5,0-2.8-1.2-2.8-2.8c0-0.7,0.3-1.4,0.8-2L1124.5,165.8z M1127,178.2c0.9-0.9,2.1-1.6,3.4-1.9l-1.3,4.7h-4.9L1127,178.2z
			 M1160.2,119.2l-3,11.2l-8.5-2.8l2.8-10.5c0.5-1.8,2.1-3,3.9-3h0.8c2.3,0,4.1,1.8,4.1,4.1C1160.4,118.5,1160.3,118.8,1160.2,119.2
			z M1147.4,132.4l8.5,2.8l-1.4,5.1l-8.5-2.8L1147.4,132.4z M1150.5,176c1.4,0,2.5,1.1,2.5,2.5s-1.1,2.5-2.5,2.5h-1.8l1.3-5H1150.5z
			"/>
		<path class="st0" d="M1120,109.1h-64.5v24.8h64.5V109.1z M1115.1,128.9h-54.5V114h54.5V128.9z"/>
		<path class="st0" d="M1065.5,119h5v5h-5V119z"/>
		<path class="st0" d="M1075.4,119h5v5h-5V119z"/>
		<path class="st0" d="M1085.3,119h5v5h-5V119z"/>
		<path class="st0" d="M1095.2,119h5v5h-5V119z"/>
		<path class="st0" d="M1105.1,119h5v5h-5V119z"/>
		<path class="st0" d="M1085.3,163.6h-5v9.9h-19.8v-19.8h14.9v-5h-19.8v29.8h29.8V163.6z"/>
		<path class="st0" d="M1093.5,139.6l-23,23l-3.2-3.2l-3.5,3.5l6.7,6.7l26.5-26.5L1093.5,139.6z"/>
		<path class="st0" d="M1080.4,215.7h-19.8v-19.8h14.9v-5h-19.8v29.8h29.8v-14.9h-5V215.7z"/>
		<path class="st0" d="M1067.2,201.5l-3.5,3.5l6.7,6.7l26.5-26.5l-3.5-3.5l-23,23L1067.2,201.5z"/>
		<path class="st0" d="M1125,220.6h5v5h-5V220.6z"/>
		<path class="st0" d="M1092.7,220.6h27.3v5h-27.3V220.6z"/>
		<path class="st0" d="M1097.7,151.2h32.2v5h-32.2V151.2z"/>
	</g>
	<g id="surface1_5_">
		<path class="st0" d="M1387.6,108.4V93.4c0-7.4-6-13.3-13.3-13.3h-106.8c-7.4,0-13.3,6-13.3,13.3v58.7c0,6.8,5.2,12.5,12,13.2
			l10,26c2.7,6.9,10.4,10.3,17.3,7.7l62.7-24.1c-4.3,11.3-3.1,24,3.3,34.3l1.5,2.5v25.9c0,1.5,1.2,2.7,2.7,2.7h48
			c1.5,0,2.7-1.2,2.7-2.7v-88.1c0-9.2-3.7-18.1-10.2-24.6L1387.6,108.4z M1387.6,124.3l8.1,21c1.6,4.1-0.5,8.8-4.6,10.3l-4.6,1.8
			c0.7-1.7,1.1-3.5,1.1-5.3L1387.6,124.3L1387.6,124.3z M1259.5,152.1V93.4c0-4.4,3.6-8,8-8h106.8c4.4,0,8,3.6,8,8v17h0l0,0.1v41.7
			c0,0.5-0.1,0.9-0.2,1.4l-24.5-24.4c-5.5-5.4-14.3-5.4-19.8-0.1c-5.5,5.3-5.9,14.1-0.7,19.8l10.4,11.4h-80
			C1263.1,160.1,1259.5,156.6,1259.5,152.1z M1293.7,165.5l-19,7.3l-2.8-7.3H1293.7z M1291.5,194.1c-4.1,1.6-8.8-0.5-10.4-4.6
			l-4.5-11.7l31.9-12.3v0h43.9l3.5,3.8L1291.5,194.1z M1409,234.9h-42.7v-21.4h42.7V234.9z M1409,208.2h-43.9l-1.2-1.8
			c-6.5-10.4-6.8-23.5-0.7-34.2c0.6-1,0.4-2.3-0.4-3.1l-21.9-23.9c-3.3-3.6-3.1-9.1,0.4-12.4c3.5-3.3,9-3.3,12.4,0.1l42.5,42.5
			l3.8-3.8l-9.9-9.9l2.7-1.1c6.9-2.7,10.3-10.4,7.7-17.2l-9-23.5l8.6,8.7c5.5,5.5,8.6,13,8.7,20.8L1409,208.2L1409,208.2z"/>
		<path class="st0" d="M1284.6,117.4c3.8,0,6.9-3.1,6.9-6.9V97.7c0-3.8-3.1-6.9-6.9-6.9h-12.8c-3.8,0-6.9,3.1-6.9,6.9v12.8
			c0,3.8,3.1,6.9,6.9,6.9H1284.6z M1270.2,110.5v-3.7h5.3v-5.3h-5.3v-3.7c0-0.9,0.7-1.6,1.6-1.6h12.8c0.9,0,1.6,0.7,1.6,1.6v3.7
			h-5.3v5.3h5.3v3.7c0,0.9-0.7,1.6-1.6,1.6h-12.8C1270.9,112.1,1270.2,111.4,1270.2,110.5z"/>
		<path class="st0" d="M1267.5,125.4h10.7v5.3h-10.7C1267.5,130.8,1267.5,125.4,1267.5,125.4z"/>
		<path class="st0" d="M1267.5,141.5h10.7v5.3h-10.7C1267.5,146.8,1267.5,141.5,1267.5,141.5z"/>
		<path class="st0" d="M1315.6,141.5h10.7v5.3h-10.7V141.5z"/>
		<path class="st0" d="M1283.5,125.4h10.7v5.3h-10.7V125.4z"/>
		<path class="st0" d="M1299.6,125.4h10.7v5.3h-10.7V125.4z"/>
		<path class="st0" d="M1315.6,125.4h10.7v5.3h-10.7V125.4z"/>
		<path class="st0" d="M1366.3,93.4h5.3v8h-5.3V93.4z"/>
		<path class="st0" d="M1355.6,93.4h5.3v8h-5.3V93.4z"/>
		<path class="st0" d="M1344.9,93.4h5.3v8h-5.3V93.4z"/>
		<path class="st0" d="M1334.3,93.4h5.3v8h-5.3V93.4z"/>
		<path class="st0" d="M1371.6,218.9h5.3v5.3h-5.3V218.9z"/>
	</g>
	<g>
		<path class="st0" d="M1608.4,163.6c1.5,0,2.9,0.4,4.1,1.2l17.3,11.5c2,1.4,4.4,2.1,6.9,2.1h16.2v-5h-16.2c-1.5,0-2.9-0.4-4.1-1.2
			l-7-4.7V84.3h-94.2v14.9h-32.2V238h94.2v-14.9h32.2v-20.9c0.2,0,0.3,0,0.5-0.1l11.5-2.9c2.6-0.6,5.2-1,7.8-1h7.4v-5h-7.4
			c-3,0-6.1,0.4-9,1.1l-11.5,2.9c-5.9,1.5-12.2,1.2-18-0.7l-4.2-1.4c-3.8-1.3-7.8-1.9-11.8-1.9h-21.6c0-4.1,3.3-7.4,7.4-7.4h27.3
			c4.1,0,7.4-3.3,7.4-7.4c0-3.8-2.9-6.9-6.6-7.4l2-7.5H1608.4z M1605.3,201.4c3.8,1.3,7.8,1.9,11.8,1.9c1.2,0,2.4-0.1,3.6-0.2v15.1
			h-27.3v-8.1c0.9-1,1.5-2.2,1.9-3.5l2-7.5c1.3,0.3,2.5,0.6,3.8,1L1605.3,201.4z M1592.4,198.4l-1.8,6.8c-0.5,1.8-2.1,3-3.9,3h-0.8
			c-2.3,0-4.1-1.8-4.1-4.1c0-0.4,0-0.7,0.1-1.1l1.3-4.8h7.8C1591.4,198.3,1591.9,198.4,1592.4,198.4z M1578,198.3l-0.9,3.5
			c-0.2,0.8-0.3,1.6-0.3,2.4c0,3.4,1.9,6.3,4.6,7.8l-0.8,3.1l4.8,1.2l0.8-3.1h0.5c0.6,0,1.3-0.1,1.9-0.2V233h-84.3V104.1h32.2V89.2
			h84.3v75.1l-5.4-3.6c-2-1.4-4.4-2.1-6.9-2.1h-0.2l10.3-38.2c0.2-0.8,0.3-1.6,0.3-2.4c0-5-4.1-9-9-9h-0.8c-4.1,0-7.7,2.7-8.7,6.7
			l-6.9,25.5V99.2h-52.1v5h47.1v54.5h-5.1c-2.7,0-5.2,0.9-7.4,2.5h-24.7v5h19.5l-5,5h-14.5v5h9.6l-4.1,4.1c-1.5,1.5-2.3,3.4-2.3,5.5
			c0,4.3,3.5,7.7,7.7,7.7c0.8,0,1.5-0.1,2.2-0.4c0,0.1,0,0.2,0,0.4c0,2.7,2.2,5,5,5H1578z M1597.1,181h-9.3l10.5-38.7l8.5,2.8
			L1597.1,181z M1578.1,165.8c1.4-1.4,3.3-2.2,5.3-2.2h4l-2,7.5c-3.1,0.1-6.1,1.4-8.3,3.6l-12.9,12.9c-0.5,0.5-1.2,0.8-2,0.8
			c-1.5,0-2.8-1.2-2.8-2.8c0-0.7,0.3-1.4,0.8-2L1578.1,165.8z M1580.5,178.2c0.9-0.9,2.1-1.6,3.4-1.9l-1.3,4.7h-4.9L1580.5,178.2z
			 M1613.8,119.2l-3,11.2l-8.5-2.8l2.8-10.5c0.5-1.8,2.1-3,3.9-3h0.8c2.3,0,4.1,1.8,4.1,4.1C1613.9,118.5,1613.9,118.8,1613.8,119.2
			z M1600.9,132.4l8.5,2.8l-1.4,5.1l-8.5-2.8L1600.9,132.4z M1604,176c1.4,0,2.5,1.1,2.5,2.5s-1.1,2.5-2.5,2.5h-1.8l1.3-5H1604z"/>
		<path class="st0" d="M1573.6,109.1h-64.5v24.8h64.5V109.1z M1568.6,128.9h-54.5V114h54.5V128.9z"/>
		<path class="st0" d="M1519,119h5v5h-5V119z"/>
		<path class="st0" d="M1528.9,119h5v5h-5V119z"/>
		<path class="st0" d="M1538.9,119h5v5h-5V119z"/>
		<path class="st0" d="M1548.8,119h5v5h-5V119z"/>
		<path class="st0" d="M1558.7,119h5v5h-5V119z"/>
		<path class="st0" d="M1538.9,163.6h-5v9.9h-19.8v-19.8h14.9v-5h-19.8v29.8h29.8V163.6z"/>
		<path class="st0" d="M1547,139.6l-23,23l-3.2-3.2l-3.5,3.5l6.7,6.7l26.5-26.5L1547,139.6z"/>
		<path class="st0" d="M1533.9,215.7h-19.8v-19.8h14.9v-5h-19.8v29.8h29.8v-14.9h-5V215.7z"/>
		<path class="st0" d="M1520.8,201.5l-3.5,3.5l6.7,6.7l26.5-26.5l-3.5-3.5l-23,23L1520.8,201.5z"/>
		<path class="st0" d="M1578.5,220.6h5v5h-5V220.6z"/>
		<path class="st0" d="M1546.3,220.6h27.3v5h-27.3V220.6z"/>
		<path class="st0" d="M1551.3,151.2h32.2v5h-32.2V151.2z"/>
	</g>
	<g id="surface1_4_">
		<path class="st0" d="M1841.2,108.4V93.4c0-7.4-6-13.3-13.3-13.3h-106.8c-7.4,0-13.3,6-13.3,13.3v58.7c0,6.8,5.2,12.5,12,13.2
			l10,26c2.7,6.9,10.4,10.3,17.3,7.7l62.7-24.1c-4.3,11.3-3.1,24,3.3,34.3l1.5,2.5v25.9c0,1.5,1.2,2.7,2.7,2.7h48
			c1.5,0,2.7-1.2,2.7-2.7v-88.1c0-9.2-3.7-18.1-10.2-24.6L1841.2,108.4z M1841.2,124.3l8.1,21c1.6,4.1-0.5,8.8-4.6,10.3l-4.6,1.8
			c0.7-1.7,1.1-3.5,1.1-5.3L1841.2,124.3L1841.2,124.3z M1713.1,152.1V93.4c0-4.4,3.6-8,8-8h106.8c4.4,0,8,3.6,8,8v17h0l0,0.1v41.7
			c0,0.5-0.1,0.9-0.2,1.4l-24.5-24.4c-5.5-5.4-14.3-5.4-19.8-0.1c-5.5,5.3-5.9,14.1-0.7,19.8l10.4,11.4h-80
			C1716.7,160.1,1713.1,156.6,1713.1,152.1z M1747.3,165.5l-19,7.3l-2.8-7.3H1747.3z M1745.1,194.1c-4.1,1.6-8.8-0.5-10.3-4.6
			l-4.5-11.7l31.9-12.3v0h43.9l3.5,3.8L1745.1,194.1z M1862.5,234.9h-42.7v-21.4h42.7V234.9z M1862.5,208.2h-43.9l-1.2-1.8
			c-6.5-10.4-6.8-23.5-0.7-34.2c0.6-1,0.4-2.3-0.4-3.1l-21.9-23.9c-3.3-3.6-3.1-9.1,0.4-12.4c3.5-3.3,9-3.3,12.4,0.1l42.5,42.5
			l3.8-3.8l-9.9-9.9l2.7-1.1c6.9-2.7,10.3-10.4,7.7-17.2l-9-23.5l8.6,8.7c5.5,5.5,8.6,13,8.7,20.8L1862.5,208.2L1862.5,208.2z"/>
		<path class="st0" d="M1738.2,117.4c3.8,0,6.9-3.1,6.9-6.9V97.7c0-3.8-3.1-6.9-6.9-6.9h-12.8c-3.8,0-6.9,3.1-6.9,6.9v12.8
			c0,3.8,3.1,6.9,6.9,6.9H1738.2z M1723.7,110.5v-3.7h5.3v-5.3h-5.3v-3.7c0-0.9,0.7-1.6,1.6-1.6h12.8c0.9,0,1.6,0.7,1.6,1.6v3.7
			h-5.3v5.3h5.3v3.7c0,0.9-0.7,1.6-1.6,1.6h-12.8C1724.5,112.1,1723.7,111.4,1723.7,110.5z"/>
		<path class="st0" d="M1721.1,125.4h10.7v5.3h-10.7C1721.1,130.8,1721.1,125.4,1721.1,125.4z"/>
		<path class="st0" d="M1721.1,141.5h10.7v5.3h-10.7C1721.1,146.8,1721.1,141.5,1721.1,141.5z"/>
		<path class="st0" d="M1769.1,141.5h10.7v5.3h-10.7V141.5z"/>
		<path class="st0" d="M1737.1,125.4h10.7v5.3h-10.7V125.4z"/>
		<path class="st0" d="M1753.1,125.4h10.7v5.3h-10.7V125.4z"/>
		<path class="st0" d="M1769.1,125.4h10.7v5.3h-10.7V125.4z"/>
		<path class="st0" d="M1819.8,93.4h5.3v8h-5.3V93.4z"/>
		<path class="st0" d="M1809.2,93.4h5.3v8h-5.3V93.4z"/>
		<path class="st0" d="M1798.5,93.4h5.3v8h-5.3V93.4z"/>
		<path class="st0" d="M1787.8,93.4h5.3v8h-5.3V93.4z"/>
		<path class="st0" d="M1825.2,218.9h5.3v5.3h-5.3V218.9z"/>
	</g>
	<g>
		<path class="st0" d="M247.8,163.6c1.5,0,2.9,0.4,4.1,1.2l17.3,11.5c2,1.4,4.4,2.1,6.9,2.1h16.2v-5h-16.2c-1.5,0-2.9-0.4-4.1-1.2
			l-7-4.7V84.3h-94.2v14.9h-32.2V238h94.2v-14.9H265v-20.9c0.2,0,0.3,0,0.5-0.1l11.5-2.9c2.6-0.6,5.2-1,7.8-1h7.4v-5h-7.4
			c-3,0-6.1,0.4-9,1.1l-11.5,2.9c-5.9,1.5-12.2,1.2-18-0.7l-4.2-1.4c-3.8-1.3-7.8-1.9-11.8-1.9h-21.6c0-4.1,3.3-7.4,7.4-7.4h27.3
			c4.1,0,7.4-3.3,7.4-7.4c0-3.8-2.9-6.9-6.6-7.4l2-7.5H247.8z M244.7,201.4c3.8,1.3,7.8,1.9,11.8,1.9c1.2,0,2.4-0.1,3.6-0.2v15.1
			h-27.3v-8.1c0.9-1,1.5-2.2,1.9-3.5l2-7.5c1.3,0.3,2.5,0.6,3.8,1L244.7,201.4z M231.7,198.4l-1.8,6.8c-0.5,1.8-2.1,3-3.9,3h-0.8
			c-2.3,0-4.1-1.8-4.1-4.1c0-0.4,0-0.7,0.1-1.1l1.3-4.8h7.8C230.8,198.3,231.3,198.4,231.7,198.4z M217.3,198.3l-0.9,3.5
			c-0.2,0.8-0.3,1.6-0.3,2.4c0,3.4,1.9,6.3,4.6,7.8l-0.8,3.1l4.8,1.2l0.8-3.1h0.5c0.6,0,1.3-0.1,1.9-0.2V233h-84.3V104.1h32.2V89.2
			H260v75.1l-5.4-3.6c-2-1.4-4.4-2.1-6.9-2.1h-0.2l10.3-38.2c0.2-0.8,0.3-1.6,0.3-2.4c0-5-4.1-9-9-9h-0.8c-4.1,0-7.7,2.7-8.7,6.7
			l-6.9,25.5V99.2h-52.1v5h47.1v54.5h-5.1c-2.7,0-5.2,0.9-7.4,2.5h-24.7v5h19.5l-5,5h-14.5v5h9.6l-4.1,4.1c-1.5,1.5-2.3,3.4-2.3,5.5
			c0,4.3,3.5,7.7,7.7,7.7c0.8,0,1.5-0.1,2.2-0.4c0,0.1,0,0.2,0,0.4c0,2.7,2.2,5,5,5H217.3z M236.4,181h-9.3l10.5-38.7l8.5,2.8
			L236.4,181z M217.4,165.8c1.4-1.4,3.3-2.2,5.3-2.2h4l-2,7.5c-3.1,0.1-6.1,1.4-8.3,3.6l-12.9,12.9c-0.5,0.5-1.2,0.8-2,0.8
			c-1.5,0-2.8-1.2-2.8-2.8c0-0.7,0.3-1.4,0.8-2L217.4,165.8z M219.9,178.2c0.9-0.9,2.1-1.6,3.4-1.9L222,181h-4.9L219.9,178.2z
			 M253.1,119.2l-3,11.2l-8.5-2.8l2.8-10.5c0.5-1.8,2.1-3,3.9-3h0.8c2.3,0,4.1,1.8,4.1,4.1C253.3,118.5,253.2,118.8,253.1,119.2z
			 M240.3,132.4l8.5,2.8l-1.4,5.1l-8.5-2.8L240.3,132.4z M243.4,176c1.4,0,2.5,1.1,2.5,2.5s-1.1,2.5-2.5,2.5h-1.8l1.3-5H243.4z"/>
		<path class="st0" d="M212.9,109.1h-64.5v24.8h64.5V109.1z M208,128.9h-54.5V114H208V128.9z"/>
		<path class="st0" d="M158.4,119h5v5h-5V119z"/>
		<path class="st0" d="M168.3,119h5v5h-5V119z"/>
		<path class="st0" d="M178.2,119h5v5h-5V119z"/>
		<path class="st0" d="M188.1,119h5v5h-5V119z"/>
		<path class="st0" d="M198.1,119h5v5h-5V119z"/>
		<path class="st0" d="M178.2,163.6h-5v9.9h-19.8v-19.8h14.9v-5h-19.8v29.8h29.8V163.6z"/>
		<path class="st0" d="M186.4,139.6l-23,23l-3.2-3.2l-3.5,3.5l6.7,6.7l26.5-26.5L186.4,139.6z"/>
		<path class="st0" d="M173.3,215.7h-19.8v-19.8h14.9v-5h-19.8v29.8h29.8v-14.9h-5V215.7z"/>
		<path class="st0" d="M160.1,201.5l-3.5,3.5l6.7,6.7l26.5-26.5l-3.5-3.5l-23,23L160.1,201.5z"/>
		<path class="st0" d="M217.9,220.6h5v5h-5V220.6z"/>
		<path class="st0" d="M185.7,220.6h27.3v5h-27.3V220.6z"/>
		<path class="st0" d="M190.6,151.2h32.2v5h-32.2V151.2z"/>
	</g>
	<g id="surface1_15_">
		<path class="st0" d="M253.8,788.1v-14.9c0-7.4-6-13.3-13.3-13.3H133.7c-7.4,0-13.3,6-13.3,13.3v58.7c0,6.8,5.2,12.5,12,13.2l10,26
			c2.7,6.9,10.4,10.3,17.3,7.7l62.7-24.1c-4.3,11.3-3.1,24,3.3,34.3l1.5,2.5v25.9c0,1.5,1.2,2.7,2.7,2.7h48c1.5,0,2.7-1.2,2.7-2.7
			v-88.1c0-9.2-3.7-18.1-10.2-24.6L253.8,788.1z M253.8,804l8.1,21c1.6,4.1-0.5,8.8-4.6,10.3l-4.6,1.8c0.7-1.7,1.1-3.5,1.1-5.3
			L253.8,804L253.8,804z M125.7,831.8v-58.7c0-4.4,3.6-8,8-8h106.8c4.4,0,8,3.6,8,8v17h0l0,0.1v41.7c0,0.5-0.1,0.9-0.2,1.4
			l-24.5-24.4c-5.5-5.4-14.3-5.4-19.8-0.1c-5.5,5.3-5.9,14.1-0.7,19.8l10.4,11.4h-80C129.2,839.9,125.7,836.3,125.7,831.8z
			 M159.8,845.2l-19,7.3l-2.8-7.3H159.8z M157.7,873.8c-4.1,1.6-8.8-0.5-10.4-4.6l-4.5-11.7l31.9-12.3v0h43.9l3.5,3.8L157.7,873.8z
			 M275.1,914.6h-42.7v-21.4h42.7V914.6z M275.1,887.9h-43.9l-1.2-1.8c-6.5-10.4-6.8-23.5-0.7-34.2c0.6-1,0.4-2.3-0.4-3.1
			l-21.9-23.9c-3.3-3.6-3.1-9.1,0.4-12.4c3.5-3.3,9-3.3,12.4,0.1l42.5,42.5l3.8-3.8l-9.9-9.9l2.7-1.1c6.9-2.7,10.3-10.4,7.7-17.2
			l-9-23.5l8.6,8.7c5.5,5.5,8.6,13,8.7,20.8L275.1,887.9L275.1,887.9z"/>
		<path class="st0" d="M150.7,797.1c3.8,0,6.9-3.1,6.9-6.9v-12.8c0-3.8-3.1-6.9-6.9-6.9h-12.8c-3.8,0-6.9,3.1-6.9,6.9v12.8
			c0,3.8,3.1,6.9,6.9,6.9H150.7z M136.3,790.2v-3.7h5.3v-5.3h-5.3v-3.7c0-0.9,0.7-1.6,1.6-1.6h12.8c0.9,0,1.6,0.7,1.6,1.6v3.7H147
			v5.3h5.3v3.7c0,0.9-0.7,1.6-1.6,1.6h-12.8C137.1,791.8,136.3,791.1,136.3,790.2z"/>
		<path class="st0" d="M133.7,805.2h10.7v5.3h-10.7C133.7,810.5,133.7,805.2,133.7,805.2z"/>
		<path class="st0" d="M133.7,821.2h10.7v5.3h-10.7C133.7,826.5,133.7,821.2,133.7,821.2z"/>
		<path class="st0" d="M181.7,821.2h10.7v5.3h-10.7V821.2z"/>
		<path class="st0" d="M149.7,805.2h10.7v5.3h-10.7V805.2z"/>
		<path class="st0" d="M165.7,805.2h10.7v5.3h-10.7V805.2z"/>
		<path class="st0" d="M181.7,805.2h10.7v5.3h-10.7V805.2z"/>
		<path class="st0" d="M232.4,773.1h5.3v8h-5.3V773.1z"/>
		<path class="st0" d="M221.7,773.1h5.3v8h-5.3V773.1z"/>
		<path class="st0" d="M211.1,773.1h5.3v8h-5.3V773.1z"/>
		<path class="st0" d="M200.4,773.1h5.3v8h-5.3V773.1z"/>
		<path class="st0" d="M237.8,898.6h5.3v5.3h-5.3V898.6z"/>
	</g>
	<g>
		<path class="st0" d="M474.6,843.3c1.5,0,2.9,0.4,4.1,1.2l17.3,11.5c2,1.4,4.4,2.1,6.9,2.1H519v-5h-16.2c-1.5,0-2.9-0.4-4.1-1.2
			l-7-4.7V764h-94.2v14.9h-32.2v138.8h94.2v-14.9h32.2V882c0.2,0,0.3,0,0.5-0.1l11.5-2.9c2.6-0.6,5.2-1,7.8-1h7.4v-5h-7.4
			c-3,0-6.1,0.4-9,1.1l-11.5,2.9c-5.9,1.5-12.2,1.2-18-0.7l-4.2-1.4c-3.8-1.3-7.8-1.9-11.8-1.9h-21.6c0-4.1,3.3-7.4,7.4-7.4h27.3
			c4.1,0,7.4-3.3,7.4-7.4c0-3.8-2.9-6.9-6.6-7.4l2-7.5H474.6z M471.4,881.1c3.8,1.3,7.8,1.9,11.8,1.9c1.2,0,2.4-0.1,3.6-0.2v15.1
			h-27.3v-8.1c0.9-1,1.5-2.2,1.9-3.5l2-7.5c1.3,0.3,2.5,0.6,3.8,1L471.4,881.1z M458.5,878.1l-1.8,6.8c-0.5,1.8-2.1,3-3.9,3h-0.8
			c-2.3,0-4.1-1.8-4.1-4.1c0-0.4,0-0.7,0.1-1.1l1.3-4.8h7.8C457.5,878,458,878.1,458.5,878.1z M444.1,878l-0.9,3.5
			c-0.2,0.8-0.3,1.6-0.3,2.4c0,3.4,1.9,6.3,4.6,7.8l-0.8,3.1l4.8,1.2l0.8-3.1h0.5c0.6,0,1.3-0.1,1.9-0.2v20.1h-84.3V783.8h32.2
			v-14.9h84.3V844l-5.4-3.6c-2-1.4-4.4-2.1-6.9-2.1h-0.2l10.3-38.2c0.2-0.8,0.3-1.6,0.3-2.4c0-5-4.1-9-9-9h-0.8
			c-4.1,0-7.7,2.7-8.7,6.7l-6.9,25.5v-42.1h-52.1v5h47.1v54.5h-5.1c-2.7,0-5.2,0.9-7.4,2.5h-24.7v5h19.5l-5,5h-14.5v5h9.6l-4.1,4.1
			c-1.5,1.5-2.3,3.4-2.3,5.5c0,4.3,3.5,7.7,7.7,7.7c0.8,0,1.5-0.1,2.2-0.4c0,0.1,0,0.2,0,0.4c0,2.7,2.2,5,5,5H444.1z M463.2,860.7
			h-9.3l10.5-38.7l8.5,2.8L463.2,860.7z M444.2,845.5c1.4-1.4,3.3-2.2,5.3-2.2h4l-2,7.5c-3.1,0.1-6.1,1.4-8.3,3.6l-12.9,12.9
			c-0.5,0.5-1.2,0.8-2,0.8c-1.5,0-2.8-1.2-2.8-2.8c0-0.7,0.3-1.4,0.8-2L444.2,845.5z M446.7,857.9c0.9-0.9,2.1-1.6,3.4-1.9l-1.3,4.7
			h-4.9L446.7,857.9z M479.9,798.9l-3,11.2l-8.5-2.8l2.8-10.5c0.5-1.8,2.1-3,3.9-3h0.8c2.3,0,4.1,1.8,4.1,4.1
			C480.1,798.2,480,798.5,479.9,798.9z M467.1,812.1l8.5,2.8l-1.4,5.1l-8.5-2.8L467.1,812.1z M470.1,855.7c1.4,0,2.5,1.1,2.5,2.5
			s-1.1,2.5-2.5,2.5h-1.8l1.3-5H470.1z"/>
		<path class="st0" d="M439.7,788.8h-64.5v24.8h64.5V788.8z M434.7,808.6h-54.5v-14.9h54.5V808.6z"/>
		<path class="st0" d="M385.2,798.7h5v5h-5V798.7z"/>
		<path class="st0" d="M395.1,798.7h5v5h-5V798.7z"/>
		<path class="st0" d="M405,798.7h5v5h-5V798.7z"/>
		<path class="st0" d="M414.9,798.7h5v5h-5V798.7z"/>
		<path class="st0" d="M424.8,798.7h5v5h-5V798.7z"/>
		<path class="st0" d="M405,843.3h-5v9.9h-19.8v-19.8h14.9v-5h-19.8v29.8H405V843.3z"/>
		<path class="st0" d="M413.2,819.3l-23,23l-3.2-3.2l-3.5,3.5l6.7,6.7l26.5-26.5L413.2,819.3z"/>
		<path class="st0" d="M400,895.4h-19.8v-19.8h14.9v-5h-19.8v29.8H405v-14.9h-5V895.4z"/>
		<path class="st0" d="M386.9,881.2l-3.5,3.5l6.7,6.7l26.5-26.5l-3.5-3.5l-23,23L386.9,881.2z"/>
		<path class="st0" d="M444.7,900.4h5v5h-5V900.4z"/>
		<path class="st0" d="M412.4,900.4h27.3v5h-27.3V900.4z"/>
		<path class="st0" d="M417.4,830.9h32.2v5h-32.2V830.9z"/>
	</g>
	<g id="surface1_14_">
		<path class="st0" d="M707.3,788.1v-14.9c0-7.4-6-13.3-13.3-13.3H587.2c-7.4,0-13.3,6-13.3,13.3v58.7c0,6.8,5.2,12.5,12,13.2l10,26
			c2.7,6.9,10.4,10.3,17.3,7.7l62.7-24.1c-4.3,11.3-3.1,24,3.3,34.3l1.5,2.5v25.9c0,1.5,1.2,2.7,2.7,2.7h48c1.5,0,2.7-1.2,2.7-2.7
			v-88.1c0-9.2-3.7-18.1-10.2-24.6L707.3,788.1z M707.3,804l8.1,21c1.6,4.1-0.5,8.8-4.6,10.3l-4.6,1.8c0.7-1.7,1.1-3.5,1.1-5.3
			L707.3,804L707.3,804z M579.2,831.8v-58.7c0-4.4,3.6-8,8-8H694c4.4,0,8,3.6,8,8v17h0l0,0.1v41.7c0,0.5-0.1,0.9-0.2,1.4l-24.5-24.4
			c-5.5-5.4-14.3-5.4-19.8-0.1c-5.5,5.3-5.9,14.1-0.7,19.8l10.4,11.4h-80C582.8,839.9,579.2,836.3,579.2,831.8z M613.4,845.2
			l-19,7.3l-2.8-7.3H613.4z M611.2,873.8c-4.1,1.6-8.8-0.5-10.4-4.6l-4.5-11.7l31.9-12.3v0h43.9l3.5,3.8L611.2,873.8z M728.7,914.6
			H686v-21.4h42.7V914.6z M728.7,887.9h-43.9l-1.2-1.8c-6.5-10.4-6.8-23.5-0.7-34.2c0.6-1,0.4-2.3-0.4-3.1l-21.9-23.9
			c-3.3-3.6-3.1-9.1,0.4-12.4c3.5-3.3,9-3.3,12.4,0.1l42.5,42.5l3.8-3.8l-9.9-9.9l2.7-1.1c6.9-2.7,10.3-10.4,7.7-17.2l-9-23.5
			l8.6,8.7c5.5,5.5,8.6,13,8.7,20.8L728.7,887.9L728.7,887.9z"/>
		<path class="st0" d="M604.3,797.1c3.8,0,6.9-3.1,6.9-6.9v-12.8c0-3.8-3.1-6.9-6.9-6.9h-12.8c-3.8,0-6.9,3.1-6.9,6.9v12.8
			c0,3.8,3.1,6.9,6.9,6.9H604.3z M589.9,790.2v-3.7h5.3v-5.3h-5.3v-3.7c0-0.9,0.7-1.6,1.6-1.6h12.8c0.9,0,1.6,0.7,1.6,1.6v3.7h-5.3
			v5.3h5.3v3.7c0,0.9-0.7,1.6-1.6,1.6h-12.8C590.6,791.8,589.9,791.1,589.9,790.2z"/>
		<path class="st0" d="M587.2,805.2h10.7v5.3h-10.7C587.2,810.5,587.2,805.2,587.2,805.2z"/>
		<path class="st0" d="M587.2,821.2h10.7v5.3h-10.7C587.2,826.5,587.2,821.2,587.2,821.2z"/>
		<path class="st0" d="M635.3,821.2h10.7v5.3h-10.7V821.2z"/>
		<path class="st0" d="M603.2,805.2h10.7v5.3h-10.7V805.2z"/>
		<path class="st0" d="M619.2,805.2h10.7v5.3h-10.7V805.2z"/>
		<path class="st0" d="M635.3,805.2h10.7v5.3h-10.7V805.2z"/>
		<path class="st0" d="M686,773.1h5.3v8H686V773.1z"/>
		<path class="st0" d="M675.3,773.1h5.3v8h-5.3V773.1z"/>
		<path class="st0" d="M664.6,773.1h5.3v8h-5.3V773.1z"/>
		<path class="st0" d="M653.9,773.1h5.3v8h-5.3V773.1z"/>
		<path class="st0" d="M691.3,898.6h5.3v5.3h-5.3V898.6z"/>
	</g>
	<g>
		<path class="st0" d="M928.1,843.3c1.5,0,2.9,0.4,4.1,1.2l17.3,11.5c2,1.4,4.4,2.1,6.9,2.1h16.2v-5h-16.2c-1.5,0-2.9-0.4-4.1-1.2
			l-7-4.7V764h-94.2v14.9h-32.2v138.8h94.2v-14.9h32.2V882c0.2,0,0.3,0,0.5-0.1l11.5-2.9c2.6-0.6,5.2-1,7.8-1h7.4v-5h-7.4
			c-3,0-6.1,0.4-9,1.1l-11.5,2.9c-5.9,1.5-12.2,1.2-18-0.7l-4.2-1.4c-3.8-1.3-7.8-1.9-11.8-1.9H889c0-4.1,3.3-7.4,7.4-7.4h27.3
			c4.1,0,7.4-3.3,7.4-7.4c0-3.8-2.9-6.9-6.6-7.4l2-7.5H928.1z M925,881.1c3.8,1.3,7.8,1.9,11.8,1.9c1.2,0,2.4-0.1,3.6-0.2v15.1
			h-27.3v-8.1c0.9-1,1.5-2.2,1.9-3.5l2-7.5c1.3,0.3,2.5,0.6,3.8,1L925,881.1z M912.1,878.1l-1.8,6.8c-0.5,1.8-2.1,3-3.9,3h-0.8
			c-2.3,0-4.1-1.8-4.1-4.1c0-0.4,0-0.7,0.1-1.1l1.3-4.8h7.8C911.1,878,911.6,878.1,912.1,878.1z M897.7,878l-0.9,3.5
			c-0.2,0.8-0.3,1.6-0.3,2.4c0,3.4,1.9,6.3,4.6,7.8l-0.8,3.1l4.8,1.2l0.8-3.1h0.5c0.6,0,1.3-0.1,1.9-0.2v20.1h-84.3V783.8h32.2
			v-14.9h84.3V844l-5.4-3.6c-2-1.4-4.4-2.1-6.9-2.1h-0.2l10.3-38.2c0.2-0.8,0.3-1.6,0.3-2.4c0-5-4.1-9-9-9h-0.8
			c-4.1,0-7.7,2.7-8.7,6.7l-6.9,25.5v-42.1H861v5h47.1v54.5H903c-2.7,0-5.2,0.9-7.4,2.5h-24.7v5h19.5l-5,5h-14.5v5h9.6l-4.1,4.1
			c-1.5,1.5-2.3,3.4-2.3,5.5c0,4.3,3.5,7.7,7.7,7.7c0.8,0,1.5-0.1,2.2-0.4c0,0.1,0,0.2,0,0.4c0,2.7,2.2,5,5,5H897.7z M916.8,860.7
			h-9.3l10.5-38.7l8.5,2.8L916.8,860.7z M897.7,845.5c1.4-1.4,3.3-2.2,5.3-2.2h4l-2,7.5c-3.1,0.1-6.1,1.4-8.3,3.6l-12.9,12.9
			c-0.5,0.5-1.2,0.8-2,0.8c-1.5,0-2.8-1.2-2.8-2.8c0-0.7,0.3-1.4,0.8-2L897.7,845.5z M900.2,857.9c0.9-0.9,2.1-1.6,3.4-1.9l-1.3,4.7
			h-4.9L900.2,857.9z M933.5,798.9l-3,11.2l-8.5-2.8l2.8-10.5c0.5-1.8,2.1-3,3.9-3h0.8c2.3,0,4.1,1.8,4.1,4.1
			C933.6,798.2,933.6,798.5,933.5,798.9z M920.6,812.1l8.5,2.8l-1.4,5.1l-8.5-2.8L920.6,812.1z M923.7,855.7c1.4,0,2.5,1.1,2.5,2.5
			s-1.1,2.5-2.5,2.5h-1.8l1.3-5H923.7z"/>
		<path class="st0" d="M893.2,788.8h-64.5v24.8h64.5V788.8z M888.3,808.6h-54.5v-14.9h54.5V808.6z"/>
		<path class="st0" d="M838.7,798.7h5v5h-5V798.7z"/>
		<path class="st0" d="M848.6,798.7h5v5h-5V798.7z"/>
		<path class="st0" d="M858.5,798.7h5v5h-5V798.7z"/>
		<path class="st0" d="M868.5,798.7h5v5h-5V798.7z"/>
		<path class="st0" d="M878.4,798.7h5v5h-5V798.7z"/>
		<path class="st0" d="M858.5,843.3h-5v9.9h-19.8v-19.8h14.9v-5h-19.8v29.8h29.8V843.3z"/>
		<path class="st0" d="M866.7,819.3l-23,23l-3.2-3.2l-3.5,3.5l6.7,6.7l26.5-26.5L866.7,819.3z"/>
		<path class="st0" d="M853.6,895.4h-19.8v-19.8h14.9v-5h-19.8v29.8h29.8v-14.9h-5V895.4z"/>
		<path class="st0" d="M840.5,881.2l-3.5,3.5l6.7,6.7l26.5-26.5l-3.5-3.5l-23,23L840.5,881.2z"/>
		<path class="st0" d="M898.2,900.4h5v5h-5V900.4z"/>
		<path class="st0" d="M866,900.4h27.3v5H866V900.4z"/>
		<path class="st0" d="M870.9,830.9h32.2v5h-32.2V830.9z"/>
	</g>
	<g id="surface1_13_">
		<path class="st0" d="M1160.9,788.1v-14.9c0-7.4-6-13.3-13.3-13.3h-106.8c-7.4,0-13.3,6-13.3,13.3v58.7c0,6.8,5.2,12.5,12,13.2
			l10,26c2.7,6.9,10.4,10.3,17.3,7.7l62.7-24.1c-4.3,11.3-3.1,24,3.3,34.3l1.5,2.5v25.9c0,1.5,1.2,2.7,2.7,2.7h48
			c1.5,0,2.7-1.2,2.7-2.7v-88.1c0-9.2-3.7-18.1-10.2-24.6L1160.9,788.1z M1160.9,804l8.1,21c1.6,4.1-0.5,8.8-4.6,10.3l-4.6,1.8
			c0.7-1.7,1.1-3.5,1.1-5.3L1160.9,804L1160.9,804z M1032.7,831.8v-58.7c0-4.4,3.6-8,8-8h106.8c4.4,0,8,3.6,8,8v17h0l0,0.1v41.7
			c0,0.5-0.1,0.9-0.2,1.4l-24.5-24.4c-5.5-5.4-14.3-5.4-19.8-0.1c-5.5,5.3-5.9,14.1-0.7,19.8l10.4,11.4h-80
			C1036.3,839.9,1032.7,836.3,1032.7,831.8z M1066.9,845.2l-19,7.3l-2.8-7.3H1066.9z M1064.7,873.8c-4.1,1.6-8.8-0.5-10.4-4.6
			l-4.5-11.7l31.9-12.3v0h43.9l3.5,3.8L1064.7,873.8z M1182.2,914.6h-42.7v-21.4h42.7V914.6z M1182.2,887.9h-43.9l-1.2-1.8
			c-6.5-10.4-6.8-23.5-0.7-34.2c0.6-1,0.4-2.3-0.4-3.1l-21.9-23.9c-3.3-3.6-3.1-9.1,0.4-12.4c3.5-3.3,9-3.3,12.4,0.1l42.5,42.5
			l3.8-3.8l-9.9-9.9l2.7-1.1c6.9-2.7,10.3-10.4,7.7-17.2l-9-23.5l8.6,8.7c5.5,5.5,8.6,13,8.7,20.8L1182.2,887.9L1182.2,887.9z"/>
		<path class="st0" d="M1057.8,797.1c3.8,0,6.9-3.1,6.9-6.9v-12.8c0-3.8-3.1-6.9-6.9-6.9H1045c-3.8,0-6.9,3.1-6.9,6.9v12.8
			c0,3.8,3.1,6.9,6.9,6.9H1057.8z M1043.4,790.2v-3.7h5.3v-5.3h-5.3v-3.7c0-0.9,0.7-1.6,1.6-1.6h12.8c0.9,0,1.6,0.7,1.6,1.6v3.7
			h-5.3v5.3h5.3v3.7c0,0.9-0.7,1.6-1.6,1.6H1045C1044.1,791.8,1043.4,791.1,1043.4,790.2z"/>
		<path class="st0" d="M1040.8,805.2h10.7v5.3h-10.7C1040.8,810.5,1040.8,805.2,1040.8,805.2z"/>
		<path class="st0" d="M1040.8,821.2h10.7v5.3h-10.7C1040.8,826.5,1040.8,821.2,1040.8,821.2z"/>
		<path class="st0" d="M1088.8,821.2h10.7v5.3h-10.7V821.2z"/>
		<path class="st0" d="M1056.8,805.2h10.7v5.3h-10.7V805.2z"/>
		<path class="st0" d="M1072.8,805.2h10.7v5.3h-10.7V805.2z"/>
		<path class="st0" d="M1088.8,805.2h10.7v5.3h-10.7V805.2z"/>
		<path class="st0" d="M1139.5,773.1h5.3v8h-5.3V773.1z"/>
		<path class="st0" d="M1128.8,773.1h5.3v8h-5.3V773.1z"/>
		<path class="st0" d="M1118.2,773.1h5.3v8h-5.3V773.1z"/>
		<path class="st0" d="M1107.5,773.1h5.3v8h-5.3V773.1z"/>
		<path class="st0" d="M1144.8,898.6h5.3v5.3h-5.3V898.6z"/>
	</g>
	<g>
		<path class="st0" d="M1381.7,843.3c1.5,0,2.9,0.4,4.1,1.2l17.3,11.5c2,1.4,4.4,2.1,6.9,2.1h16.2v-5H1410c-1.5,0-2.9-0.4-4.1-1.2
			l-7-4.7V764h-94.2v14.9h-32.2v138.8h94.2v-14.9h32.2V882c0.2,0,0.3,0,0.5-0.1l11.5-2.9c2.6-0.6,5.2-1,7.8-1h7.4v-5h-7.4
			c-3,0-6.1,0.4-9,1.1l-11.5,2.9c-5.9,1.5-12.2,1.2-18-0.7l-4.2-1.4c-3.8-1.3-7.8-1.9-11.8-1.9h-21.6c0-4.1,3.3-7.4,7.4-7.4h27.3
			c4.1,0,7.4-3.3,7.4-7.4c0-3.8-2.9-6.9-6.6-7.4l2-7.5H1381.7z M1378.5,881.1c3.8,1.3,7.8,1.9,11.8,1.9c1.2,0,2.4-0.1,3.6-0.2v15.1
			h-27.3v-8.1c0.9-1,1.5-2.2,1.9-3.5l2-7.5c1.3,0.3,2.5,0.6,3.8,1L1378.5,881.1z M1365.6,878.1l-1.8,6.8c-0.5,1.8-2.1,3-3.9,3h-0.8
			c-2.3,0-4.1-1.8-4.1-4.1c0-0.4,0-0.7,0.1-1.1l1.3-4.8h7.8C1364.6,878,1365.1,878.1,1365.6,878.1z M1351.2,878l-0.9,3.5
			c-0.2,0.8-0.3,1.6-0.3,2.4c0,3.4,1.9,6.3,4.6,7.8l-0.8,3.1l4.8,1.2l0.8-3.1h0.5c0.6,0,1.3-0.1,1.9-0.2v20.1h-84.3V783.8h32.2
			v-14.9h84.3V844l-5.4-3.6c-2-1.4-4.4-2.1-6.9-2.1h-0.2l10.3-38.2c0.2-0.8,0.3-1.6,0.3-2.4c0-5-4.1-9-9-9h-0.8
			c-4.1,0-7.7,2.7-8.7,6.7l-6.9,25.5v-42.1h-52.1v5h47.1v54.5h-5.1c-2.7,0-5.2,0.9-7.4,2.5h-24.7v5h19.5l-5,5h-14.5v5h9.6l-4.1,4.1
			c-1.5,1.5-2.3,3.4-2.3,5.5c0,4.3,3.5,7.7,7.7,7.7c0.8,0,1.5-0.1,2.2-0.4c0,0.1,0,0.2,0,0.4c0,2.7,2.2,5,5,5H1351.2z M1370.3,860.7
			h-9.3l10.5-38.7l8.5,2.8L1370.3,860.7z M1351.3,845.5c1.4-1.4,3.3-2.2,5.3-2.2h4l-2,7.5c-3.1,0.1-6.1,1.4-8.3,3.6l-12.9,12.9
			c-0.5,0.5-1.2,0.8-2,0.8c-1.5,0-2.8-1.2-2.8-2.8c0-0.7,0.3-1.4,0.8-2L1351.3,845.5z M1353.8,857.9c0.9-0.9,2.1-1.6,3.4-1.9
			l-1.3,4.7h-4.9L1353.8,857.9z M1387,798.9l-3,11.2l-8.5-2.8l2.8-10.5c0.5-1.8,2.1-3,3.9-3h0.8c2.3,0,4.1,1.8,4.1,4.1
			C1387.1,798.2,1387.1,798.5,1387,798.9z M1374.2,812.1l8.5,2.8l-1.4,5.1l-8.5-2.8L1374.2,812.1z M1377.2,855.7
			c1.4,0,2.5,1.1,2.5,2.5s-1.1,2.5-2.5,2.5h-1.8l1.3-5H1377.2z"/>
		<path class="st0" d="M1346.8,788.8h-64.5v24.8h64.5V788.8z M1341.8,808.6h-54.5v-14.9h54.5V808.6z"/>
		<path class="st0" d="M1292.2,798.7h5v5h-5V798.7z"/>
		<path class="st0" d="M1302.2,798.7h5v5h-5V798.7z"/>
		<path class="st0" d="M1312.1,798.7h5v5h-5V798.7z"/>
		<path class="st0" d="M1322,798.7h5v5h-5V798.7z"/>
		<path class="st0" d="M1331.9,798.7h5v5h-5V798.7z"/>
		<path class="st0" d="M1312.1,843.3h-5v9.9h-19.8v-19.8h14.9v-5h-19.8v29.8h29.8V843.3z"/>
		<path class="st0" d="M1320.2,819.3l-23,23l-3.2-3.2l-3.5,3.5l6.7,6.7l26.5-26.5L1320.2,819.3z"/>
		<path class="st0" d="M1307.1,895.4h-19.8v-19.8h14.9v-5h-19.8v29.8h29.8v-14.9h-5V895.4z"/>
		<path class="st0" d="M1294,881.2l-3.5,3.5l6.7,6.7l26.5-26.5l-3.5-3.5l-23,23L1294,881.2z"/>
		<path class="st0" d="M1351.8,900.4h5v5h-5V900.4z"/>
		<path class="st0" d="M1319.5,900.4h27.3v5h-27.3V900.4z"/>
		<path class="st0" d="M1324.5,830.9h32.2v5h-32.2V830.9z"/>
	</g>
	<g id="surface1_12_">
		<path class="st0" d="M1614.4,788.1v-14.9c0-7.4-6-13.3-13.3-13.3h-106.8c-7.4,0-13.3,6-13.3,13.3v58.7c0,6.8,5.2,12.5,12,13.2
			l10,26c2.7,6.9,10.4,10.3,17.3,7.7l62.7-24.1c-4.3,11.3-3.1,24,3.3,34.3l1.5,2.5v25.9c0,1.5,1.2,2.7,2.7,2.7h48
			c1.5,0,2.7-1.2,2.7-2.7v-88.1c0-9.2-3.7-18.1-10.2-24.6L1614.4,788.1z M1614.4,804l8.1,21c1.6,4.1-0.5,8.8-4.6,10.3l-4.6,1.8
			c0.7-1.7,1.1-3.5,1.1-5.3L1614.4,804L1614.4,804z M1486.3,831.8v-58.7c0-4.4,3.6-8,8-8h106.8c4.4,0,8,3.6,8,8v17h0l0,0.1v41.7
			c0,0.5-0.1,0.9-0.2,1.4l-24.5-24.4c-5.5-5.4-14.3-5.4-19.8-0.1c-5.5,5.3-5.9,14.1-0.7,19.8l10.4,11.4h-80
			C1489.9,839.9,1486.3,836.3,1486.3,831.8z M1520.5,845.2l-19,7.3l-2.8-7.3H1520.5z M1518.3,873.8c-4.1,1.6-8.8-0.5-10.4-4.6
			l-4.5-11.7l31.9-12.3v0h43.9l3.5,3.8L1518.3,873.8z M1635.8,914.6h-42.7v-21.4h42.7V914.6z M1635.8,887.9h-43.9l-1.2-1.8
			c-6.5-10.4-6.8-23.5-0.7-34.2c0.6-1,0.4-2.3-0.4-3.1l-21.9-23.9c-3.3-3.6-3.1-9.1,0.4-12.4c3.5-3.3,9-3.3,12.4,0.1l42.5,42.5
			l3.8-3.8l-9.9-9.9l2.7-1.1c6.9-2.7,10.3-10.4,7.7-17.2l-9-23.5l8.6,8.7c5.5,5.5,8.6,13,8.7,20.8L1635.8,887.9L1635.8,887.9z"/>
		<path class="st0" d="M1511.4,797.1c3.8,0,6.9-3.1,6.9-6.9v-12.8c0-3.8-3.1-6.9-6.9-6.9h-12.8c-3.8,0-6.9,3.1-6.9,6.9v12.8
			c0,3.8,3.1,6.9,6.9,6.9H1511.4z M1497,790.2v-3.7h5.3v-5.3h-5.3v-3.7c0-0.9,0.7-1.6,1.6-1.6h12.8c0.9,0,1.6,0.7,1.6,1.6v3.7h-5.3
			v5.3h5.3v3.7c0,0.9-0.7,1.6-1.6,1.6h-12.8C1497.7,791.8,1497,791.1,1497,790.2z"/>
		<path class="st0" d="M1494.3,805.2h10.7v5.3h-10.7C1494.3,810.5,1494.3,805.2,1494.3,805.2z"/>
		<path class="st0" d="M1494.3,821.2h10.7v5.3h-10.7C1494.3,826.5,1494.3,821.2,1494.3,821.2z"/>
		<path class="st0" d="M1542.3,821.2h10.7v5.3h-10.7V821.2z"/>
		<path class="st0" d="M1510.3,805.2h10.7v5.3h-10.7V805.2z"/>
		<path class="st0" d="M1526.3,805.2h10.7v5.3h-10.7V805.2z"/>
		<path class="st0" d="M1542.3,805.2h10.7v5.3h-10.7V805.2z"/>
		<path class="st0" d="M1593.1,773.1h5.3v8h-5.3V773.1z"/>
		<path class="st0" d="M1582.4,773.1h5.3v8h-5.3V773.1z"/>
		<path class="st0" d="M1571.7,773.1h5.3v8h-5.3V773.1z"/>
		<path class="st0" d="M1561,773.1h5.3v8h-5.3V773.1z"/>
		<path class="st0" d="M1598.4,898.6h5.3v5.3h-5.3V898.6z"/>
	</g>
	<g>
		<path class="st0" d="M1835.2,843.3c1.5,0,2.9,0.4,4.1,1.2l17.3,11.5c2,1.4,4.4,2.1,6.9,2.1h16.2v-5h-16.2c-1.5,0-2.9-0.4-4.1-1.2
			l-7-4.7V764h-94.2v14.9H1726v138.8h94.2v-14.9h32.2V882c0.2,0,0.3,0,0.5-0.1l11.5-2.9c2.6-0.6,5.2-1,7.8-1h7.4v-5h-7.4
			c-3,0-6.1,0.4-9,1.1l-11.5,2.9c-5.9,1.5-12.2,1.2-18-0.7l-4.2-1.4c-3.8-1.3-7.8-1.9-11.8-1.9h-21.6c0-4.1,3.3-7.4,7.4-7.4h27.3
			c4.1,0,7.4-3.3,7.4-7.4c0-3.8-2.9-6.9-6.6-7.4l2-7.5H1835.2z M1832.1,881.1c3.8,1.3,7.8,1.9,11.8,1.9c1.2,0,2.4-0.1,3.6-0.2v15.1
			h-27.3v-8.1c0.9-1,1.5-2.2,1.9-3.5l2-7.5c1.3,0.3,2.5,0.6,3.8,1L1832.1,881.1z M1819.1,878.1l-1.8,6.8c-0.5,1.8-2.1,3-3.9,3h-0.8
			c-2.3,0-4.1-1.8-4.1-4.1c0-0.4,0-0.7,0.1-1.1l1.3-4.8h7.8C1818.2,878,1818.7,878.1,1819.1,878.1z M1804.8,878l-0.9,3.5
			c-0.2,0.8-0.3,1.6-0.3,2.4c0,3.4,1.9,6.3,4.6,7.8l-0.8,3.1l4.8,1.2l0.8-3.1h0.5c0.6,0,1.3-0.1,1.9-0.2v20.1h-84.3V783.8h32.2
			v-14.9h84.3V844l-5.4-3.6c-2-1.4-4.4-2.1-6.9-2.1h-0.2l10.3-38.2c0.2-0.8,0.3-1.6,0.3-2.4c0-5-4.1-9-9-9h-0.8
			c-4.1,0-7.7,2.7-8.7,6.7l-6.9,25.5v-42.1h-52.1v5h47.1v54.5h-5.1c-2.7,0-5.2,0.9-7.4,2.5H1778v5h19.5l-5,5H1778v5h9.6l-4.1,4.1
			c-1.5,1.5-2.3,3.4-2.3,5.5c0,4.3,3.5,7.7,7.7,7.7c0.8,0,1.5-0.1,2.2-0.4c0,0.1,0,0.2,0,0.4c0,2.7,2.2,5,5,5H1804.8z M1823.9,860.7
			h-9.3l10.5-38.7l8.5,2.8L1823.9,860.7z M1804.8,845.5c1.4-1.4,3.3-2.2,5.3-2.2h4l-2,7.5c-3.1,0.1-6.1,1.4-8.3,3.6l-12.9,12.9
			c-0.5,0.5-1.2,0.8-2,0.8c-1.5,0-2.8-1.2-2.8-2.8c0-0.7,0.3-1.4,0.8-2L1804.8,845.5z M1807.3,857.9c0.9-0.9,2.1-1.6,3.4-1.9
			l-1.3,4.7h-4.9L1807.3,857.9z M1840.5,798.9l-3,11.2l-8.5-2.8l2.8-10.5c0.5-1.8,2.1-3,3.9-3h0.8c2.3,0,4.1,1.8,4.1,4.1
			C1840.7,798.2,1840.6,798.5,1840.5,798.9z M1827.7,812.1l8.5,2.8l-1.4,5.1l-8.5-2.8L1827.7,812.1z M1830.8,855.7
			c1.4,0,2.5,1.1,2.5,2.5s-1.1,2.5-2.5,2.5h-1.8l1.3-5H1830.8z"/>
		<path class="st0" d="M1800.3,788.8h-64.5v24.8h64.5V788.8z M1795.4,808.6h-54.5v-14.9h54.5V808.6z"/>
		<path class="st0" d="M1745.8,798.7h5v5h-5V798.7z"/>
		<path class="st0" d="M1755.7,798.7h5v5h-5V798.7z"/>
		<path class="st0" d="M1765.6,798.7h5v5h-5V798.7z"/>
		<path class="st0" d="M1775.5,798.7h5v5h-5V798.7z"/>
		<path class="st0" d="M1785.5,798.7h5v5h-5V798.7z"/>
		<path class="st0" d="M1765.6,843.3h-5v9.9h-19.8v-19.8h14.9v-5h-19.8v29.8h29.8V843.3z"/>
		<path class="st0" d="M1773.8,819.3l-23,23l-3.2-3.2l-3.5,3.5l6.7,6.7l26.5-26.5L1773.8,819.3z"/>
		<path class="st0" d="M1760.7,895.4h-19.8v-19.8h14.9v-5h-19.8v29.8h29.8v-14.9h-5V895.4z"/>
		<path class="st0" d="M1747.5,881.2l-3.5,3.5l6.7,6.7l26.5-26.5l-3.5-3.5l-23,23L1747.5,881.2z"/>
		<path class="st0" d="M1805.3,900.4h5v5h-5V900.4z"/>
		<path class="st0" d="M1773.1,900.4h27.3v5h-27.3V900.4z"/>
		<path class="st0" d="M1778,830.9h32.2v5H1778V830.9z"/>
	</g>
	<g id="surface1_11_">
		<path class="st0" d="M480.5,561.3v-14.9c0-7.4-6-13.3-13.3-13.3H360.4c-7.4,0-13.3,6-13.3,13.3v58.7c0,6.8,5.2,12.5,12,13.2l10,26
			c2.7,6.9,10.4,10.3,17.3,7.7l62.7-24.1c-4.3,11.3-3.1,24,3.3,34.3l1.5,2.5v25.9c0,1.5,1.2,2.7,2.7,2.7h48c1.5,0,2.7-1.2,2.7-2.7
			v-88.1c0-9.2-3.7-18.1-10.2-24.6L480.5,561.3z M480.5,577.2l8.1,21c1.6,4.1-0.5,8.8-4.6,10.3l-4.6,1.8c0.7-1.7,1.1-3.5,1.1-5.3
			L480.5,577.2L480.5,577.2z M352.4,605.1v-58.7c0-4.4,3.6-8,8-8h106.8c4.4,0,8,3.6,8,8v17h0l0,0.1v41.7c0,0.5-0.1,0.9-0.2,1.4
			L450.6,582c-5.5-5.4-14.3-5.4-19.8-0.1c-5.5,5.3-5.9,14.1-0.7,19.8l10.4,11.4h-80C356,613.1,352.4,609.5,352.4,605.1z
			 M386.6,618.4l-19,7.3l-2.8-7.3H386.6z M384.4,647c-4.1,1.6-8.8-0.5-10.4-4.6l-4.5-11.7l31.9-12.3v0h43.9l3.5,3.8L384.4,647z
			 M501.9,687.8h-42.7v-21.4h42.7V687.8z M501.9,661.1H458l-1.2-1.8c-6.5-10.4-6.8-23.5-0.7-34.2c0.6-1,0.4-2.3-0.4-3.1l-21.9-23.9
			c-3.3-3.6-3.1-9.1,0.4-12.4c3.5-3.3,9-3.3,12.4,0.1l42.5,42.5l3.8-3.8l-9.9-9.9l2.7-1.1c6.9-2.7,10.3-10.4,7.7-17.2l-9-23.5
			l8.6,8.7c5.5,5.5,8.6,13,8.7,20.8L501.9,661.1L501.9,661.1z"/>
		<path class="st0" d="M377.5,570.4c3.8,0,6.9-3.1,6.9-6.9v-12.8c0-3.8-3.1-6.9-6.9-6.9h-12.8c-3.8,0-6.9,3.1-6.9,6.9v12.8
			c0,3.8,3.1,6.9,6.9,6.9H377.5z M363.1,563.4v-3.7h5.3v-5.3h-5.3v-3.7c0-0.9,0.7-1.6,1.6-1.6h12.8c0.9,0,1.6,0.7,1.6,1.6v3.7h-5.3
			v5.3h5.3v3.7c0,0.9-0.7,1.6-1.6,1.6h-12.8C363.8,565,363.1,564.3,363.1,563.4z"/>
		<path class="st0" d="M360.4,578.4h10.7v5.3h-10.7C360.4,583.7,360.4,578.4,360.4,578.4z"/>
		<path class="st0" d="M360.4,594.4h10.7v5.3h-10.7C360.4,599.7,360.4,594.4,360.4,594.4z"/>
		<path class="st0" d="M408.5,594.4h10.7v5.3h-10.7V594.4z"/>
		<path class="st0" d="M376.5,578.4h10.7v5.3h-10.7V578.4z"/>
		<path class="st0" d="M392.5,578.4h10.7v5.3h-10.7V578.4z"/>
		<path class="st0" d="M408.5,578.4h10.7v5.3h-10.7V578.4z"/>
		<path class="st0" d="M459.2,546.4h5.3v8h-5.3V546.4z"/>
		<path class="st0" d="M448.5,546.4h5.3v8h-5.3V546.4z"/>
		<path class="st0" d="M437.8,546.4h5.3v8h-5.3V546.4z"/>
		<path class="st0" d="M427.2,546.4h5.3v8h-5.3V546.4z"/>
		<path class="st0" d="M464.5,671.8h5.3v5.3h-5.3V671.8z"/>
	</g>
	<g>
		<path class="st0" d="M701.3,616.6c1.5,0,2.9,0.4,4.1,1.2l17.3,11.5c2,1.4,4.4,2.1,6.9,2.1h16.2v-5h-16.2c-1.5,0-2.9-0.4-4.1-1.2
			l-7-4.7v-83.3h-94.2v14.9h-32.2v138.8h94.2v-14.9h32.2v-20.9c0.2,0,0.3,0,0.5-0.1l11.5-2.9c2.6-0.6,5.2-1,7.8-1h7.4v-5h-7.4
			c-3,0-6.1,0.4-9,1.1l-11.5,2.9c-5.9,1.5-12.2,1.2-18-0.7l-4.2-1.4c-3.8-1.3-7.8-1.9-11.8-1.9h-21.6c0-4.1,3.3-7.4,7.4-7.4h27.3
			c4.1,0,7.4-3.3,7.4-7.4c0-3.8-2.9-6.9-6.6-7.4l2-7.5H701.3z M698.2,654.3c3.8,1.3,7.8,1.9,11.8,1.9c1.2,0,2.4-0.1,3.6-0.2v15.1
			h-27.3V663c0.9-1,1.5-2.2,1.9-3.5l2-7.5c1.3,0.3,2.5,0.6,3.8,1L698.2,654.3z M685.3,651.3l-1.8,6.8c-0.5,1.8-2.1,3-3.9,3h-0.8
			c-2.3,0-4.1-1.8-4.1-4.1c0-0.4,0-0.7,0.1-1.1l1.3-4.8h7.8C684.3,651.3,684.8,651.3,685.3,651.3z M670.9,651.3l-0.9,3.5
			c-0.2,0.8-0.3,1.6-0.3,2.4c0,3.4,1.9,6.3,4.6,7.8l-0.8,3.1l4.8,1.2l0.8-3.1h0.5c0.6,0,1.3-0.1,1.9-0.2V686h-84.3V557h32.2v-14.9
			h84.3v75.1l-5.4-3.6c-2-1.4-4.4-2.1-6.9-2.1h-0.2l10.3-38.2c0.2-0.8,0.3-1.6,0.3-2.4c0-5-4.1-9-9-9h-0.8c-4.1,0-7.7,2.7-8.7,6.7
			l-6.9,25.5v-42.1h-52.1v5h47.1v54.5h-5.1c-2.7,0-5.2,0.9-7.4,2.5h-24.7v5h19.5l-5,5h-14.5v5h9.6l-4.1,4.1
			c-1.5,1.5-2.3,3.4-2.3,5.5c0,4.3,3.5,7.7,7.7,7.7c0.8,0,1.5-0.1,2.2-0.4c0,0.1,0,0.2,0,0.4c0,2.7,2.2,5,5,5H670.9z M690,633.9
			h-9.3l10.5-38.7l8.5,2.8L690,633.9z M671,618.7c1.4-1.4,3.3-2.2,5.3-2.2h4l-2,7.5c-3.1,0.1-6.1,1.4-8.3,3.6L657,640.5
			c-0.5,0.5-1.2,0.8-2,0.8c-1.5,0-2.8-1.2-2.8-2.8c0-0.7,0.3-1.4,0.8-2L671,618.7z M673.4,631.1c0.9-0.9,2.1-1.6,3.4-1.9l-1.3,4.7
			h-4.9L673.4,631.1z M706.7,572.1l-3,11.2l-8.5-2.8L698,570c0.5-1.8,2.1-3,3.9-3h0.8c2.3,0,4.1,1.8,4.1,4.1
			C706.8,571.4,706.8,571.8,706.7,572.1z M693.8,585.3l8.5,2.8l-1.4,5.1l-8.5-2.8L693.8,585.3z M696.9,628.9c1.4,0,2.5,1.1,2.5,2.5
			s-1.1,2.5-2.5,2.5h-1.8l1.3-5H696.9z"/>
		<path class="st0" d="M666.5,562H602v24.8h64.5V562z M661.5,581.8H607V567h54.5V581.8z"/>
		<path class="st0" d="M611.9,571.9h5v5h-5V571.9z"/>
		<path class="st0" d="M621.8,571.9h5v5h-5V571.9z"/>
		<path class="st0" d="M631.8,571.9h5v5h-5V571.9z"/>
		<path class="st0" d="M641.7,571.9h5v5h-5V571.9z"/>
		<path class="st0" d="M651.6,571.9h5v5h-5V571.9z"/>
		<path class="st0" d="M631.8,616.6h-5v9.9H607v-19.8h14.9v-5H602v29.8h29.8V616.6z"/>
		<path class="st0" d="M639.9,592.5l-23,23l-3.2-3.2l-3.5,3.5l6.7,6.7l26.5-26.5L639.9,592.5z"/>
		<path class="st0" d="M626.8,668.6H607v-19.8h14.9v-5H602v29.8h29.8v-14.9h-5V668.6z"/>
		<path class="st0" d="M613.7,654.5l-3.5,3.5l6.7,6.7l26.5-26.5l-3.5-3.5l-23,23L613.7,654.5z"/>
		<path class="st0" d="M671.4,673.6h5v5h-5V673.6z"/>
		<path class="st0" d="M639.2,673.6h27.3v5h-27.3V673.6z"/>
		<path class="st0" d="M644.2,604.2h32.2v5h-32.2V604.2z"/>
	</g>
	<g id="surface1_10_">
		<path class="st0" d="M934.1,561.3v-14.9c0-7.4-6-13.3-13.3-13.3H814c-7.4,0-13.3,6-13.3,13.3v58.7c0,6.8,5.2,12.5,12,13.2l10,26
			c2.7,6.9,10.4,10.3,17.3,7.7l62.7-24.1c-4.3,11.3-3.1,24,3.3,34.3l1.5,2.5v25.9c0,1.5,1.2,2.7,2.7,2.7h48c1.5,0,2.7-1.2,2.7-2.7
			v-88.1c0-9.2-3.7-18.1-10.2-24.6L934.1,561.3z M934.1,577.2l8.1,21c1.6,4.1-0.5,8.8-4.6,10.3l-4.6,1.8c0.7-1.7,1.1-3.5,1.1-5.3
			L934.1,577.2L934.1,577.2z M806,605.1v-58.7c0-4.4,3.6-8,8-8h106.8c4.4,0,8,3.6,8,8v17h0l0,0.1v41.7c0,0.5-0.1,0.9-0.2,1.4
			L904.1,582c-5.5-5.4-14.3-5.4-19.8-0.1c-5.5,5.3-5.9,14.1-0.7,19.8l10.4,11.4h-80C809.6,613.1,806,609.5,806,605.1z M840.2,618.4
			l-19,7.3l-2.8-7.3H840.2z M838,647c-4.1,1.6-8.8-0.5-10.4-4.6l-4.5-11.7l31.9-12.3v0h43.9l3.5,3.8L838,647z M955.4,687.8h-42.7
			v-21.4h42.7V687.8z M955.4,661.1h-43.9l-1.2-1.8c-6.5-10.4-6.8-23.5-0.7-34.2c0.6-1,0.4-2.3-0.4-3.1l-21.9-23.9
			c-3.3-3.6-3.1-9.1,0.4-12.4c3.5-3.3,9-3.3,12.4,0.1l42.5,42.5l3.8-3.8l-9.9-9.9l2.7-1.1c6.9-2.7,10.3-10.4,7.7-17.2l-9-23.5
			l8.6,8.7c5.5,5.5,8.6,13,8.7,20.8L955.4,661.1L955.4,661.1z"/>
		<path class="st0" d="M831.1,570.4c3.8,0,6.9-3.1,6.9-6.9v-12.8c0-3.8-3.1-6.9-6.9-6.9h-12.8c-3.8,0-6.9,3.1-6.9,6.9v12.8
			c0,3.8,3.1,6.9,6.9,6.9H831.1z M816.7,563.4v-3.7h5.3v-5.3h-5.3v-3.7c0-0.9,0.7-1.6,1.6-1.6h12.8c0.9,0,1.6,0.7,1.6,1.6v3.7h-5.3
			v5.3h5.3v3.7c0,0.9-0.7,1.6-1.6,1.6h-12.8C817.4,565,816.7,564.3,816.7,563.4z"/>
		<path class="st0" d="M814,578.4h10.7v5.3H814C814,583.7,814,578.4,814,578.4z"/>
		<path class="st0" d="M814,594.4h10.7v5.3H814C814,599.7,814,594.4,814,594.4z"/>
		<path class="st0" d="M862,594.4h10.7v5.3H862V594.4z"/>
		<path class="st0" d="M830,578.4h10.7v5.3H830V578.4z"/>
		<path class="st0" d="M846,578.4h10.7v5.3H846V578.4z"/>
		<path class="st0" d="M862,578.4h10.7v5.3H862V578.4z"/>
		<path class="st0" d="M912.7,546.4h5.3v8h-5.3V546.4z"/>
		<path class="st0" d="M902.1,546.4h5.3v8h-5.3V546.4z"/>
		<path class="st0" d="M891.4,546.4h5.3v8h-5.3V546.4z"/>
		<path class="st0" d="M880.7,546.4h5.3v8h-5.3V546.4z"/>
		<path class="st0" d="M918.1,671.8h5.3v5.3h-5.3V671.8z"/>
	</g>
	<g>
		<path class="st0" d="M1154.9,616.6c1.5,0,2.9,0.4,4.1,1.2l17.3,11.5c2,1.4,4.4,2.1,6.9,2.1h16.2v-5h-16.2c-1.5,0-2.9-0.4-4.1-1.2
			l-7-4.7v-83.3h-94.2v14.9h-32.2v138.8h94.2v-14.9h32.2v-20.9c0.2,0,0.3,0,0.5-0.1l11.5-2.9c2.6-0.6,5.2-1,7.8-1h7.4v-5h-7.4
			c-3,0-6.1,0.4-9,1.1l-11.5,2.9c-5.9,1.5-12.2,1.2-18-0.7l-4.2-1.4c-3.8-1.3-7.8-1.9-11.8-1.9h-21.6c0-4.1,3.3-7.4,7.4-7.4h27.3
			c4.1,0,7.4-3.3,7.4-7.4c0-3.8-2.9-6.9-6.6-7.4l2-7.5H1154.9z M1151.8,654.3c3.8,1.3,7.8,1.9,11.8,1.9c1.2,0,2.4-0.1,3.6-0.2v15.1
			h-27.3V663c0.9-1,1.5-2.2,1.9-3.5l2-7.5c1.3,0.3,2.5,0.6,3.8,1L1151.8,654.3z M1138.8,651.3l-1.8,6.8c-0.5,1.8-2.1,3-3.9,3h-0.8
			c-2.3,0-4.1-1.8-4.1-4.1c0-0.4,0-0.7,0.1-1.1l1.3-4.8h7.8C1137.9,651.3,1138.3,651.3,1138.8,651.3z M1124.4,651.3l-0.9,3.5
			c-0.2,0.8-0.3,1.6-0.3,2.4c0,3.4,1.9,6.3,4.6,7.8l-0.8,3.1l4.8,1.2l0.8-3.1h0.5c0.6,0,1.3-0.1,1.9-0.2V686h-84.3V557h32.2v-14.9
			h84.3v75.1l-5.4-3.6c-2-1.4-4.4-2.1-6.9-2.1h-0.2l10.3-38.2c0.2-0.8,0.3-1.6,0.3-2.4c0-5-4.1-9-9-9h-0.8c-4.1,0-7.7,2.7-8.7,6.7
			l-6.9,25.5v-42.1h-52.1v5h47.1v54.5h-5.1c-2.7,0-5.2,0.9-7.4,2.5h-24.7v5h19.5l-5,5h-14.5v5h9.6l-4.1,4.1
			c-1.5,1.5-2.3,3.4-2.3,5.5c0,4.3,3.5,7.7,7.7,7.7c0.8,0,1.5-0.1,2.2-0.4c0,0.1,0,0.2,0,0.4c0,2.7,2.2,5,5,5H1124.4z M1143.5,633.9
			h-9.3l10.5-38.7l8.5,2.8L1143.5,633.9z M1124.5,618.7c1.4-1.4,3.3-2.2,5.3-2.2h4l-2,7.5c-3.1,0.1-6.1,1.4-8.3,3.6l-12.9,12.9
			c-0.5,0.5-1.2,0.8-2,0.8c-1.5,0-2.8-1.2-2.8-2.8c0-0.7,0.3-1.4,0.8-2L1124.5,618.7z M1127,631.1c0.9-0.9,2.1-1.6,3.4-1.9l-1.3,4.7
			h-4.9L1127,631.1z M1160.2,572.1l-3,11.2l-8.5-2.8l2.8-10.5c0.5-1.8,2.1-3,3.9-3h0.8c2.3,0,4.1,1.8,4.1,4.1
			C1160.4,571.4,1160.3,571.8,1160.2,572.1z M1147.4,585.3l8.5,2.8l-1.4,5.1l-8.5-2.8L1147.4,585.3z M1150.5,628.9
			c1.4,0,2.5,1.1,2.5,2.5s-1.1,2.5-2.5,2.5h-1.8l1.3-5H1150.5z"/>
		<path class="st0" d="M1120,562h-64.5v24.8h64.5V562z M1115.1,581.8h-54.5V567h54.5V581.8z"/>
		<path class="st0" d="M1065.5,571.9h5v5h-5V571.9z"/>
		<path class="st0" d="M1075.4,571.9h5v5h-5V571.9z"/>
		<path class="st0" d="M1085.3,571.9h5v5h-5V571.9z"/>
		<path class="st0" d="M1095.2,571.9h5v5h-5V571.9z"/>
		<path class="st0" d="M1105.1,571.9h5v5h-5V571.9z"/>
		<path class="st0" d="M1085.3,616.6h-5v9.9h-19.8v-19.8h14.9v-5h-19.8v29.8h29.8V616.6z"/>
		<path class="st0" d="M1093.5,592.5l-23,23l-3.2-3.2l-3.5,3.5l6.7,6.7L1097,596L1093.5,592.5z"/>
		<path class="st0" d="M1080.4,668.6h-19.8v-19.8h14.9v-5h-19.8v29.8h29.8v-14.9h-5V668.6z"/>
		<path class="st0" d="M1067.2,654.5l-3.5,3.5l6.7,6.7l26.5-26.5l-3.5-3.5l-23,23L1067.2,654.5z"/>
		<path class="st0" d="M1125,673.6h5v5h-5V673.6z"/>
		<path class="st0" d="M1092.7,673.6h27.3v5h-27.3V673.6z"/>
		<path class="st0" d="M1097.7,604.2h32.2v5h-32.2V604.2z"/>
	</g>
	<g id="surface1_9_">
		<path class="st0" d="M1387.6,561.3v-14.9c0-7.4-6-13.3-13.3-13.3h-106.8c-7.4,0-13.3,6-13.3,13.3v58.7c0,6.8,5.2,12.5,12,13.2
			l10,26c2.7,6.9,10.4,10.3,17.3,7.7l62.7-24.1c-4.3,11.3-3.1,24,3.3,34.3l1.5,2.5v25.9c0,1.5,1.2,2.7,2.7,2.7h48
			c1.5,0,2.7-1.2,2.7-2.7v-88.1c0-9.2-3.7-18.1-10.2-24.6L1387.6,561.3z M1387.6,577.2l8.1,21c1.6,4.1-0.5,8.8-4.6,10.3l-4.6,1.8
			c0.7-1.7,1.1-3.5,1.1-5.3L1387.6,577.2L1387.6,577.2z M1259.5,605.1v-58.7c0-4.4,3.6-8,8-8h106.8c4.4,0,8,3.6,8,8v17h0l0,0.1v41.7
			c0,0.5-0.1,0.9-0.2,1.4l-24.5-24.4c-5.5-5.4-14.3-5.4-19.8-0.1c-5.5,5.3-5.9,14.1-0.7,19.8l10.4,11.4h-80
			C1263.1,613.1,1259.5,609.5,1259.5,605.1z M1293.7,618.4l-19,7.3l-2.8-7.3H1293.7z M1291.5,647c-4.1,1.6-8.8-0.5-10.4-4.6
			l-4.5-11.7l31.9-12.3v0h43.9l3.5,3.8L1291.5,647z M1409,687.8h-42.7v-21.4h42.7V687.8z M1409,661.1h-43.9l-1.2-1.8
			c-6.5-10.4-6.8-23.5-0.7-34.2c0.6-1,0.4-2.3-0.4-3.1l-21.9-23.9c-3.3-3.6-3.1-9.1,0.4-12.4c3.5-3.3,9-3.3,12.4,0.1l42.5,42.5
			l3.8-3.8l-9.9-9.9l2.7-1.1c6.9-2.7,10.3-10.4,7.7-17.2l-9-23.5l8.6,8.7c5.5,5.5,8.6,13,8.7,20.8L1409,661.1L1409,661.1z"/>
		<path class="st0" d="M1284.6,570.4c3.8,0,6.9-3.1,6.9-6.9v-12.8c0-3.8-3.1-6.9-6.9-6.9h-12.8c-3.8,0-6.9,3.1-6.9,6.9v12.8
			c0,3.8,3.1,6.9,6.9,6.9H1284.6z M1270.2,563.4v-3.7h5.3v-5.3h-5.3v-3.7c0-0.9,0.7-1.6,1.6-1.6h12.8c0.9,0,1.6,0.7,1.6,1.6v3.7
			h-5.3v5.3h5.3v3.7c0,0.9-0.7,1.6-1.6,1.6h-12.8C1270.9,565,1270.2,564.3,1270.2,563.4z"/>
		<path class="st0" d="M1267.5,578.4h10.7v5.3h-10.7C1267.5,583.7,1267.5,578.4,1267.5,578.4z"/>
		<path class="st0" d="M1267.5,594.4h10.7v5.3h-10.7C1267.5,599.7,1267.5,594.4,1267.5,594.4z"/>
		<path class="st0" d="M1315.6,594.4h10.7v5.3h-10.7V594.4z"/>
		<path class="st0" d="M1283.5,578.4h10.7v5.3h-10.7V578.4z"/>
		<path class="st0" d="M1299.6,578.4h10.7v5.3h-10.7V578.4z"/>
		<path class="st0" d="M1315.6,578.4h10.7v5.3h-10.7V578.4z"/>
		<path class="st0" d="M1366.3,546.4h5.3v8h-5.3V546.4z"/>
		<path class="st0" d="M1355.6,546.4h5.3v8h-5.3V546.4z"/>
		<path class="st0" d="M1344.9,546.4h5.3v8h-5.3V546.4z"/>
		<path class="st0" d="M1334.3,546.4h5.3v8h-5.3V546.4z"/>
		<path class="st0" d="M1371.6,671.8h5.3v5.3h-5.3V671.8z"/>
	</g>
	<g>
		<path class="st0" d="M1608.4,616.6c1.5,0,2.9,0.4,4.1,1.2l17.3,11.5c2,1.4,4.4,2.1,6.9,2.1h16.2v-5h-16.2c-1.5,0-2.9-0.4-4.1-1.2
			l-7-4.7v-83.3h-94.2v14.9h-32.2v138.8h94.2v-14.9h32.2v-20.9c0.2,0,0.3,0,0.5-0.1l11.5-2.9c2.6-0.6,5.2-1,7.8-1h7.4v-5h-7.4
			c-3,0-6.1,0.4-9,1.1l-11.5,2.9c-5.9,1.5-12.2,1.2-18-0.7l-4.2-1.4c-3.8-1.3-7.8-1.9-11.8-1.9h-21.6c0-4.1,3.3-7.4,7.4-7.4h27.3
			c4.1,0,7.4-3.3,7.4-7.4c0-3.8-2.9-6.9-6.6-7.4l2-7.5H1608.4z M1605.3,654.3c3.8,1.3,7.8,1.9,11.8,1.9c1.2,0,2.4-0.1,3.6-0.2v15.1
			h-27.3V663c0.9-1,1.5-2.2,1.9-3.5l2-7.5c1.3,0.3,2.5,0.6,3.8,1L1605.3,654.3z M1592.4,651.3l-1.8,6.8c-0.5,1.8-2.1,3-3.9,3h-0.8
			c-2.3,0-4.1-1.8-4.1-4.1c0-0.4,0-0.7,0.1-1.1l1.3-4.8h7.8C1591.4,651.3,1591.9,651.3,1592.4,651.3z M1578,651.3l-0.9,3.5
			c-0.2,0.8-0.3,1.6-0.3,2.4c0,3.4,1.9,6.3,4.6,7.8l-0.8,3.1l4.8,1.2l0.8-3.1h0.5c0.6,0,1.3-0.1,1.9-0.2V686h-84.3V557h32.2v-14.9
			h84.3v75.1l-5.4-3.6c-2-1.4-4.4-2.1-6.9-2.1h-0.2l10.3-38.2c0.2-0.8,0.3-1.6,0.3-2.4c0-5-4.1-9-9-9h-0.8c-4.1,0-7.7,2.7-8.7,6.7
			l-6.9,25.5v-42.1h-52.1v5h47.1v54.5h-5.1c-2.7,0-5.2,0.9-7.4,2.5h-24.7v5h19.5l-5,5h-14.5v5h9.6l-4.1,4.1
			c-1.5,1.5-2.3,3.4-2.3,5.5c0,4.3,3.5,7.7,7.7,7.7c0.8,0,1.5-0.1,2.2-0.4c0,0.1,0,0.2,0,0.4c0,2.7,2.2,5,5,5H1578z M1597.1,633.9
			h-9.3l10.5-38.7l8.5,2.8L1597.1,633.9z M1578.1,618.7c1.4-1.4,3.3-2.2,5.3-2.2h4l-2,7.5c-3.1,0.1-6.1,1.4-8.3,3.6l-12.9,12.9
			c-0.5,0.5-1.2,0.8-2,0.8c-1.5,0-2.8-1.2-2.8-2.8c0-0.7,0.3-1.4,0.8-2L1578.1,618.7z M1580.5,631.1c0.9-0.9,2.1-1.6,3.4-1.9
			l-1.3,4.7h-4.9L1580.5,631.1z M1613.8,572.1l-3,11.2l-8.5-2.8l2.8-10.5c0.5-1.8,2.1-3,3.9-3h0.8c2.3,0,4.1,1.8,4.1,4.1
			C1613.9,571.4,1613.9,571.8,1613.8,572.1z M1600.9,585.3l8.5,2.8l-1.4,5.1l-8.5-2.8L1600.9,585.3z M1604,628.9
			c1.4,0,2.5,1.1,2.5,2.5s-1.1,2.5-2.5,2.5h-1.8l1.3-5H1604z"/>
		<path class="st0" d="M1573.6,562h-64.5v24.8h64.5V562z M1568.6,581.8h-54.5V567h54.5V581.8z"/>
		<path class="st0" d="M1519,571.9h5v5h-5V571.9z"/>
		<path class="st0" d="M1528.9,571.9h5v5h-5V571.9z"/>
		<path class="st0" d="M1538.9,571.9h5v5h-5V571.9z"/>
		<path class="st0" d="M1548.8,571.9h5v5h-5V571.9z"/>
		<path class="st0" d="M1558.7,571.9h5v5h-5V571.9z"/>
		<path class="st0" d="M1538.9,616.6h-5v9.9h-19.8v-19.8h14.9v-5h-19.8v29.8h29.8V616.6z"/>
		<path class="st0" d="M1547,592.5l-23,23l-3.2-3.2l-3.5,3.5l6.7,6.7l26.5-26.5L1547,592.5z"/>
		<path class="st0" d="M1533.9,668.6h-19.8v-19.8h14.9v-5h-19.8v29.8h29.8v-14.9h-5V668.6z"/>
		<path class="st0" d="M1520.8,654.5l-3.5,3.5l6.7,6.7l26.5-26.5l-3.5-3.5l-23,23L1520.8,654.5z"/>
		<path class="st0" d="M1578.5,673.6h5v5h-5V673.6z"/>
		<path class="st0" d="M1546.3,673.6h27.3v5h-27.3V673.6z"/>
		<path class="st0" d="M1551.3,604.2h32.2v5h-32.2V604.2z"/>
	</g>
	<g id="surface1_8_">
		<path class="st0" d="M1841.2,561.3v-14.9c0-7.4-6-13.3-13.3-13.3h-106.8c-7.4,0-13.3,6-13.3,13.3v58.7c0,6.8,5.2,12.5,12,13.2
			l10,26c2.7,6.9,10.4,10.3,17.3,7.7l62.7-24.1c-4.3,11.3-3.1,24,3.3,34.3l1.5,2.5v25.9c0,1.5,1.2,2.7,2.7,2.7h48
			c1.5,0,2.7-1.2,2.7-2.7v-88.1c0-9.2-3.7-18.1-10.2-24.6L1841.2,561.3z M1841.2,577.2l8.1,21c1.6,4.1-0.5,8.8-4.6,10.3l-4.6,1.8
			c0.7-1.7,1.1-3.5,1.1-5.3L1841.2,577.2L1841.2,577.2z M1713.1,605.1v-58.7c0-4.4,3.6-8,8-8h106.8c4.4,0,8,3.6,8,8v17h0l0,0.1v41.7
			c0,0.5-0.1,0.9-0.2,1.4l-24.5-24.4c-5.5-5.4-14.3-5.4-19.8-0.1c-5.5,5.3-5.9,14.1-0.7,19.8l10.4,11.4h-80
			C1716.7,613.1,1713.1,609.5,1713.1,605.1z M1747.3,618.4l-19,7.3l-2.8-7.3H1747.3z M1745.1,647c-4.1,1.6-8.8-0.5-10.3-4.6
			l-4.5-11.7l31.9-12.3v0h43.9l3.5,3.8L1745.1,647z M1862.5,687.8h-42.7v-21.4h42.7V687.8z M1862.5,661.1h-43.9l-1.2-1.8
			c-6.5-10.4-6.8-23.5-0.7-34.2c0.6-1,0.4-2.3-0.4-3.1l-21.9-23.9c-3.3-3.6-3.1-9.1,0.4-12.4c3.5-3.3,9-3.3,12.4,0.1l42.5,42.5
			l3.8-3.8l-9.9-9.9l2.7-1.1c6.9-2.7,10.3-10.4,7.7-17.2l-9-23.5l8.6,8.7c5.5,5.5,8.6,13,8.7,20.8L1862.5,661.1L1862.5,661.1z"/>
		<path class="st0" d="M1738.2,570.4c3.8,0,6.9-3.1,6.9-6.9v-12.8c0-3.8-3.1-6.9-6.9-6.9h-12.8c-3.8,0-6.9,3.1-6.9,6.9v12.8
			c0,3.8,3.1,6.9,6.9,6.9H1738.2z M1723.7,563.4v-3.7h5.3v-5.3h-5.3v-3.7c0-0.9,0.7-1.6,1.6-1.6h12.8c0.9,0,1.6,0.7,1.6,1.6v3.7
			h-5.3v5.3h5.3v3.7c0,0.9-0.7,1.6-1.6,1.6h-12.8C1724.5,565,1723.7,564.3,1723.7,563.4z"/>
		<path class="st0" d="M1721.1,578.4h10.7v5.3h-10.7C1721.1,583.7,1721.1,578.4,1721.1,578.4z"/>
		<path class="st0" d="M1721.1,594.4h10.7v5.3h-10.7C1721.1,599.7,1721.1,594.4,1721.1,594.4z"/>
		<path class="st0" d="M1769.1,594.4h10.7v5.3h-10.7V594.4z"/>
		<path class="st0" d="M1737.1,578.4h10.7v5.3h-10.7V578.4z"/>
		<path class="st0" d="M1753.1,578.4h10.7v5.3h-10.7V578.4z"/>
		<path class="st0" d="M1769.1,578.4h10.7v5.3h-10.7V578.4z"/>
		<path class="st0" d="M1819.8,546.4h5.3v8h-5.3V546.4z"/>
		<path class="st0" d="M1809.2,546.4h5.3v8h-5.3V546.4z"/>
		<path class="st0" d="M1798.5,546.4h5.3v8h-5.3V546.4z"/>
		<path class="st0" d="M1787.8,546.4h5.3v8h-5.3V546.4z"/>
		<path class="st0" d="M1825.2,671.8h5.3v5.3h-5.3V671.8z"/>
	</g>
	<g>
		<path class="st0" d="M247.8,616.6c1.5,0,2.9,0.4,4.1,1.2l17.3,11.5c2,1.4,4.4,2.1,6.9,2.1h16.2v-5h-16.2c-1.5,0-2.9-0.4-4.1-1.2
			l-7-4.7v-83.3h-94.2v14.9h-32.2v138.8h94.2v-14.9H265v-20.9c0.2,0,0.3,0,0.5-0.1l11.5-2.9c2.6-0.6,5.2-1,7.8-1h7.4v-5h-7.4
			c-3,0-6.1,0.4-9,1.1l-11.5,2.9c-5.9,1.5-12.2,1.2-18-0.7l-4.2-1.4c-3.8-1.3-7.8-1.9-11.8-1.9h-21.6c0-4.1,3.3-7.4,7.4-7.4h27.3
			c4.1,0,7.4-3.3,7.4-7.4c0-3.8-2.9-6.9-6.6-7.4l2-7.5H247.8z M244.7,654.3c3.8,1.3,7.8,1.9,11.8,1.9c1.2,0,2.4-0.1,3.6-0.2v15.1
			h-27.3V663c0.9-1,1.5-2.2,1.9-3.5l2-7.5c1.3,0.3,2.5,0.6,3.8,1L244.7,654.3z M231.7,651.3l-1.8,6.8c-0.5,1.8-2.1,3-3.9,3h-0.8
			c-2.3,0-4.1-1.8-4.1-4.1c0-0.4,0-0.7,0.1-1.1l1.3-4.8h7.8C230.8,651.3,231.3,651.3,231.7,651.3z M217.3,651.3l-0.9,3.5
			c-0.2,0.8-0.3,1.6-0.3,2.4c0,3.4,1.9,6.3,4.6,7.8l-0.8,3.1l4.8,1.2l0.8-3.1h0.5c0.6,0,1.3-0.1,1.9-0.2V686h-84.3V557h32.2v-14.9
			H260v75.1l-5.4-3.6c-2-1.4-4.4-2.1-6.9-2.1h-0.2l10.3-38.2c0.2-0.8,0.3-1.6,0.3-2.4c0-5-4.1-9-9-9h-0.8c-4.1,0-7.7,2.7-8.7,6.7
			l-6.9,25.5v-42.1h-52.1v5h47.1v54.5h-5.1c-2.7,0-5.2,0.9-7.4,2.5h-24.7v5h19.5l-5,5h-14.5v5h9.6l-4.1,4.1
			c-1.5,1.5-2.3,3.4-2.3,5.5c0,4.3,3.5,7.7,7.7,7.7c0.8,0,1.5-0.1,2.2-0.4c0,0.1,0,0.2,0,0.4c0,2.7,2.2,5,5,5H217.3z M236.4,633.9
			h-9.3l10.5-38.7l8.5,2.8L236.4,633.9z M217.4,618.7c1.4-1.4,3.3-2.2,5.3-2.2h4l-2,7.5c-3.1,0.1-6.1,1.4-8.3,3.6l-12.9,12.9
			c-0.5,0.5-1.2,0.8-2,0.8c-1.5,0-2.8-1.2-2.8-2.8c0-0.7,0.3-1.4,0.8-2L217.4,618.7z M219.9,631.1c0.9-0.9,2.1-1.6,3.4-1.9l-1.3,4.7
			h-4.9L219.9,631.1z M253.1,572.1l-3,11.2l-8.5-2.8l2.8-10.5c0.5-1.8,2.1-3,3.9-3h0.8c2.3,0,4.1,1.8,4.1,4.1
			C253.3,571.4,253.2,571.8,253.1,572.1z M240.3,585.3l8.5,2.8l-1.4,5.1l-8.5-2.8L240.3,585.3z M243.4,628.9c1.4,0,2.5,1.1,2.5,2.5
			s-1.1,2.5-2.5,2.5h-1.8l1.3-5H243.4z"/>
		<path class="st0" d="M212.9,562h-64.5v24.8h64.5V562z M208,581.8h-54.5V567H208V581.8z"/>
		<path class="st0" d="M158.4,571.9h5v5h-5V571.9z"/>
		<path class="st0" d="M168.3,571.9h5v5h-5V571.9z"/>
		<path class="st0" d="M178.2,571.9h5v5h-5V571.9z"/>
		<path class="st0" d="M188.1,571.9h5v5h-5V571.9z"/>
		<path class="st0" d="M198.1,571.9h5v5h-5V571.9z"/>
		<path class="st0" d="M178.2,616.6h-5v9.9h-19.8v-19.8h14.9v-5h-19.8v29.8h29.8V616.6z"/>
		<path class="st0" d="M186.4,592.5l-23,23l-3.2-3.2l-3.5,3.5l6.7,6.7l26.5-26.5L186.4,592.5z"/>
		<path class="st0" d="M173.3,668.6h-19.8v-19.8h14.9v-5h-19.8v29.8h29.8v-14.9h-5V668.6z"/>
		<path class="st0" d="M160.1,654.5l-3.5,3.5l6.7,6.7l26.5-26.5l-3.5-3.5l-23,23L160.1,654.5z"/>
		<path class="st0" d="M217.9,673.6h5v5h-5V673.6z"/>
		<path class="st0" d="M185.7,673.6h27.3v5h-27.3V673.6z"/>
		<path class="st0" d="M190.6,604.2h32.2v5h-32.2V604.2z"/>
	</g>
</g>
</svg>
