<?xml version="1.0" encoding="utf-8"?>
<!-- Generator: Adobe Illustrator 23.1.1, SVG Export Plug-In . SVG Version: 6.00 Build 0)  -->
<svg version="1.1" id="Layer_1" xmlns="http://www.w3.org/2000/svg" xmlns:xlink="http://www.w3.org/1999/xlink" x="0px" y="0px"
	 viewBox="0 0 2000 1000" style="enable-background:new 0 0 2000 1000;" xml:space="preserve">
<style type="text/css">
	.st0{fill:#FFFFFF;stroke:#000000;stroke-width:7;stroke-miterlimit:10;}
</style>
<g>
	<path class="st0" d="M162.1,169.5H98.8c-29.3,0-53.1-23.8-53.1-53.1V53.1C45.7,23.8,69.5,0,98.8,0h63.3c29.3,0,53.1,23.8,53.1,53.1
		v63.3C215.2,145.7,191.4,169.5,162.1,169.5z"/>
	<path class="st0" d="M413.8,169.5h-63.3c-29.3,0-53.1-23.8-53.1-53.1V53.1c0-29.3,23.8-53.1,53.1-53.1h63.3
		c29.3,0,53.1,23.8,53.1,53.1v63.3C466.9,145.7,443.1,169.5,413.8,169.5z"/>
	<path class="st0" d="M665.5,169.5h-63.3c-29.3,0-53.1-23.8-53.1-53.1V53.1c0-29.3,23.8-53.1,53.1-53.1h63.3
		c29.3,0,53.1,23.8,53.1,53.1v63.3C718.6,145.7,694.8,169.5,665.5,169.5z"/>
	<path class="st0" d="M917.2,169.5h-63.3c-29.3,0-53.1-23.8-53.1-53.1V53.1c0-29.3,23.8-53.1,53.1-53.1h63.3
		c29.3,0,53.1,23.8,53.1,53.1v63.3C970.3,145.7,946.5,169.5,917.2,169.5z"/>
	<path class="st0" d="M1168.9,169.5h-63.3c-29.3,0-53.1-23.8-53.1-53.1V53.1c0-29.3,23.8-53.1,53.1-53.1h63.3
		c29.3,0,53.1,23.8,53.1,53.1v63.3C1222,145.7,1198.2,169.5,1168.9,169.5z"/>
	<path class="st0" d="M1420.6,169.5h-63.3c-29.3,0-53.1-23.8-53.1-53.1V53.1c0-29.3,23.8-53.1,53.1-53.1h63.3
		c29.3,0,53.1,23.8,53.1,53.1v63.3C1473.7,145.7,1449.9,169.5,1420.6,169.5z"/>
	<path class="st0" d="M1672.3,169.5H1609c-29.3,0-53.1-23.8-53.1-53.1V53.1c0-29.3,23.8-53.1,53.1-53.1h63.3
		c29.3,0,53.1,23.8,53.1,53.1v63.3C1725.4,145.7,1701.6,169.5,1672.3,169.5z"/>
	<path class="st0" d="M1924,169.5h-63.3c-29.3,0-53.1-23.8-53.1-53.1V53.1c0-29.3,23.8-53.1,53.1-53.1h63.3
		c29.3,0,53.1,23.8,53.1,53.1v63.3C1977.1,145.7,1953.3,169.5,1924,169.5z"/>
</g>
<g>
	<path class="st0" d="M162.1,446.3H98.8c-29.3,0-53.1-23.8-53.1-53.1v-63.3c0-29.3,23.8-53.1,53.1-53.1h63.3
		c29.3,0,53.1,23.8,53.1,53.1v63.3C215.2,422.6,191.4,446.3,162.1,446.3z"/>
	<path class="st0" d="M413.8,446.3h-63.3c-29.3,0-53.1-23.8-53.1-53.1v-63.3c0-29.3,23.8-53.1,53.1-53.1h63.3
		c29.3,0,53.1,23.8,53.1,53.1v63.3C466.9,422.6,443.1,446.3,413.8,446.3z"/>
	<path class="st0" d="M665.5,446.3h-63.3c-29.3,0-53.1-23.8-53.1-53.1v-63.3c0-29.3,23.8-53.1,53.1-53.1h63.3
		c29.3,0,53.1,23.8,53.1,53.1v63.3C718.6,422.6,694.8,446.3,665.5,446.3z"/>
	<path class="st0" d="M917.2,446.3h-63.3c-29.3,0-53.1-23.8-53.1-53.1v-63.3c0-29.3,23.8-53.1,53.1-53.1h63.3
		c29.3,0,53.1,23.8,53.1,53.1v63.3C970.3,422.6,946.5,446.3,917.2,446.3z"/>
	<path class="st0" d="M1168.9,446.3h-63.3c-29.3,0-53.1-23.8-53.1-53.1v-63.3c0-29.3,23.8-53.1,53.1-53.1h63.3
		c29.3,0,53.1,23.8,53.1,53.1v63.3C1222,422.6,1198.2,446.3,1168.9,446.3z"/>
	<path class="st0" d="M1420.6,446.3h-63.3c-29.3,0-53.1-23.8-53.1-53.1v-63.3c0-29.3,23.8-53.1,53.1-53.1h63.3
		c29.3,0,53.1,23.8,53.1,53.1v63.3C1473.7,422.6,1449.9,446.3,1420.6,446.3z"/>
	<path class="st0" d="M1672.3,446.3H1609c-29.3,0-53.1-23.8-53.1-53.1v-63.3c0-29.3,23.8-53.1,53.1-53.1h63.3
		c29.3,0,53.1,23.8,53.1,53.1v63.3C1725.4,422.6,1701.6,446.3,1672.3,446.3z"/>
	<path class="st0" d="M1924,446.3h-63.3c-29.3,0-53.1-23.8-53.1-53.1v-63.3c0-29.3,23.8-53.1,53.1-53.1h63.3
		c29.3,0,53.1,23.8,53.1,53.1v63.3C1977.1,422.6,1953.3,446.3,1924,446.3z"/>
</g>
<g>
	<path class="st0" d="M162.1,723.2H98.8c-29.3,0-53.1-23.8-53.1-53.1v-63.3c0-29.3,23.8-53.1,53.1-53.1h63.3
		c29.3,0,53.1,23.8,53.1,53.1v63.3C215.2,699.4,191.4,723.2,162.1,723.2z"/>
	<path class="st0" d="M413.8,723.2h-63.3c-29.3,0-53.1-23.8-53.1-53.1v-63.3c0-29.3,23.8-53.1,53.1-53.1h63.3
		c29.3,0,53.1,23.8,53.1,53.1v63.3C466.9,699.4,443.1,723.2,413.8,723.2z"/>
	<path class="st0" d="M665.5,723.2h-63.3c-29.3,0-53.1-23.8-53.1-53.1v-63.3c0-29.3,23.8-53.1,53.1-53.1h63.3
		c29.3,0,53.1,23.8,53.1,53.1v63.3C718.6,699.4,694.8,723.2,665.5,723.2z"/>
	<path class="st0" d="M917.2,723.2h-63.3c-29.3,0-53.1-23.8-53.1-53.1v-63.3c0-29.3,23.8-53.1,53.1-53.1h63.3
		c29.3,0,53.1,23.8,53.1,53.1v63.3C970.3,699.4,946.5,723.2,917.2,723.2z"/>
	<path class="st0" d="M1168.9,723.2h-63.3c-29.3,0-53.1-23.8-53.1-53.1v-63.3c0-29.3,23.8-53.1,53.1-53.1h63.3
		c29.3,0,53.1,23.8,53.1,53.1v63.3C1222,699.4,1198.2,723.2,1168.9,723.2z"/>
	<path class="st0" d="M1420.6,723.2h-63.3c-29.3,0-53.1-23.8-53.1-53.1v-63.3c0-29.3,23.8-53.1,53.1-53.1h63.3
		c29.3,0,53.1,23.8,53.1,53.1v63.3C1473.7,699.4,1449.9,723.2,1420.6,723.2z"/>
	<path class="st0" d="M1672.3,723.2H1609c-29.3,0-53.1-23.8-53.1-53.1v-63.3c0-29.3,23.8-53.1,53.1-53.1h63.3
		c29.3,0,53.1,23.8,53.1,53.1v63.3C1725.4,699.4,1701.6,723.2,1672.3,723.2z"/>
	<path class="st0" d="M1924,723.2h-63.3c-29.3,0-53.1-23.8-53.1-53.1v-63.3c0-29.3,23.8-53.1,53.1-53.1h63.3
		c29.3,0,53.1,23.8,53.1,53.1v63.3C1977.1,699.4,1953.3,723.2,1924,723.2z"/>
</g>
<g>
	<path class="st0" d="M162.1,1000H98.8c-29.3,0-53.1-23.8-53.1-53.1v-63.3c0-29.3,23.8-53.1,53.1-53.1h63.3
		c29.3,0,53.1,23.8,53.1,53.1v63.3C215.2,976.2,191.4,1000,162.1,1000z"/>
	<path class="st0" d="M413.8,1000h-63.3c-29.3,0-53.1-23.8-53.1-53.1v-63.3c0-29.3,23.8-53.1,53.1-53.1h63.3
		c29.3,0,53.1,23.8,53.1,53.1v63.3C466.9,976.2,443.1,1000,413.8,1000z"/>
	<path class="st0" d="M665.5,1000h-63.3c-29.3,0-53.1-23.8-53.1-53.1v-63.3c0-29.3,23.8-53.1,53.1-53.1h63.3
		c29.3,0,53.1,23.8,53.1,53.1v63.3C718.6,976.2,694.8,1000,665.5,1000z"/>
	<path class="st0" d="M917.2,1000h-63.3c-29.3,0-53.1-23.8-53.1-53.1v-63.3c0-29.3,23.8-53.1,53.1-53.1h63.3
		c29.3,0,53.1,23.8,53.1,53.1v63.3C970.3,976.2,946.5,1000,917.2,1000z"/>
	<path class="st0" d="M1168.9,1000h-63.3c-29.3,0-53.1-23.8-53.1-53.1v-63.3c0-29.3,23.8-53.1,53.1-53.1h63.3
		c29.3,0,53.1,23.8,53.1,53.1v63.3C1222,976.2,1198.2,1000,1168.9,1000z"/>
	<path class="st0" d="M1420.6,1000h-63.3c-29.3,0-53.1-23.8-53.1-53.1v-63.3c0-29.3,23.8-53.1,53.1-53.1h63.3
		c29.3,0,53.1,23.8,53.1,53.1v63.3C1473.7,976.2,1449.9,1000,1420.6,1000z"/>
	<path class="st0" d="M1672.3,1000H1609c-29.3,0-53.1-23.8-53.1-53.1v-63.3c0-29.3,23.8-53.1,53.1-53.1h63.3
		c29.3,0,53.1,23.8,53.1,53.1v63.3C1725.4,976.2,1701.6,1000,1672.3,1000z"/>
	<path class="st0" d="M1924,1000h-63.3c-29.3,0-53.1-23.8-53.1-53.1v-63.3c0-29.3,23.8-53.1,53.1-53.1h63.3
		c29.3,0,53.1,23.8,53.1,53.1v63.3C1977.1,976.2,1953.3,1000,1924,1000z"/>
</g>
</svg>
