<svg xmlns="http://www.w3.org/2000/svg" height="512pt" version="1.1" viewBox="-22 0 512 512.001" width="512pt">
<g id="surface1">
<path d="M 316.953125 130.789062 C 315.589844 126.59375 311.710938 123.773438 307.300781 123.773438 L 259.277344 123.773438 L 244.4375 78.105469 C 243.078125 73.910156 239.199219 71.089844 234.789062 71.089844 C 230.375 71.089844 226.496094 73.910156 225.136719 78.105469 L 210.296875 123.773438 L 162.273438 123.773438 C 157.863281 123.773438 153.984375 126.59375 152.621094 130.789062 C 151.257812 134.980469 152.738281 139.542969 156.308594 142.136719 L 195.160156 170.363281 L 180.320312 216.035156 C 178.957031 220.230469 180.4375 224.789062 184.007812 227.382812 C 187.574219 229.972656 192.367188 229.976562 195.9375 227.382812 L 234.785156 199.152344 L 273.636719 227.382812 C 275.421875 228.675781 277.511719 229.324219 279.601562 229.324219 C 281.691406 229.324219 283.785156 228.675781 285.566406 227.382812 C 289.136719 224.789062 290.621094 220.230469 289.257812 216.03125 L 274.417969 170.363281 L 313.269531 142.136719 C 316.835938 139.542969 318.316406 134.980469 316.953125 130.789062 Z M 262.742188 160.300781 C 259.179688 162.894531 257.699219 167.453125 259.058594 171.644531 L 270.375 206.472656 L 240.75 184.949219 C 237.183594 182.355469 232.386719 182.355469 228.820312 184.949219 L 199.195312 206.472656 L 210.511719 171.644531 C 211.871094 167.453125 210.390625 162.894531 206.824219 160.296875 L 177.199219 138.777344 L 213.816406 138.777344 C 218.226562 138.777344 222.105469 135.957031 223.46875 131.761719 L 234.785156 96.9375 L 246.101562 131.761719 C 247.464844 135.957031 251.34375 138.773438 255.753906 138.773438 L 292.371094 138.773438 Z M 262.742188 160.300781 " style=" stroke:none;fill-rule:nonzero;fill:rgb(0%,0%,0%);fill-opacity:1;" />
<path d="M 464.128906 73.640625 C 459.210938 67.324219 451.800781 63.699219 443.796875 63.699219 L 369.433594 63.699219 L 369.429688 51.476562 L 372.695312 51.476562 C 381.679688 51.476562 388.992188 44.164062 388.992188 35.179688 L 388.992188 16.296875 C 388.992188 7.3125 381.679688 0 372.695312 0 L 96.878906 0 C 87.890625 0 80.582031 7.3125 80.582031 16.296875 L 80.582031 35.183594 C 80.582031 44.167969 87.890625 51.476562 96.878906 51.476562 L 100.140625 51.476562 L 100.140625 63.699219 L 25.777344 63.699219 C 17.769531 63.699219 10.359375 67.324219 5.441406 73.640625 C 0.527344 79.960938 -1.164062 88.03125 0.800781 95.792969 L 14.542969 150.019531 C 23.636719 185.90625 43.65625 217.179688 72.433594 240.457031 C 100.363281 263.046875 133.921875 275.996094 169.652344 278.019531 C 181.597656 289.902344 193.414062 299.398438 203.59375 306.648438 C 201.402344 328.128906 193.515625 365.070312 166.390625 400.117188 L 132.082031 400.117188 C 123.691406 400.117188 116.867188 406.941406 116.867188 415.332031 L 116.867188 496.785156 C 116.867188 505.175781 123.691406 512 132.082031 512 L 337.488281 512 C 345.878906 512 352.703125 505.175781 352.703125 496.785156 L 352.703125 415.328125 C 352.703125 406.941406 345.878906 400.117188 337.488281 400.117188 L 303.179688 400.117188 C 276.054688 365.066406 268.167969 328.125 265.976562 306.648438 C 276.15625 299.398438 287.972656 289.902344 299.917969 278.019531 C 335.648438 275.996094 369.207031 263.046875 397.136719 240.453125 C 425.914062 217.179688 445.933594 185.90625 455.027344 150.019531 L 468.769531 95.792969 C 470.734375 88.03125 469.046875 79.960938 464.128906 73.640625 Z M 369.4375 113.976562 L 369.4375 109.449219 L 418.109375 109.449219 L 410.679688 138.78125 C 401.457031 175.164062 376.269531 205.179688 342.925781 220.828125 C 360.527344 188.144531 369.4375 152.324219 369.4375 113.976562 Z M 126.644531 220.828125 C 93.304688 205.179688 68.113281 175.167969 58.894531 138.78125 L 51.460938 109.449219 L 100.132812 109.449219 L 100.132812 113.976562 C 100.132812 152.324219 109.042969 188.144531 126.644531 220.828125 Z M 81.867188 228.792969 C 55.628906 207.570312 37.378906 179.054688 29.085938 146.335938 L 15.34375 92.109375 C 14.519531 88.867188 15.226562 85.492188 17.28125 82.851562 C 19.335938 80.214844 22.429688 78.699219 25.777344 78.699219 L 100.136719 78.699219 L 100.136719 94.449219 L 41.824219 94.449219 C 39.511719 94.449219 37.324219 95.519531 35.902344 97.34375 C 34.484375 99.171875 33.984375 101.550781 34.550781 103.792969 L 44.351562 142.464844 C 56.378906 189.910156 92.640625 227.675781 139.332031 241.671875 C 140.175781 242.90625 141.03125 244.136719 141.902344 245.363281 C 145.898438 250.984375 150.035156 256.28125 154.234375 261.269531 C 127.769531 256.972656 103.046875 245.921875 81.867188 228.792969 Z M 337.488281 415.117188 C 337.605469 415.117188 337.703125 415.210938 337.703125 415.328125 L 337.703125 496.785156 C 337.703125 496.902344 337.605469 497 337.488281 497 L 132.082031 497 C 131.964844 497 131.871094 496.902344 131.871094 496.785156 L 131.871094 415.328125 C 131.871094 415.210938 131.964844 415.117188 132.082031 415.117188 Z M 284.628906 400.117188 L 184.941406 400.117188 C 206.429688 368.71875 214.601562 336.96875 217.644531 315.320312 C 223.113281 317.703125 228.945312 318.917969 234.785156 318.917969 C 240.625 318.917969 246.457031 317.699219 251.925781 315.320312 C 254.96875 336.96875 263.144531 368.71875 284.628906 400.117188 Z M 291.359375 265.355469 C 291.269531 265.445312 291.175781 265.535156 291.085938 265.632812 C 276.355469 280.585938 261.6875 291.683594 250.273438 299.242188 C 240.867188 305.46875 228.707031 305.46875 219.300781 299.242188 C 207.882812 291.683594 193.214844 280.585938 178.484375 265.632812 C 178.398438 265.535156 178.304688 265.449219 178.210938 265.355469 C 170.015625 257.007812 161.800781 247.472656 154.128906 236.675781 C 128.253906 200.265625 115.132812 158.984375 115.132812 113.976562 L 115.140625 51.476562 L 134.746094 51.476562 C 138.890625 51.476562 142.246094 48.117188 142.246094 43.976562 C 142.246094 39.835938 138.890625 36.476562 134.746094 36.476562 L 96.878906 36.476562 C 96.164062 36.476562 95.582031 35.894531 95.582031 35.179688 L 95.582031 16.296875 C 95.582031 15.582031 96.164062 15 96.878906 15 L 372.695312 15 C 373.410156 15 373.992188 15.582031 373.992188 16.296875 L 373.992188 35.183594 C 373.992188 35.894531 373.410156 36.476562 372.695312 36.476562 L 169.65625 36.476562 C 165.515625 36.476562 162.15625 39.835938 162.15625 43.976562 C 162.15625 48.121094 165.515625 51.476562 169.65625 51.476562 L 354.429688 51.476562 L 354.441406 113.976562 C 354.441406 158.988281 341.320312 200.269531 315.445312 236.675781 C 307.769531 247.472656 299.558594 257.007812 291.359375 265.355469 Z M 454.230469 92.109375 L 440.488281 146.335938 C 432.195312 179.054688 413.941406 207.570312 387.703125 228.792969 C 366.527344 245.921875 341.800781 256.972656 315.339844 261.269531 C 319.539062 256.28125 323.671875 250.988281 327.667969 245.363281 C 328.539062 244.140625 329.398438 242.910156 330.238281 241.675781 C 376.933594 227.675781 413.195312 189.910156 425.21875 142.464844 L 435.019531 103.792969 C 435.585938 101.550781 435.089844 99.171875 433.667969 97.34375 C 432.246094 95.519531 430.0625 94.449219 427.75 94.449219 L 369.4375 94.449219 L 369.433594 78.699219 L 443.796875 78.699219 C 447.140625 78.699219 450.234375 80.214844 452.292969 82.851562 C 454.34375 85.492188 455.050781 88.867188 454.230469 92.109375 Z M 454.230469 92.109375 " style=" stroke:none;fill-rule:nonzero;fill:rgb(0%,0%,0%);fill-opacity:1;" />
<path d="M 151.265625 443.921875 L 151.265625 468.195312 C 151.265625 473.382812 155.488281 477.601562 160.675781 477.601562 L 308.898438 477.601562 C 314.085938 477.601562 318.304688 473.382812 318.304688 468.195312 L 318.304688 443.921875 C 318.304688 438.734375 314.085938 434.515625 308.898438 434.515625 L 293.03125 434.515625 C 288.886719 434.515625 285.53125 437.871094 285.53125 442.015625 C 285.53125 446.15625 288.886719 449.515625 293.03125 449.515625 L 303.304688 449.515625 L 303.304688 462.601562 L 166.265625 462.601562 L 166.265625 449.515625 L 258.121094 449.515625 C 262.265625 449.515625 265.621094 446.15625 265.621094 442.015625 C 265.621094 437.871094 262.265625 434.515625 258.121094 434.515625 L 160.675781 434.515625 C 155.488281 434.515625 151.265625 438.734375 151.265625 443.921875 Z M 151.265625 443.921875 " style=" stroke:none;fill-rule:nonzero;fill:rgb(0%,0%,0%);fill-opacity:1;" />
</g>
</svg>