<?xml version="1.0" encoding="utf-8"?>
<!-- Generator: Adobe Illustrator 23.1.1, SVG Export Plug-In . SVG Version: 6.00 Build 0)  -->
<svg version="1.1" id="Layer_1" xmlns="http://www.w3.org/2000/svg" xmlns:xlink="http://www.w3.org/1999/xlink" x="0px" y="0px"
	 viewBox="0 0 937.5 937.5" style="enable-background:new 0 0 937.5 937.5;" xml:space="preserve">
<style type="text/css">
	.st0{fill:#FFFFFF;}
</style>
<g id="surface1">
	<path class="st0" d="M781.25,165.53V78.12C781.2,35,746.25,0.05,703.12,0h-625C35,0.05,0.05,35,0,78.12v343.75
		c0.12,39.9,30.37,73.27,70.06,77.32l58.73,152.46c15.52,40.26,60.73,60.31,100.99,44.82l366.78-141.29
		c-25.34,66.2-18.13,140.46,19.46,200.55l8.98,14.36v151.78c0,8.63,6.99,15.62,15.62,15.62h281.25c8.63,0,15.62-6.99,15.62-15.62
		V406.11c-0.15-54.04-21.66-105.81-59.86-144.02L781.25,165.53z M781.25,258.98l47.42,123.1c9.29,24.16-2.75,51.28-26.91,60.58
		l-27.11,10.47c4.33-9.85,6.57-20.5,6.59-31.25V258.98z M31.25,421.88V78.12c0-25.88,20.99-46.88,46.88-46.88h625
		c25.88,0,46.88,20.99,46.88,46.88v99.31h-0.14l0.14,0.36v244.08c-0.12,2.73-0.48,5.43-1.06,8.09L605.81,286.83
		c-32.17-31.43-83.46-31.67-115.92-0.57c-32.47,31.12-34.42,82.37-4.39,115.85l61.02,66.64H78.12
		C52.24,468.75,31.25,447.76,31.25,421.88z M231.42,500l-111.11,42.78L103.88,500H231.42z M218.55,667.31
		c-24.16,9.31-51.29-2.73-60.59-26.89l-26.36-68.55L318.11,500v-0.09h257.05l20.31,22.14L218.55,667.31z M906.25,906.25h-250v-125
		h250V906.25z M906.25,750H649.3l-6.78-10.83c-38.1-60.88-39.61-137.78-3.96-200.11c3.38-5.9,2.55-13.3-2.05-18.31L508.47,381.06
		c-19.09-20.9-18.02-53.21,2.42-72.78c20.45-19.58,52.77-19.26,72.82,0.71L832.7,557.92l22.09-22.09l-57.81-57.81l16.03-6.25
		c40.23-15.52,60.27-60.69,44.8-100.94L804.93,233.5l50.62,50.72c32.34,32.34,50.58,76.16,50.71,121.89V750z"/>
	<path class="st0" d="M178.12,218.75c22.44,0,40.62-18.19,40.62-40.62v-75c0-22.44-18.19-40.62-40.62-40.62h-75
		c-22.44,0-40.62,18.19-40.62,40.62v75c0,22.44,18.19,40.62,40.62,40.62H178.12z M93.75,178.12v-21.88H125V125H93.75v-21.88
		c0-5.18,4.2-9.38,9.38-9.38h75c5.18,0,9.38,4.2,9.38,9.38V125h-31.25v31.25h31.25v21.88c0,5.18-4.2,9.38-9.38,9.38h-75
		C97.95,187.5,93.75,183.3,93.75,178.12z"/>
	<path class="st0" d="M78.12,265.62h62.5v31.25h-62.5V265.62z"/>
	<path class="st0" d="M78.12,359.38h62.5v31.25h-62.5V359.38z"/>
	<path class="st0" d="M359.38,359.38h62.5v31.25h-62.5V359.38z"/>
	<path class="st0" d="M171.88,265.62h62.5v31.25h-62.5V265.62z"/>
	<path class="st0" d="M265.62,265.62h62.5v31.25h-62.5V265.62z"/>
	<path class="st0" d="M359.38,265.62h62.5v31.25h-62.5V265.62z"/>
	<path class="st0" d="M656.25,78.12h31.25V125h-31.25V78.12z"/>
	<path class="st0" d="M593.75,78.12H625V125h-31.25V78.12z"/>
	<path class="st0" d="M531.25,78.12h31.25V125h-31.25V78.12z"/>
	<path class="st0" d="M468.75,78.12H500V125h-31.25V78.12z"/>
	<path class="st0" d="M687.5,812.5h31.25v31.25H687.5V812.5z"/>
</g>
</svg>
