<?xml version="1.0" encoding="utf-8"?>
<!-- Generator: Adobe Illustrator 23.1.1, SVG Export Plug-In . SVG Version: 6.00 Build 0)  -->
<svg version="1.1" id="Layer_1" xmlns="http://www.w3.org/2000/svg" xmlns:xlink="http://www.w3.org/1999/xlink" x="0px" y="0px"
	 viewBox="0 0 512 512" style="enable-background:new 0 0 512 512;" xml:space="preserve">
<style type="text/css">
	.st0{fill:#FFFFFF;}
</style>
<g>
	<g>
		<path class="st0" d="M404.27,315.41c-10.05-20.95-45.99-50.03-80.73-78.12c-19.37-15.66-37.67-30.46-49.34-42.13
			c-2.92-2.94-7.3-3.88-11.16-2.5c-7.19,2.6-11.63,4.61-15.12,6.16c-5.33,2.39-7.12,3.2-14.32,3.93c-3.18,0.32-6.04,2.03-7.81,4.67
			c-15.08,22.55-30.7,20.63-41.13,17.13c-3.33-1.11-3.93-2.54-4.24-3.9c-2.24-9.37,9-31.17,23.57-45.74
			c34.67-34.69,52.54-43.37,90.3-26.5c42.84,19.16,85.76,34.15,86.19,34.3c5.61,1.94,11.65-1,13.59-6.57
			c1.92-5.57-1-11.65-6.57-13.59c-0.43-0.15-42.5-14.85-84.48-33.64c-48.92-21.87-75.76-7.47-114.09,30.89
			c-14.59,14.59-34.41,44.12-29.29,65.77c2.2,9.22,8.68,16.04,18.32,19.22c24.17,7.98,46.23,0.34,62.66-21.46
			c6.78-1.04,10.48-2.58,16.02-5.08c2.01-0.9,4.35-1.94,7.47-3.2c12.2,11.46,28.67,24.79,46.02,38.81
			c31.36,25.36,66.92,54.12,74.92,70.76c3.95,8.21-0.3,13.57-3.18,16.02c-4.22,3.63-10.01,4.78-13.14,2.58
			c-3.46-2.37-7.96-2.52-11.52-0.38c-3.58,2.13-5.59,6.17-5.14,10.3c0.73,6.78-5.48,10.67-8.17,12.01
			c-6.83,3.46-13.95,2.86-16.62,0.38c-2.99-2.77-7.27-3.58-11.07-2.18c-3.8,1.43-6.44,4.93-6.83,8.98
			c-0.64,7-5.82,13.72-12.59,16.34c-3.26,1.24-8,1.98-12.24-1.9c-2.64-2.39-6.32-3.31-9.75-2.48c-3.48,0.85-6.27,3.37-7.49,6.72
			c-0.4,1.07-1.32,3.63-11.31,3.63c-7.1,0-19.88-4.8-26.13-8.94c-7.49-4.93-54.44-39.96-95-73.92c-5.7-4.8-15.55-15.08-24.26-24.17
			c-7.72-8.06-14.78-15.38-18.41-18.45c-4.54-3.84-11.26-3.26-15.04,1.26c-3.8,4.5-3.24,11.24,1.26,15.04
			c3.31,2.8,9.71,9.56,16.77,16.92c9.51,9.94,19.35,20.22,25.96,25.77c39.72,33.26,87.47,69.16,96.98,75.41
			c7.85,5.16,24.77,12.42,37.87,12.42c10.52,0,18.6-2.41,24.21-7.12c7.51,2.92,16.04,2.94,24.26-0.26
			c9.71-3.76,17.68-11.33,22.21-20.5c8.4,1.79,18.03,0.53,26.77-3.86c8.55-4.31,14.74-10.9,17.81-18.6
			c8.49,0.45,17.24-2.56,24.47-8.77C407.98,346.41,411.35,330.11,404.27,315.41z"/>
	</g>
</g>
<g>
	<g>
		<path class="st0" d="M213.33,138.66h-96c-5.89,0-10.67,4.78-10.67,10.67S111.44,160,117.33,160h96c5.89,0,10.67-4.78,10.67-10.67
			S219.22,138.66,213.33,138.66z"/>
	</g>
</g>
<g>
	<g>
		<path class="st0" d="M435.52,292.71c-3.31-4.89-9.92-6.23-14.8-2.9l-31.19,20.95c-4.89,3.29-6.19,9.92-2.9,14.8
			c2.07,3.05,5.44,4.71,8.88,4.71c2.03,0,4.1-0.58,5.93-1.81l31.19-20.95C437.5,304.23,438.8,297.6,435.52,292.71z"/>
	</g>
</g>
<g>
	<g>
		<path class="st0" d="M369.3,343.61c-7.64-6.02-41.79-40.98-62.91-63c-4.08-4.27-10.84-4.42-15.08-0.32
			c-4.27,4.08-4.39,10.84-0.32,15.08c5.48,5.72,53.85,56.13,65.09,65c1.94,1.54,4.29,2.28,6.59,2.28c3.14,0,6.27-1.41,8.4-4.08
			C374.72,353.98,373.93,347.26,369.3,343.61z"/>
	</g>
</g>
<g>
	<g>
		<path class="st0" d="M326.68,365.01c-12.78-10.22-44.89-44.33-52.14-52.22c-4.01-4.35-10.73-4.61-15.08-0.64
			c-4.33,3.99-4.63,10.75-0.64,15.08c0.38,0.4,38.7,41.77,54.53,54.44c1.96,1.56,4.33,2.33,6.66,2.33c3.11,0,6.23-1.39,8.34-3.99
			C332.01,375.4,331.26,368.68,326.68,365.01z"/>
	</g>
</g>
<g>
	<g>
		<path class="st0" d="M284.22,386.49c-15.21-12.82-46.34-45.95-52.42-52.46c-4.03-4.31-10.79-4.54-15.08-0.51
			c-4.31,4.03-4.52,10.77-0.51,15.08c8.75,9.36,38.53,40.94,54.25,54.21c2.01,1.68,4.44,2.52,6.87,2.52c3.03,0,6.06-1.3,8.17-3.8
			C289.3,397.01,288.73,390.29,284.22,386.49z"/>
	</g>
</g>
<g>
	<g>
		<path class="st0" d="M124.67,120.25c-18.28-17.32-91.39-22.93-113.36-24.24c-3.03-0.15-5.82,0.85-7.96,2.88
			C1.22,100.9,0,103.72,0,106.66v192c0,5.89,4.78,10.67,10.67,10.67h64c4.61,0,8.7-2.96,10.13-7.36
			c1.56-4.78,38.32-117.59,43.16-173.06C128.24,125.67,127.04,122.47,124.67,120.25z M66.88,288H21.33V118.1
			c34.28,2.71,71.28,8.6,84.71,15.12C100.39,179.94,74.82,262.95,66.88,288z"/>
	</g>
</g>
<g>
	<g>
		<path class="st0" d="M501.33,117.33c-83.76,0-130.22,21.44-132.16,22.34c-2.77,1.3-4.84,3.71-5.7,6.63s-0.43,6.06,1.17,8.66
			c13.18,21.23,54.46,139.12,62.4,167.87c1.28,4.63,5.48,7.83,10.28,7.83h64c5.89,0,10.67-4.78,10.67-10.67V128
			C512,122.09,507.22,117.33,501.33,117.33z M490.67,309.33h-45.36C435.2,276.39,405.33,190.5,388.67,155
			c16.28-5.52,51.24-15.02,101.99-16.21V309.33z"/>
	</g>
</g>
</svg>
