<?xml version="1.0" encoding="utf-8"?>
<!-- Generator: Adobe Illustrator 23.1.1, SVG Export Plug-In . SVG Version: 6.00 Build 0)  -->
<svg version="1.1" id="Layer_1" xmlns="http://www.w3.org/2000/svg" xmlns:xlink="http://www.w3.org/1999/xlink" x="0px" y="0px"
	 viewBox="0 0 300 300" style="enable-background:new 0 0 300 300;" xml:space="preserve">
<style type="text/css">
	.st0{fill:#FFFFFF;}
</style>
<path id="Path_18" class="st0" d="M227.06,68.84L227.06,68.84c-2.94-0.01-5.63-1.66-6.99-4.27c-13.71-26.19-40.82-42.61-70.38-42.62
	c-29.56,0.02-56.67,16.44-70.38,42.62c-1.35,2.61-4.05,4.26-6.99,4.27l0,0c-38.9,0-70.44,31.54-70.44,70.44v59.25
	c0.04,44.06,35.56,79.86,79.62,80.23c25.81-0.07,49.98-12.69,64.79-33.83c1.31-1.87,3.89-2.33,5.77-1.01
	c0.39,0.28,0.74,0.62,1.01,1.01c14.81,21.14,38.97,33.76,64.79,33.83c44.06-0.38,79.58-36.18,79.62-80.23v-59.25
	C297.47,100.39,265.95,68.85,227.06,68.84z M21.91,139.86c0-27.86,22.58-50.44,50.44-50.44l0,0v110.5H21.91V139.86z M81.32,259.34
	c-32.81,0-59.41-26.6-59.41-59.41c0,0,0,0,0,0h50.44c0,4.95,4.02,8.97,8.97,8.97c4.95,0,8.97-4.02,8.97-8.97h50.44
	C140.72,232.74,114.13,259.33,81.32,259.34L81.32,259.34z M149.7,92.97c-4.95,0-8.97,4.02-8.97,8.97v97.98H90.29v-97.98
	c0-32.81,26.6-59.41,59.41-59.41c32.81,0,59.41,26.6,59.41,59.41v97.98h-50.44v-97.98C158.67,96.99,154.66,92.97,149.7,92.97
	C149.7,92.97,149.7,92.97,149.7,92.97L149.7,92.97z M218.08,259.34c-32.81,0-59.41-26.6-59.41-59.41v0h50.44
	c0,4.95,4.02,8.97,8.97,8.97c4.95,0,8.97-4.02,8.97-8.97h50.44C277.49,232.74,250.89,259.33,218.08,259.34L218.08,259.34z
	 M277.49,199.93h-50.44V89.42c27.85,0,50.44,22.58,50.44,50.43c0,0,0,0,0,0.01V199.93z"/>
</svg>
