<?xml version="1.0" encoding="utf-8"?>
<!-- Generator: Adobe Illustrator 23.1.1, SVG Export Plug-In . SVG Version: 6.00 Build 0)  -->
<svg version="1.1" id="Layer_1" xmlns="http://www.w3.org/2000/svg" xmlns:xlink="http://www.w3.org/1999/xlink" x="0px" y="0px"
	 viewBox="0 0 600 224" style="enable-background:new 0 0 600 224;" xml:space="preserve">
<style type="text/css">
	.st0{fill:#FFFFFF;}
</style>
<g id="Group_13" transform="translate(-98 283)">
	<g transform="translate(243.151 -169.918)">
		<path id="Path_20" class="st0" d="M121.51,92.75l-14.36-1.84c-1.05-2.2-1.97-4.45-2.77-6.75c-0.27-0.75,0.12-1.58,0.88-1.85
			c0.33-0.12,0.69-0.11,1.01,0.02c6.89,2.71,13.64,5.76,20.22,9.15c0.7,0.38,0.97,1.25,0.6,1.96c-0.14,0.25-0.34,0.46-0.6,0.6
			c-6.39,3.34-13.54,6.44-20.23,9.15c-0.74,0.29-1.58-0.07-1.87-0.8c-0.13-0.32-0.14-0.68-0.02-1.01c0.79-2.26,1.72-4.48,2.79-6.62
			L121.51,92.75z"/>
		<g id="Group_4" transform="translate(0 56.541)">
			<path id="Rectangle_94" class="st0" d="M24.43,36.78h2.27c0.94,0,1.7,0.76,1.7,1.7v7.94c0,0.94-0.76,1.7-1.7,1.7h-2.27
				c-0.94,0-1.7-0.76-1.7-1.7v-7.94C22.73,37.54,23.49,36.78,24.43,36.78z"/>
			<path id="Rectangle_95" class="st0" d="M40.31,29.97h2.27c0.94,0,1.7,0.76,1.7,1.7v14.75c0,0.94-0.76,1.7-1.7,1.7h-2.27
				c-0.94,0-1.7-0.76-1.7-1.7V31.67C38.61,30.73,39.37,29.97,40.31,29.97z"/>
			<path id="Rectangle_96" class="st0" d="M32.37,25.43h2.27c0.94,0,1.7,0.76,1.7,1.7v19.29c0,0.94-0.76,1.7-1.7,1.7h-2.27
				c-0.94,0-1.7-0.76-1.7-1.7V27.13C30.67,26.19,31.43,25.43,32.37,25.43z"/>
		</g>
		<path id="Path_21" class="st0" d="M447.03,23.81c-1.06,0-1.91,0.86-1.92,1.91c0,0,0,0,0,0v6.7c0,2.64-2.14,4.79-4.79,4.79
			c-2.64,0-4.79-2.14-4.79-4.79v-9.1c0-0.79,0.64-1.44,1.44-1.44c0.79,0,1.44,0.64,1.44,1.44v8.14c0,1.06,0.86,1.91,1.92,1.91
			c0,0,0,0,0.01,0c1.06,0,1.92-0.86,1.92-1.92v-8.14c0-2.91-2.36-5.26-5.27-5.26c0,0,0,0,0,0c-2.91,0-5.27,2.36-5.27,5.27v9.1
			c0,4.76,3.86,8.62,8.62,8.62c4.76,0,8.62-3.86,8.62-8.62v-6.7c0-1.06-0.86-1.92-1.91-1.92C447.03,23.81,447.03,23.81,447.03,23.81
			z"/>
		<g id="Group_5" transform="translate(286.082)">
			<circle id="Ellipse_1" class="st0" cx="68.57" cy="38.65" r="2.39"/>
			<circle id="Ellipse_2" class="st0" cx="79.11" cy="38.65" r="2.39"/>
			<path id="Path_22" class="st0" d="M69.05,21.9l-0.68-2.74c-0.16-0.64-0.73-1.09-1.39-1.09H63.3c-1.06,0-1.92,0.85-1.92,1.91
				c0,0,0,0,0,0.01l0,0c0,1.06,0.86,1.91,1.91,1.92c0,0,0,0,0,0h0.97c0.3,3.78,0.85,7.53,1.65,11.24c0.15,0.7,0.79,1.17,1.5,1.13
				l12.93-0.81c0.68-0.04,1.23-0.55,1.34-1.22c0.44-2.94,0.7-5.91,0.76-8.89c0.01-0.79-0.62-1.45-1.42-1.46c-0.01,0-0.02,0-0.03,0
				L69.05,21.9z"/>
		</g>
		<g id="Group_6" transform="translate(215.364 58.059)">
			<path id="Path_23" class="st0" d="M56.62,35.76c1.8,2.46,3.97,4.62,6.42,6.42c0.39,0.28,0.93,0.24,1.27-0.11l2.18-2.18
				c0.41-0.41,1.03-0.54,1.58-0.32l3.94,1.58c0.75,0.3,1.12,1.15,0.82,1.9c-0.07,0.18-0.18,0.35-0.32,0.49l-0.81,0.81
				c-3.35,3.37-8.77,3.45-12.23,0.19c-1.78-1.69-3.51-3.43-5.2-5.2c-3.26-3.45-3.18-8.88,0.19-12.23l0.81-0.81
				c0.57-0.57,1.5-0.57,2.07,0c0.14,0.14,0.25,0.31,0.32,0.49l1.58,3.94c0.22,0.54,0.09,1.16-0.32,1.58l-2.18,2.18
				C56.39,34.84,56.34,35.37,56.62,35.76z"/>
		</g>
	</g>
	<g id="Isolation_Mode" transform="translate(98 -283)">
		<path id="Path_24" class="st0" d="M100.49,74.14c-2.9,2.93-5.96,5.59-8.67,8.69c-0.52,0.6-0.45,1.51,0.15,2.03
			c0.26,0.23,0.59,0.35,0.94,0.35h4.86l0.64,7.67c0.13,1.62,1.49,2.86,3.11,2.86l0,0c1.62,0,2.98-1.24,3.11-2.86l0.64-7.67h4.86
			c0.79,0,1.44-0.64,1.44-1.43c0-0.35-0.12-0.68-0.35-0.94c-2.71-3.1-5.77-5.76-8.67-8.69C101.97,73.57,101.05,73.57,100.49,74.14
			C100.49,74.13,100.49,74.13,100.49,74.14z"/>
		<path id="Path_25" class="st0" d="M432.12,6.15c-0.04-0.77-0.67-1.38-1.44-1.38h-2.21V4.3c0-0.79-0.64-1.44-1.44-1.44
			c-0.79,0-1.44,0.64-1.44,1.44v0.48h-4.79V4.3c0-0.79-0.64-1.44-1.44-1.44c0,0,0,0,0,0c-0.79,0-1.44,0.64-1.44,1.44v0.48h-2.21
			c-0.77,0-1.41,0.61-1.44,1.38c-0.23,5.46-0.23,10.93,0,16.4c0.04,0.77,0.67,1.38,1.44,1.38h14.96c0.77,0,1.41-0.61,1.44-1.38
			C432.35,17.09,432.35,11.62,432.12,6.15z M423.92,16.26h-5.03c-0.53,0-0.96-0.43-0.96-0.96c0-0.53,0.43-0.96,0.96-0.96h5.03
			c0.53,0,0.96,0.43,0.96,0.96C424.87,15.84,424.45,16.27,423.92,16.26C423.92,16.27,423.92,16.27,423.92,16.26L423.92,16.26z
			 M426.55,12.43h-7.66c-0.53,0-0.96-0.43-0.96-0.96c0-0.53,0.43-0.96,0.96-0.96h7.66c0.53,0,0.96,0.43,0.96,0.96
			C427.51,12.01,427.08,12.44,426.55,12.43C426.55,12.44,426.55,12.44,426.55,12.43L426.55,12.43z"/>
		<path id="Path_26" class="st0" d="M4.52,23.3c-0.24-5.79-0.24-11.34,0-17.14c0.03-0.77,0.67-1.38,1.44-1.38h5.92
			c0.52,0,0.99,0.28,1.25,0.73l1.74,3.1h10.84c0.77,0,1.4,0.6,1.44,1.37c0.22,4.52,0.22,8.81,0,13.33
			c-0.04,0.75-0.65,1.35-1.41,1.38c-6.76,0.25-13.06,0.25-19.82,0C5.16,24.66,4.55,24.06,4.52,23.3z"/>
		<path id="Path_27" class="st0" d="M269.02,6.93c-1.7-1.23-3.9-1.54-5.87-0.82c-1.34,0.46-2.48,1.39-3.19,2.62
			c-0.71-1.23-1.84-2.16-3.19-2.62c-1.97-0.72-4.17-0.41-5.87,0.82c-2.65,1.94-3.22,5.66-1.28,8.31c0.2,0.27,0.41,0.52,0.65,0.75
			l8.65,8.47c0.58,0.56,1.5,0.56,2.08,0l8.65-8.47c2.36-2.29,2.41-6.05,0.12-8.41C269.54,7.35,269.29,7.13,269.02,6.93z"/>
		<path id="Path_28" class="st0" d="M109.44,9.39c-0.02-0.37-0.18-0.72-0.45-0.97c-1.94-1.99-4.09-3.78-6.4-5.33
			c-0.23-0.15-0.5-0.23-0.78-0.23h-9.68c-0.78,0-1.41,0.61-1.44,1.39c-0.25,6.73-0.25,13.46,0,20.2c0.03,0.78,0.67,1.39,1.44,1.39
			h15.91c0.77,0,1.4-0.6,1.44-1.37C109.72,19.44,109.71,14.42,109.44,9.39z M106.78,11.48h-4.31c-0.79,0-1.44-0.64-1.44-1.44V5.73
			c0-0.53,0.43-0.96,0.96-0.96l0,0c0.53,0,0.96,0.43,0.96,0.96v3.83h3.83c0.53,0,0.96,0.43,0.96,0.96l0,0
			C107.74,11.05,107.31,11.48,106.78,11.48C106.78,11.48,106.78,11.48,106.78,11.48L106.78,11.48z"/>
		<path id="Path_29" class="st0" d="M188.92,11.09c-0.03-0.49-0.31-0.94-0.74-1.18l-7.08-4c-0.44-0.25-0.99-0.25-1.43,0.01
			l-6.86,3.99c-0.43,0.24-0.71,0.68-0.74,1.18c-0.24,4.14-0.25,8.29-0.03,12.43c0.05,0.76,0.68,1.36,1.44,1.36h3.19
			c0.53,0,0.96-0.43,0.96-0.96V19.4c0-0.79,0.64-1.44,1.44-1.44h2.87c0.79,0,1.44,0.64,1.44,1.44v4.53c0,0.53,0.43,0.96,0.96,0.96
			h3.19c0.76,0,1.4-0.59,1.44-1.36C189.18,19.39,189.17,15.23,188.92,11.09z"/>
		<g id="Group_7" transform="translate(430.385 3.375)">
			<path id="Path_30" class="st0" d="M85.1,8.1c-0.06-1.04-0.13-2.08-0.23-3.12c-0.07-0.69-0.63-1.23-1.33-1.28
				c-6.85-0.51-13.73-0.51-20.58,0c-0.69,0.05-1.25,0.59-1.33,1.28c-0.1,1.04-0.18,2.08-0.23,3.12H85.1z"/>
			<path id="Path_31" class="st0" d="M61.27,10.02c-0.04,2.64,0.07,5.28,0.33,7.9c0.07,0.69,0.63,1.24,1.33,1.29
				c6.86,0.51,13.75,0.51,20.61,0c0.7-0.05,1.26-0.6,1.33-1.29c0.26-2.63,0.37-5.26,0.32-7.9H61.27z M69.88,16.72h-3.83
				c-0.53,0-0.96-0.43-0.96-0.96c0-0.53,0.43-0.96,0.96-0.96h3.83c0.53,0,0.96,0.43,0.96,0.96C70.84,16.29,70.41,16.72,69.88,16.72
				L69.88,16.72z M74.67,16.72h-1.92c-0.53,0-0.96-0.43-0.96-0.96c0-0.53,0.43-0.96,0.96-0.96h1.92c0.53,0,0.96,0.43,0.96,0.96
				C75.62,16.29,75.2,16.72,74.67,16.72L74.67,16.72z"/>
		</g>
		<path id="Path_32" class="st0" d="M24.55,139.66c-1.56-0.05-3.12-0.08-4.68-0.1c-0.02-1.56-0.05-3.12-0.1-4.68
			c-0.06-1.55-1.33-2.77-2.88-2.77h-0.21c-1.55,0-2.82,1.22-2.88,2.77c-0.05,1.56-0.08,3.12-0.1,4.68c-1.56,0.02-3.12,0.05-4.68,0.1
			c-1.55,0.06-2.77,1.33-2.77,2.88v0.21c0,1.55,1.22,2.82,2.77,2.88c1.56,0.05,3.12,0.08,4.68,0.1c0.02,1.56,0.05,3.12,0.1,4.68
			c0.06,1.55,1.33,2.77,2.88,2.77h0.21c1.55,0,2.82-1.22,2.88-2.77c0.05-1.56,0.08-3.12,0.1-4.68c1.56-0.02,3.12-0.05,4.68-0.1
			c1.55-0.06,2.77-1.33,2.77-2.88v-0.21C27.32,140.99,26.09,139.72,24.55,139.66z"/>
		<path id="Path_33" class="st0" d="M184.25,142.16c1.05-1.07,2.1-2.14,3.13-3.23c1.07-1.15,1.03-2.94-0.08-4.05
			c-1.11-1.11-2.9-1.15-4.05-0.08c-1.09,1.02-2.16,2.08-3.23,3.13c-1.07-1.05-2.14-2.1-3.23-3.13c-1.15-1.07-2.94-1.03-4.05,0.08
			c-1.11,1.11-1.15,2.9-0.08,4.05c1.02,1.09,2.08,2.16,3.13,3.23c-1.05,1.07-2.1,2.14-3.13,3.23c-1.07,1.15-1.03,2.94,0.08,4.05l0,0
			c1.11,1.11,2.9,1.15,4.05,0.08c1.09-1.02,2.16-2.08,3.23-3.13c1.07,1.05,2.14,2.1,3.23,3.13c1.15,1.07,2.94,1.03,4.05-0.08l0,0
			c1.11-1.11,1.15-2.9,0.08-4.05C186.35,144.3,185.3,143.24,184.25,142.16z"/>
		<path id="Path_34" class="st0" d="M90.88,144.43c5.89,0.18,11.78,0.18,17.68,0c1.48-0.05,2.65-1.26,2.65-2.74l0,0
			c0-1.48-1.17-2.69-2.65-2.74c-5.89-0.18-11.78-0.18-17.68,0c-1.48,0.05-2.65,1.26-2.65,2.74l0,0
			C88.23,143.16,89.4,144.38,90.88,144.43z"/>
		<path id="Path_35" class="st0" d="M265.58,135.76c-2.73,2.55-5.41,5.15-8.05,7.79l-2.26-2.2c-1.12-1.09-2.89-1.12-4.04-0.05
			l-0.04,0.04c-1.07,1.06-1.07,2.78-0.01,3.85c0.02,0.02,0.04,0.04,0.07,0.07l4.33,4.21c1.13,1.09,2.9,1.11,4.06,0.05
			c3.42-3.19,6.78-6.44,10.06-9.77c1.07-1.08,1.07-2.83-0.01-3.9c-0.01-0.01-0.02-0.02-0.04-0.04l-0.01-0.01
			C268.5,134.73,266.73,134.71,265.58,135.76z"/>
		<g id="Group_8" transform="translate(288.613 1.688)">
			<path id="Path_36" class="st0" d="M58.47,4.53c0-0.79-0.64-1.44-1.44-1.44l0,0h-8.62c-0.79,0-1.43,0.65-1.43,1.44v2.39
				c0,0.53,0.43,0.96,0.96,0.96h9.57c0.53,0,0.96-0.43,0.96-0.96L58.47,4.53z"/>
			<path id="Path_37" class="st0" d="M58.94,18.22c-0.09-0.45-0.48-0.77-0.94-0.77H47.45c-0.46,0-0.85,0.32-0.94,0.77l-0.46,2.3
				c-0.16,0.78,0.35,1.53,1.13,1.69c0.09,0.02,0.19,0.03,0.28,0.03h10.53c0.79,0,1.44-0.64,1.44-1.43c0-0.1-0.01-0.19-0.03-0.28
				L58.94,18.22z"/>
			<path id="Path_38" class="st0" d="M61.31,8.83H44.14c-1.05,0-1.91,0.84-1.93,1.9c-0.03,2.28-0.05,6.19,0.08,8.2
				c0.04,0.74,0.65,1.33,1.39,1.36l0.98,0.04l1.04-3.74c0.17-0.62,0.74-1.05,1.38-1.05h11.29c0.64,0,1.21,0.43,1.38,1.05l1.04,3.74
				l0.98-0.04c0.74-0.03,1.35-0.62,1.39-1.36c0.12-2.01,0.1-5.92,0.07-8.2C63.22,9.68,62.36,8.83,61.31,8.83z M45.03,12.66
				c-0.53,0-0.96-0.43-0.96-0.96c0-0.53,0.43-0.96,0.96-0.96c0.53,0,0.96,0.43,0.96,0.96C45.99,12.24,45.56,12.66,45.03,12.66z"/>
		</g>
		<path id="Path_39" class="st0" d="M22.39,214.96c0.2-6.77,0.19-11.59-0.05-18.28c-0.03-0.77-0.67-1.38-1.44-1.38H8.83
			c-0.77,0-1.41,0.61-1.44,1.38c-0.23,6.69-0.25,11.51-0.05,18.28c0.02,0.79,0.68,1.42,1.47,1.4c0.3-0.01,0.59-0.11,0.82-0.29
			l5.22-4.5l5.22,4.5c0.63,0.48,1.53,0.35,2.01-0.28C22.28,215.55,22.38,215.26,22.39,214.96z"/>
		<path id="Path_40" class="st0" d="M586.31,71.65l2.61,5.28l5.84,0.85c0.8,0.12,1.35,0.85,1.23,1.65c-0.05,0.32-0.2,0.61-0.43,0.84
			l-4.22,4.11l1,5.81c0.14,0.79-0.4,1.55-1.19,1.68c-0.32,0.05-0.64,0-0.93-0.15l-5.23-2.74l-5.22,2.74
			c-0.71,0.38-1.6,0.1-1.97-0.61c-0.15-0.28-0.2-0.61-0.15-0.93l1-5.81l-4.22-4.11c-0.58-0.56-0.59-1.48-0.03-2.06
			c0.22-0.23,0.52-0.38,0.84-0.43l5.84-0.85l2.61-5.28c0.35-0.72,1.23-1.03,1.95-0.67C585.93,71.12,586.16,71.36,586.31,71.65z"/>
		<path id="Path_41" class="st0" d="M515.17,78.89c-2.63-2.63-5.14-4.48-7.72-6.74c-0.6-0.52-1.51-0.46-2.03,0.14
			c-0.23,0.26-0.35,0.59-0.35,0.94v5.27h-3.83c-4.76,0-8.62,3.86-8.62,8.62v0.96c0,1.06,0.86,1.92,1.92,1.92l0,0
			c1.06,0,1.92-0.86,1.92-1.92v-0.96c0-2.64,2.14-4.79,4.79-4.79h3.83v4.7c0,0.79,0.64,1.44,1.44,1.44c0.36,0,0.71-0.13,0.97-0.38
			c2.58-2.37,5.08-4.48,7.71-7.17C515.73,80.35,515.73,79.45,515.17,78.89z"/>
		<path id="Path_42" class="st0" d="M495.61,219.76c-0.19-5.67-0.17-11.48,0.05-17.15c0.03-0.75,0.64-1.36,1.39-1.39
			c6.39-0.25,12.43-0.25,18.88,0c0.75,0.03,1.35,0.62,1.4,1.37c0.23,4.55,0.23,9.25,0,13.8c-0.04,0.74-0.63,1.33-1.37,1.37
			c-4.59,0.24-9.19,0.22-13.78-0.07l-4.27,3.16c-0.64,0.47-1.54,0.34-2.02-0.3C495.72,220.33,495.62,220.05,495.61,219.76z"/>
		<path id="Path_43" class="st0" d="M585.48,197.21c-4.23,0-7.66,3.43-7.66,7.66c0,3.16,4.26,11.01,6.43,14.62
			c0.41,0.68,1.29,0.9,1.97,0.5c0.2-0.12,0.37-0.29,0.5-0.5c2.17-3.61,6.43-11.46,6.43-14.62
			C593.14,200.64,589.71,197.21,585.48,197.21C585.48,197.21,585.48,197.21,585.48,197.21z M585.48,208.7
			c-2.12,0-3.83-1.71-3.83-3.83s1.71-3.83,3.83-3.83c2.12,0,3.83,1.71,3.83,3.83S587.59,208.7,585.48,208.7z"/>
		<path id="Path_44" class="st0" d="M433.9,71.16c-0.09-0.79-0.8-1.36-1.59-1.27c-0.31,0.03-0.6,0.17-0.83,0.38l-2.71,2.5
			c-2.25-1.6-5.05-2.25-7.77-1.8c-4.63,0.78-8.19,4.52-8.74,9.19c-0.67,5.78,3.48,11.01,9.26,11.67c0.4,0.05,0.8,0.07,1.2,0.07
			c2.94,0,5.74-1.23,7.73-3.39c0.69-0.79,0.61-1.99-0.18-2.68c-0.11-0.09-0.22-0.17-0.35-0.24l0,0c-0.77-0.42-1.74-0.26-2.34,0.38
			c-1.54,1.64-3.8,2.39-6.01,2.01c-2.72-0.47-4.88-2.56-5.43-5.26c-0.74-3.63,1.6-7.17,5.23-7.91c0.44-0.09,0.89-0.14,1.34-0.14
			c1.11,0,2.2,0.28,3.18,0.81l-2.12,2c-0.58,0.55-0.61,1.46-0.06,2.04c0.22,0.23,0.51,0.39,0.83,0.44c2.72,0.4,5.48,0.56,8.23,0.5
			c0.75-0.02,1.36-0.62,1.39-1.38C434.27,76.44,434.18,73.79,433.9,71.16z"/>
		<g id="Group_9" transform="translate(287.77 112.439)">
			<path id="Path_45" class="st0" d="M63.62,20.63h-5.3c0.3-0.71,0.13-1.54-0.41-2.08c-0.75-0.75-1.96-0.75-2.71,0l-1.63,1.63
				l-1.63-1.63c-0.75-0.75-1.96-0.75-2.71,0c-0.55,0.55-0.71,1.37-0.41,2.08h-5.3c-0.79,0-1.44,0.64-1.44,1.44c0,0,0,0,0,0v1.92
				c0,0.79,0.64,1.44,1.44,1.44h20.11c0.79,0,1.44-0.64,1.44-1.44v-1.92C65.06,21.27,64.42,20.63,63.62,20.63z"/>
			<path id="Path_46" class="st0" d="M45.35,40.74h7.26v-13.4h-7.26c-0.76,0-1.39,0.59-1.44,1.35c-0.2,3.56-0.2,7.14,0,10.7
				C43.96,40.14,44.59,40.74,45.35,40.74z"/>
			<path id="Path_47" class="st0" d="M54.53,27.33v13.4h7.26c0.76,0,1.39-0.59,1.44-1.35c0.2-3.56,0.2-7.14,0-10.7
				c-0.05-0.76-0.68-1.35-1.44-1.35H54.53z"/>
		</g>
		<g id="Group_10" transform="translate(286.926 170.467)">
			<path id="Path_48" class="st0" d="M64.77,27.33c-0.04-0.74-0.64-1.33-1.38-1.36c-6.46-0.24-13.4-0.24-19.86,0
				c-0.74,0.03-1.34,0.62-1.38,1.36c-0.23,4.96-0.23,9.19,0,14.15c0.04,0.74,0.64,1.33,1.38,1.36c6.46,0.24,13.4,0.24,19.86,0
				c0.74-0.03,1.34-0.62,1.38-1.36C65,36.52,65,32.29,64.77,27.33z M56.84,35.18l-4.82,2.92c-0.44,0.28-1.02,0.14-1.3-0.3
				c-0.09-0.14-0.14-0.3-0.14-0.47v-5.83c0.01-0.52,0.45-0.93,0.97-0.92c0.17,0,0.33,0.05,0.47,0.14l4.82,2.92
				c0.43,0.25,0.57,0.8,0.32,1.23C57.09,34.99,56.98,35.1,56.84,35.18L56.84,35.18z"/>
			<path id="Path_49" class="st0" d="M60.64,44.94H46.28c-0.79,0-1.44,0.64-1.44,1.44s0.64,1.44,1.44,1.44h14.36
				c0.79,0,1.44-0.64,1.44-1.44C62.07,45.58,61.43,44.94,60.64,44.94z"/>
		</g>
		<path id="Path_50" class="st0" d="M595.57,21.21c-1.55-2.18-3.27-4.22-5.16-6.1c0.53-1.14,0.81-2.38,0.81-3.63
			c0-4.76-3.86-8.62-8.62-8.62s-8.62,3.86-8.62,8.62s3.86,8.62,8.62,8.62c1.25,0,2.49-0.28,3.63-0.81c1.89,1.89,3.93,3.62,6.1,5.16
			c0.92,0.66,2.19,0.56,3-0.24C596.13,23.4,596.24,22.13,595.57,21.21z M577.82,11.48c0-2.64,2.14-4.79,4.79-4.79
			c2.64,0,4.79,2.14,4.79,4.79c0,2.64-2.14,4.79-4.79,4.79C579.96,16.27,577.82,14.13,577.82,11.48
			C577.82,11.48,577.82,11.48,577.82,11.48z"/>
		<path id="Path_51" class="st0" d="M24.97,80.82c-2.93-2.9-5.59-5.96-8.69-8.67c-0.6-0.52-1.51-0.45-2.03,0.15
			c-0.23,0.26-0.35,0.6-0.35,0.94v4.86l-7.67,0.64c-1.62,0.14-2.86,1.49-2.86,3.11l0,0c0,1.62,1.24,2.98,2.86,3.11l7.67,0.64v4.86
			c0,0.79,0.64,1.44,1.43,1.44c0.35,0,0.68-0.12,0.94-0.35c3.1-2.71,5.76-5.77,8.69-8.67C25.54,82.31,25.54,81.39,24.97,80.82
			C24.97,80.82,24.97,80.82,24.97,80.82z"/>
		<path id="Path_52" class="st0" d="M169.43,82.87c2.93,2.9,5.59,5.96,8.69,8.67c0.6,0.52,1.51,0.45,2.03-0.15
			c0.23-0.26,0.35-0.59,0.35-0.94V85.6l7.67-0.64c1.62-0.14,2.86-1.49,2.86-3.11l0,0c0-1.62-1.24-2.98-2.86-3.11l-7.67-0.64v-4.86
			c0-0.79-0.64-1.44-1.43-1.44c-0.35,0-0.68,0.12-0.94,0.35c-3.1,2.71-5.76,5.77-8.69,8.67C168.87,81.39,168.87,82.3,169.43,82.87
			C169.43,82.87,169.43,82.87,169.43,82.87z"/>
		<path id="Path_53" class="st0" d="M260.51,92.43c2.9-2.93,5.96-5.59,8.67-8.69c0.52-0.6,0.45-1.51-0.15-2.03
			c-0.26-0.23-0.59-0.35-0.94-0.35h-4.86l-0.64-7.67c-0.13-1.62-1.49-2.86-3.11-2.86l0,0c-1.62,0-2.98,1.24-3.11,2.86l-0.64,7.67
			h-4.86c-0.79,0-1.44,0.64-1.44,1.43c0,0.35,0.12,0.68,0.35,0.94c2.71,3.1,5.77,5.76,8.67,8.69C259.02,93,259.94,93,260.51,92.43
			C260.51,92.43,260.51,92.43,260.51,92.43z"/>
		<g id="Group_11" transform="translate(288.613 61.605)">
			<path id="Path_54" class="st0" d="M61.88,24.73c-6.1-0.24-12.2-0.24-18.3,0c-0.77,0.03-1.38,0.67-1.38,1.44v1.54
				c0,0.77,0.61,1.41,1.38,1.44c6.1,0.24,12.2,0.24,18.3,0c0.77-0.03,1.38-0.67,1.38-1.44v-1.54C63.26,25.4,62.65,24.77,61.88,24.73
				z"/>
			<path id="Path_55" class="st0" d="M61.88,18.03c-6.1-0.24-12.2-0.24-18.3,0c-0.77,0.03-1.38,0.67-1.38,1.44v1.54
				c0,0.77,0.61,1.41,1.38,1.44c6.1,0.24,12.2,0.24,18.3,0c0.77-0.03,1.38-0.67,1.38-1.44v-1.54C63.26,18.7,62.65,18.06,61.88,18.03
				z"/>
			<path id="Path_56" class="st0" d="M61.88,11.33c-6.1-0.24-12.2-0.24-18.3,0c-0.77,0.03-1.38,0.67-1.38,1.44v1.54
				c0,0.77,0.61,1.41,1.38,1.44c6.1,0.24,12.2,0.24,18.3,0c0.77-0.03,1.38-0.67,1.38-1.44v-1.54C63.26,12,62.65,11.36,61.88,11.33z"
				/>
		</g>
		<path id="Path_57" class="st0" d="M432.95,131.69c-0.09-0.62-0.57-1.1-1.19-1.19c-3.07-0.43-6.18-0.4-9.24,0.09
			c-0.27,0.05-0.53,0.17-0.74,0.35c-3.57,3.19-6.97,6.57-10.18,10.12c-0.49,0.54-0.49,1.37,0,1.91c2.8,3.11,5.77,6.07,8.88,8.88
			c0.54,0.49,1.37,0.49,1.91,0c3.55-3.21,6.93-6.61,10.12-10.18c0.19-0.21,0.31-0.46,0.36-0.74
			C433.35,137.87,433.38,134.76,432.95,131.69z M428.13,137.7c-1.32,0-2.39-1.07-2.39-2.39c0-1.32,1.07-2.39,2.39-2.39
			c1.32,0,2.39,1.07,2.39,2.39c0,0,0,0,0,0C430.53,136.63,429.46,137.7,428.13,137.7C428.14,137.71,428.14,137.71,428.13,137.7
			L428.13,137.7z"/>
		<g id="Group_12" transform="translate(74.263 171.312)">
			<path id="Path_58" class="st0" d="M32.31,37.55c-0.89,0.05-1.77,0.08-2.66,0.08c-1.66,0-3.33-0.08-4.98-0.25l-1.56-0.16
				l-0.16-1.56c-0.25-2.54-0.31-5.09-0.17-7.64c0-0.11-0.08-0.2-0.19-0.21c0,0-0.01,0-0.01,0c-5.27,0.19-9.39,4.61-9.22,9.88
				c0.21,5.03,4.24,9.05,9.27,9.26c5.27,0.17,9.69-3.95,9.88-9.21c0-0.11-0.08-0.2-0.19-0.2C32.32,37.55,32.32,37.55,32.31,37.55z"
				/>
			<path id="Path_59" class="st0" d="M34.41,33.77c-0.64-4.05-3.81-7.22-7.86-7.86c-0.76-0.11-1.46,0.41-1.58,1.17
				c-0.01,0.04-0.01,0.08-0.01,0.12c-0.14,2.28-0.13,4.56,0.02,6.84c0.06,0.69,0.61,1.24,1.3,1.3c2.28,0.17,4.56,0.17,6.84,0.02
				c0.77-0.05,1.35-0.72,1.3-1.49C34.42,33.84,34.42,33.81,34.41,33.77z"/>
		</g>
	</g>
</g>
</svg>
