<?xml version="1.0" encoding="utf-8"?>
<!-- Generator: Adobe Illustrator 23.1.1, SVG Export Plug-In . SVG Version: 6.00 Build 0)  -->
<svg version="1.1" id="Capa_1" xmlns="http://www.w3.org/2000/svg" xmlns:xlink="http://www.w3.org/1999/xlink" x="0px" y="0px"
	 viewBox="0 0 512 512" style="enable-background:new 0 0 512 512;" xml:space="preserve">
<style type="text/css">
	.st0{fill:#FFFFFF;}
</style>
<g>
	<g>
		<path class="st0" d="M467.76,88.1c-1.87-1.87-4.44-2.93-7.07-2.93c-2.64,0-5.21,1.06-7.08,2.93c-1.86,1.86-2.92,4.43-2.92,7.07
			c0,2.63,1.06,5.21,2.92,7.07c1.87,1.86,4.44,2.93,7.08,2.93c2.63,0,5.2-1.07,7.07-2.93c1.86-1.86,2.92-4.44,2.92-7.07
			C470.68,92.53,469.62,89.96,467.76,88.1z"/>
	</g>
</g>
<g>
	<g>
		<path class="st0" d="M238.07,323.63c-1.87-1.87-4.44-2.93-7.07-2.93c-2.64,0-5.21,1.06-7.08,2.93c-1.86,1.86-2.92,4.43-2.92,7.07
			c0,2.63,1.06,5.21,2.92,7.07c1.87,1.86,4.44,2.93,7.08,2.93c2.63,0,5.2-1.07,7.07-2.93c1.86-1.86,2.92-4.44,2.92-7.07
			C240.99,328.06,239.93,325.48,238.07,323.63z"/>
	</g>
</g>
<g>
	<g>
		<path class="st0" d="M491.98,121.31c-2.73-4.8-8.84-6.48-13.64-3.75c-4.8,2.73-6.48,8.84-3.75,13.64
			c29.71,52.24,20.74,118.44-21.81,160.99l-7.58,7.58c-1.83-4.81-4.67-9.32-8.54-13.18L333.91,183.83
			c6.72-3.31,12.93-7.72,18.38-13.17L372,150.95c3.9-3.9,3.9-10.24,0-14.14c-3.91-3.9-10.24-3.9-14.14,0l-19.71,19.71
			c-9.26,9.26-21.57,14.36-34.66,14.36h-39.4c-2.65,0-5.2,1.05-7.07,2.93l-30.16,30.16c-8.96,8.96-23.53,8.96-32.49,0
			c-8.96-8.96-8.96-23.53,0-32.49l68.86-68.86C305.31,60.55,371,51.29,422.98,80.12c4.83,2.68,10.92,0.94,13.6-3.89
			c2.68-4.83,0.93-10.92-3.89-13.6c-28.67-15.9-62.44-22.26-95.11-17.91c-30.57,4.07-58.55,16.87-81.49,37.18
			c-28.18-24.98-64.05-38.64-102.03-38.64c-41.15,0-79.83,16.02-108.92,45.12S0,156.16,0,197.3c0,41.15,16.02,79.83,45.12,108.92
			l3.77,3.77c0.66,0.65,1.38,1.19,2.15,1.63c0.67,8.65,4.29,17.12,10.9,23.72c7.35,7.35,17,11.02,26.65,11.02c0.5,0,1-0.02,1.5-0.04
			c-0.02,0.51-0.04,1.01-0.04,1.52c0,10.07,3.92,19.53,11.04,26.65c7.35,7.35,17,11.02,26.65,11.02c0.5,0,1-0.02,1.5-0.04
			c-0.02,0.51-0.04,1.01-0.04,1.52c0,10.07,3.92,19.53,11.04,26.65c7.35,7.35,17,11.02,26.65,11.02c0.51,0,1.01-0.02,1.52-0.04
			c-0.41,10.15,3.25,20.44,10.98,28.17c7.12,7.12,16.58,11.04,26.65,11.04c10.07,0,19.53-3.92,26.65-11.04l13.98-13.98l18.88,18.88
			c7.12,7.12,16.58,11.04,26.65,11.04s19.53-3.92,26.65-11.04c7.83-7.83,11.48-18.27,10.97-28.54c0.63,0.03,1.26,0.05,1.89,0.05
			c9.65,0,19.3-3.67,26.65-11.02c7.73-7.73,11.39-18.01,10.98-28.15c0.51,0.02,1.01,0.04,1.52,0.04c10.07,0,19.53-3.92,26.65-11.04
			c7.73-7.73,11.39-18.01,10.98-28.15c0.51,0.02,1.01,0.04,1.52,0.04c10.07,0,19.53-3.92,26.65-11.04
			c3.61-3.61,6.34-7.79,8.17-12.25c0.97-0.47,1.89-1.11,2.7-1.91l19.39-19.39C515.82,257.44,526.13,181.35,491.98,121.31z
			 M88.58,326.37c-4.72,0-9.17-1.84-12.51-5.18c-3.34-3.34-5.18-7.78-5.18-12.51c0-4.72,1.84-9.17,5.18-12.51l17.23-17.23
			c3.34-3.34,7.78-5.18,12.51-5.18c4.72,0,9.17,1.84,12.5,5.18c6.9,6.9,6.9,18.11,0,25.01l-17.23,17.24
			C97.75,324.53,93.31,326.37,88.58,326.37z M115.24,360.35c-3.34-3.34-5.18-7.78-5.18-12.51c0-4.72,1.84-9.17,5.18-12.51
			l17.24-17.23c0,0,0,0,0,0c3.34-3.34,7.78-5.18,12.51-5.18c4.72,0,9.16,1.84,12.51,5.18c6.9,6.9,6.9,18.11,0,25.01l-17.23,17.24
			C133.35,367.24,122.13,367.24,115.24,360.35z M154.39,399.5c-3.34-3.34-5.18-7.78-5.18-12.51c0-4.72,1.84-9.17,5.18-12.51
			l17.24-17.23c0,0,0,0,0,0c3.34-3.34,7.78-5.18,12.51-5.18s9.16,1.84,12.51,5.18c6.9,6.9,6.9,18.12,0,25.01L179.4,399.5
			C172.5,406.4,161.28,406.4,154.39,399.5z M235.79,421.42l-17.24,17.24c-3.34,3.34-7.78,5.18-12.51,5.18
			c-4.72,0-9.16-1.84-12.51-5.18c-6.9-6.9-6.9-18.12,0-25.01l17.24-17.24c0,0,0,0,0,0c3.34-3.34,7.78-5.18,12.51-5.18
			c4.72,0,9.16,1.84,12.51,5.18c3.34,3.34,5.18,7.78,5.18,12.51C240.97,413.64,239.13,418.08,235.79,421.42z M422.52,325.74
			c-3.34,3.34-7.78,5.18-12.51,5.18c-4.72,0-9.17-1.84-12.51-5.18l-41.63-41.63c0,0,0,0-0.01-0.01l-39.15-39.15
			c-3.91-3.9-10.24-3.9-14.14,0c-3.9,3.9-3.9,10.24,0,14.14l80.78,80.78c6.9,6.9,6.9,18.12,0,25.01c-3.34,3.34-7.78,5.18-12.51,5.18
			c-4.72,0-9.17-1.84-12.51-5.18l-80.78-80.78c-3.91-3.9-10.24-3.9-14.14,0c-3.9,3.9-3.9,10.24,0,14.14l39.15,39.14
			c0,0,0.01,0.01,0.01,0.01l41.63,41.63c6.9,6.9,6.9,18.12,0,25.01c-6.9,6.9-18.12,6.9-25.01,0l-41.63-41.63
			c-0.77-0.77-1.64-1.38-2.56-1.85l-11.87-11.87c-3.91-3.9-10.24-3.9-14.14,0c-3.9,3.9-3.9,10.24,0,14.14l55.7,55.7
			c6.9,6.9,6.9,18.12,0,25.01c-3.34,3.34-7.78,5.18-12.51,5.18c-4.72,0-9.17-1.84-12.51-5.18l-21.2-21.2
			c1.61-4.24,2.47-8.77,2.47-13.44c0-10.07-3.92-19.53-11.04-26.65c-7.12-7.12-16.58-11.04-26.65-11.04c-0.51,0-1.01,0.02-1.52,0.04
			c0.4-10.15-3.26-20.42-10.98-28.15c-7.12-7.12-16.58-11.04-26.65-11.04c-0.51,0-1.01,0.02-1.52,0.04
			c0.4-10.15-3.26-20.42-10.98-28.15c-7.12-7.12-16.58-11.04-26.65-11.04c-0.51,0-1.01,0.02-1.52,0.04
			c0.4-10.15-3.26-20.42-10.98-28.15c-14.69-14.69-38.6-14.69-53.3,0l-17.23,17.23c-2.17,2.17-4.02,4.55-5.55,7.07
			c-23.49-24.95-36.38-57.39-36.38-91.81c0-35.8,13.94-69.46,39.26-94.78c25.32-25.32,58.98-39.26,94.78-39.26
			c32.54,0,63.3,11.52,87.64,32.62l-61.46,61.46c-8.12,8.12-12.59,18.91-12.59,30.39c0,11.48,4.47,22.27,12.59,30.39
			c8.38,8.38,19.38,12.57,30.39,12.57s22.01-4.19,30.39-12.57l27.23-27.23h35.25c2.91,0,5.79-0.2,8.63-0.55l110.4,110.4
			C429.42,307.62,429.42,318.85,422.52,325.74z"/>
	</g>
</g>
</svg>
