<?xml version="1.0" encoding="utf-8"?>
<!-- Generator: Adobe Illustrator 23.1.1, SVG Export Plug-In . SVG Version: 6.00 Build 0)  -->
<svg version="1.1" id="Layer_1" xmlns="http://www.w3.org/2000/svg" xmlns:xlink="http://www.w3.org/1999/xlink" x="0px" y="0px"
	 viewBox="0 0 511 511" style="enable-background:new 0 0 511 511;" xml:space="preserve">
<style type="text/css">
	.st0{fill:#FFFFFF;}
</style>
<path class="st0" d="M498.93,239.1c-7.65-7.06-18.05-11.42-28.55-11.96c-11.92-0.62-23.08,3.63-31.4,11.95l-56.82,56.22
	c-1.12-1.95-2.41-3.78-3.84-5.49c-6.99-8.3-17.21-12.87-28.78-12.87H270c-15,0-29.63-1.95-43.49-5.78
	c-36.12-9.99-70.64-2.69-99.81,21.12c-11.86,9.68-20.52,20.22-25.99,27.9l-14.26-13.84c-1.88-1.82-4.42-2.85-7.03-2.85
	c-0.02,0-0.04,0-0.07,0c-2.71,0.02-5.33,1.15-7.21,3.1L2.81,378.57c-1.86,1.93-2.87,4.51-2.81,7.19c0.06,2.68,1.18,5.22,3.11,7.06
	l117.26,111.65c1.95,1.85,4.44,2.78,6.93,2.78c2.62,0,5.23-1.02,7.2-3.04l68.68-70.46c1.88-1.93,2.92-4.56,2.87-7.25
	c-0.05-2.65-1.16-5.21-3.06-7.06l-5.98-5.8l13.69-1.54c8.28-0.96,16.7-1.45,25.04-1.45h121.02c19.66,0,36.37-4.3,49.65-12.78
	c0.11-0.07,0.22-0.14,0.33-0.22c4.76-3.31,9.07-7.22,12.82-11.64l81.55-95.94C515.06,273.66,514.19,253.17,498.93,239.1z
	 M127.05,483.07L24.3,385.24l55.35-57.46L181.8,426.9L127.05,483.07z M485.78,277.05L404.23,373c-2.59,3.04-5.56,5.75-8.83,8.04
	c-9.97,6.31-22.97,9.52-38.65,9.52H235.73c-9.1,0-18.31,0.53-27.32,1.58l-30.09,3.38l-63-61.14c4.38-6.49,12.43-16.98,24.09-26.5
	c24.24-19.79,51.74-25.62,81.73-17.32c15.6,4.32,32.03,6.51,48.85,6.51h79.54c14.28,0,18.1,12.37,18.1,19.68
	c0,5.34-1.72,10.42-4.71,13.95c-3.24,3.82-7.86,5.75-13.71,5.75h-69.24c-5.55,0-10.05,4.5-10.05,10.05c0,5.55,4.5,10.05,10.05,10.05
	h69.24c11.69,0,22-4.56,29.03-12.84c5.85-6.88,9.19-15.94,9.47-25.61l65.44-64.75c9.35-9.35,23.96-7.01,32.14,0.53
	C489.52,257.78,495.21,265.97,485.78,277.05z"/>
<path class="st0" d="M248.63,343.82c-1.27-5.41-6.67-8.76-12.08-7.49c-5.4,1.27-8.76,6.67-7.49,12.08l0.09,0.41
	c1.09,4.63,5.22,7.76,9.78,7.76c0.76,0,1.53-0.09,2.3-0.27c5.41-1.27,8.76-6.68,7.49-12.08L248.63,343.82z"/>
<path class="st0" d="M67.95,216.08h97.95c5.33,0,10.27-1.73,14.28-4.65c4.02,2.92,8.95,4.65,14.28,4.65h97.95
	c5.33,0,10.27-1.73,14.28-4.65c4.02,2.92,8.95,4.65,14.28,4.65h97.95c13.42,0,24.34-10.92,24.34-24.34v-45.68
	c0-20.51-11.48-38.34-28.67-47.13c8.33-10.04,13.34-22.92,13.34-36.96c0-31.97-26.01-57.98-57.98-57.98S311.98,30,311.98,61.98
	c0,14.04,5.01,26.92,13.34,36.96c-7.43,3.81-13.79,9.3-18.62,15.96c-4.83-6.67-11.19-12.16-18.62-15.96
	c8.33-10.04,13.34-22.92,13.34-36.96c0-31.97-26.01-57.98-57.98-57.98S185.45,30,185.45,61.98c0,14.04,5.02,26.92,13.34,36.96
	c-7.43,3.8-13.79,9.29-18.62,15.96c-4.83-6.67-11.19-12.16-18.62-15.96c8.33-10.04,13.34-22.92,13.34-36.96
	c0-31.98-26.01-57.99-57.98-57.99C84.95,3.99,58.94,30,58.94,61.98c0,14.03,5.01,26.92,13.34,36.96
	c-17.19,8.79-28.67,26.62-28.67,47.13v45.67C43.61,205.16,54.53,216.08,67.95,216.08z M369.96,24.1c20.88,0,37.88,16.99,37.88,37.88
	c0,20.88-16.99,37.88-37.88,37.88c-20.89,0-37.88-16.99-37.88-37.88C332.08,41.09,349.07,24.1,369.96,24.1z M343.85,113.72
	c7.86,3.98,16.73,6.24,26.11,6.24c9.39,0,18.26-2.26,26.11-6.24c15.62,2.72,27.1,16.18,27.1,32.34v45.68c0,2.34-1.9,4.23-4.23,4.23
	h-97.95c-2.33,0-4.23-1.9-4.23-4.23v-45.68C316.75,129.91,328.23,116.44,343.85,113.72z M243.44,24.1
	c20.88,0,37.88,16.99,37.88,37.88c0,20.88-16.99,37.88-37.88,37.88c-20.89,0-37.88-16.99-37.88-37.88S222.55,24.1,243.44,24.1z
	 M217.33,113.72c7.85,3.98,16.72,6.24,26.11,6.24s18.26-2.26,26.11-6.24c15.62,2.72,27.1,16.18,27.1,32.34v45.68
	c0,2.34-1.9,4.23-4.23,4.23h-97.95c-2.34,0-4.23-1.9-4.23-4.23v-45.68C190.23,129.91,201.71,116.44,217.33,113.72z M116.92,24.1
	c20.88,0,37.88,16.99,37.88,37.88c0,20.88-16.99,37.88-37.88,37.88S79.04,82.86,79.04,61.98C79.04,41.09,96.03,24.1,116.92,24.1z
	 M63.71,146.06c0-16.15,11.48-29.62,27.1-32.34c7.86,3.98,16.72,6.24,26.11,6.24s18.26-2.26,26.11-6.24
	c15.62,2.72,27.1,16.18,27.1,32.34v45.68c0,2.34-1.9,4.23-4.23,4.23H67.95c-2.34,0-4.23-1.9-4.23-4.23V146.06z"/>
</svg>
