<?xml version="1.0" encoding="utf-8"?>
<!-- Generator: Adobe Illustrator 23.1.1, SVG Export Plug-In . SVG Version: 6.00 Build 0)  -->
<svg version="1.1" id="Layer_1" xmlns="http://www.w3.org/2000/svg" xmlns:xlink="http://www.w3.org/1999/xlink" x="0px" y="0px"
	 viewBox="0 0 150 100" style="enable-background:new 0 0 150 100;" xml:space="preserve">
<style type="text/css">
	.st0{fill:#EE2355;}
</style>
<g>
	<path class="st0" d="M133.6,6.37H16.29c-6.67,0-12.07,5.4-12.07,12.07v63.29c0,6.67,5.4,12.07,12.07,12.07H133.6
		c6.67,0,12.07-5.4,12.07-12.07V18.43C145.67,11.77,140.27,6.37,133.6,6.37z M135.98,79.09c0,2.77-2.24,5.01-5.01,5.01H18.92
		c-2.77,0-5.01-2.24-5.01-5.01V21.07c0-2.77,2.24-5.01,5.01-5.01h112.05c2.77,0,5.01,2.24,5.01,5.01V79.09z"/>
	<g>
		<path class="st0" d="M59.44,30.21c8.09,0,12.41,4.59,12.41,10.41c0,4.91-3.08,7.93-5.94,8.9v0.22c3.99,1.24,6.64,4.48,6.64,9.82
			c0,6.42-4.53,11.17-12.79,11.17c-7.77,0-13.65-3.88-13.98-12.14h7.34c0.16,3.4,2.43,5.83,6.47,5.83c3.78,0,5.72-2.37,5.72-5.5
			c0-4.42-2.81-6.04-8.42-6.04h-1.57v-6.2h1.57c4.42,0,7.66-1.24,7.66-5.13c0-3.08-1.89-4.91-5.34-4.91c-3.67,0-5.23,2.37-5.5,4.86
			h-7.39C46.7,34.2,51.88,30.21,59.44,30.21z"/>
		<path class="st0" d="M77.44,64.3c8.9-7.55,18.24-14.51,18.24-21.74c0-3.51-1.57-5.88-5.29-5.88c-3.61,0-5.61,2.59-5.67,6.74h-7.34
			c0.27-9.01,6.04-13.17,13.11-13.17c8.47,0,12.73,5.02,12.73,11.87c0,9.12-8.8,16.24-15.05,21.53h15.92v6.26H77.44V64.3z"/>
	</g>
</g>
</svg>
